0
SECTION
2
HEADER
9
$INSUNITS
70
4
9
$ACADVER
1
AC1014
9
$HANDSEED
5
FFFF
0
ENDSEC
0
SECTION
2
TABLES
0
TABLE
2
VPORT
5
8
100
AcDbSymbolTable
0
ENDTAB
0
TABLE
2
LTYPE
5
5
100
AcDbSymbolTable
0
LTYPE
5
14
100
AcDbSymbolTableRecord
100
AcDbLinetypeTableRecord
2
BYBLOCK
70
0
0
LTYPE
5
15
100
AcDbSymbolTableRecord
100
AcDbLinetypeTableRecord
2
BYLAYER
70
0
0
ENDTAB
0
TABLE
2
LAYER
5
2
100
AcDbSymbolTable
70
2
0
LAYER
5
50
100
AcDbSymbolTableRecord
100
AcDbLayerTableRecord
2
0
70
0
6
CONTINUOUS
0
ENDTAB
0
TABLE
2
STYLE
5
3
100
AcDbSymbolTable
70
1
0
STYLE
5
11
100
AcDbSymbolTableRecord
100
AcDbTextStyleTableRecord
2
STANDARD
70
0
0
ENDTAB
0
TABLE
2
VIEW
5
6
100
AcDbSymbolTable
70
0
0
ENDTAB
0
TABLE
2
UCS
5
7
100
AcDbSymbolTable
70
0
0
ENDTAB
0
TABLE
2
APPID
5
9
100
AcDbSymbolTable
70
2
0
APPID
5
12
100
AcDbSymbolTableRecord
100
AcDbRegAppTableRecord
2
ACAD
70
0
0
ENDTAB
0
TABLE
2
DIMSTYLE
5
A
100
AcDbSymbolTable
70
1
0
ENDTAB
0
TABLE
2
BLOCK_RECORD
5
1
100
AcDbSymbolTable
70
1
0
BLOCK_RECORD
5
1F
100
AcDbSymbolTableRecord
100
AcDbBlockTableRecord
2
*MODEL_SPACE
0
BLOCK_RECORD
5
1B
100
AcDbSymbolTableRecord
100
AcDbBlockTableRecord
2
*PAPER_SPACE
0
ENDTAB
0
ENDSEC
0
SECTION
2
BLOCKS
0
BLOCK
5
20
100
AcDbEntity
100
AcDbBlockBegin
2
*MODEL_SPACE
0
ENDBLK
5
21
100
AcDbEntity
100
AcDbBlockEnd
0
BLOCK
5
1C
100
AcDbEntity
100
AcDbBlockBegin
2
*PAPER_SPACE
0
ENDBLK
5
1D
100
AcDbEntity
100
AcDbBlockEnd
0
ENDSEC
0
SECTION
2
ENTITIES
0
LWPOLYLINE
5
100
100
AcDbEntity
8
0
100
AcDbPolyline
90
8
70
1
43
0.0
10
-330.27333400000032
20
-363.92887100000002
10
-89.673334000000224
20
-363.92887099999984
42
0.41421356237310025
10
-88.673334000000509
20
-362.92887100000002
10
-88.673334000000324
20
-362.11637100000019
42
0.41421356237299095
10
-89.673333999999727
20
-361.11637100000019
10
-330.27333399999969
20
-361.11637099994562
42
0.41421356238928625
10
-331.27333400000009
20
-362.11637100000013
10
-331.27333400000032
20
-362.92887100000002
42
0.41421356237313667
0
LWPOLYLINE
5
101
100
AcDbEntity
8
0
100
AcDbPolyline
90
8
70
1
43
0.0
10
-198.92333399999984
20
-268.41685099992281
42
-0.41421356237309503
10
-197.92333399999984
20
-267.41685099992281
10
-171.99295399999929
20
-267.41685099992281
42
-0.41421356237307422
10
-170.99295399999929
20
-268.41685099992281
10
-170.99295399999929
20
-280.4168509999235
42
-0.41421356237307422
10
-171.99295399999929
20
-281.4168509999235
10
-197.92333399999978
20
-281.4168509999235
42
-0.41421356237307422
10
-198.92333399999981
20
-280.4168509999235
0
LWPOLYLINE
5
102
100
AcDbEntity
8
0
100
AcDbPolyline
90
8
70
1
43
0.0
10
-280.17333399999916
20
-343.61637099992356
10
-292.17333399999978
20
-343.61637099992316
42
0.41421356237310542
10
-293.17333400000018
20
-344.61637099992356
10
-293.17333400007112
20
-356.61637099992339
42
0.41421356237326151
10
-292.17333400007044
20
-357.6163709999235
10
-280.17333399999927
20
-357.61637099992356
42
0.41421356237293894
10
-279.17333399999973
20
-356.61637099992345
10
-279.17333399999973
20
-344.61637099992356
42
0.41421356237286611
0
LWPOLYLINE
5
103
100
AcDbEntity
8
0
100
AcDbPolyline
90
24
70
1
43
0.0
10
-244.23093399999985
20
-281.4163709999234
10
-243.45585399999987
20
-281.41637099992346
42
0.41421356237313667
10
-242.4558539999997
20
-280.4163709999234
10
-242.45585399999993
20
-268.41637099992346
42
0.41421356237309503
10
-243.45585399999987
20
-267.41637099992352
10
-244.23093399999985
20
-267.4163709999234
42
-0.41421356237309503
10
-244.73093399999982
20
-266.9163709999234
10
-244.73093399999993
20
-266.71637099992341
42
0.41421356237309503
10
-245.73093399999988
20
-265.71637099992347
10
-250.38573399999987
20
-265.71637099992347
42
0.41421356237309503
10
-251.38573399999984
20
-266.71637099992341
10
-251.38573399999984
20
-266.9163709999234
42
-0.41421356237309503
10
-251.88573399999984
20
-267.4163709999234
10
-259.83583399999986
20
-267.41637099992352
42
0.41421356237309503
10
-260.83583399999981
20
-268.41637099992346
10
-260.83583399999986
20
-280.4163709999234
42
0.41421356237309503
10
-259.83583399999986
20
-281.41637099992346
10
-251.88573399999984
20
-281.4163709999234
42
-0.41421356237309503
10
-251.38573399999981
20
-281.9163709999234
10
-251.38573399999981
20
-282.4163709999234
42
0.41421356237309503
10
-250.38573399999987
20
-283.41637099992334
10
-245.73093399999988
20
-283.41637099992346
42
0.4142135623730534
10
-244.73093399999985
20
-282.4163709999234
10
-244.73093399999985
20
-281.9163709999234
42
-0.41421356237309503
0
LWPOLYLINE
5
104
100
AcDbEntity
8
0
100
AcDbPolyline
90
8
70
1
43
0.0
10
-223.02333399997428
20
-343.61637099992367
42
-0.41421356237294937
10
-222.02333399997491
20
-344.61637099992367
10
-222.02333399999969
20
-356.61637099992356
42
-0.41421356237288692
10
-223.02333399999927
20
-357.61637099992345
10
-235.02333399999924
20
-357.61637099992271
42
-0.41421356237316787
10
-236.02333399999918
20
-356.61637099992345
10
-236.02333400000063
20
-344.61637099989798
42
-0.4142135623730534
10
-235.02333400000026
20
-343.61637099989764
0
LWPOLYLINE
5
105
100
AcDbEntity
8
0
100
AcDbPolyline
90
8
70
1
43
0.0
10
-51.955854000000059
20
-318.51637100000005
42
-0.41421356237308982
10
-52.955854000000059
20
-319.51637099999999
10
-71.718292028707964
20
-319.51637099999999
42
-0.41421356237309243
10
-72.718292028707964
20
-318.51637099999999
10
-72.718292028707964
20
-306.51637099999994
42
-0.414213562373069
10
-71.718292028707964
20
-305.51637099999999
10
-52.955854000000059
20
-305.51637099999999
42
-0.41421356237309243
10
-51.955854000000059
20
-306.51637100000005
0
LWPOLYLINE
5
106
100
AcDbEntity
8
0
100
AcDbPolyline
90
8
70
1
43
0.0
10
-135.01083400000022
20
-319.51637099999999
42
-0.41421356237307944
10
-136.01083400000022
20
-318.51637099999999
10
-136.01083400000022
20
-306.51637100000005
42
-0.41421356237325113
10
-135.0108339999997
20
-305.51637099999999
10
-123.01083400000022
20
-305.51637099999965
42
-0.41421356237314183
10
-122.0108339999997
20
-306.51637100000005
10
-122.01083400000039
20
-318.51637099999999
42
-0.41421356237311063
10
-123.01083400000022
20
-319.51637099999982
0
LWPOLYLINE
5
107
100
AcDbEntity
8
0
100
AcDbPolyline
90
8
70
1
43
0.0
10
-165.87333399994907
20
-343.61637100000007
42
-0.4142135623728973
10
-164.87333399994969
20
-344.61637100000013
10
-164.87333400000006
20
-356.61637099999996
42
-0.41421356237287649
10
-165.87333399999952
20
-357.61637100000007
10
-177.87333399999969
20
-357.61637099999945
42
-0.4142135623732095
10
-178.87333399999963
20
-356.61637100000002
10
-178.87333400000105
20
-344.61637100000013
42
-0.41421356238799595
10
-177.87333400000068
20
-343.61637099994874
0
LWPOLYLINE
5
108
100
AcDbEntity
8
0
100
AcDbPolyline
90
8
70
1
43
0.0
10
-335.77333399994768
20
-270.41637099999934
42
-0.4142135623728973
10
-334.77333399994785
20
-271.41637099999997
10
-334.77333400000066
20
-377.42887100000013
42
-0.41421356238799595
10
-335.77333399999992
20
-378.42887100005186
10
-336.58583399999975
20
-378.42887099999984
42
-0.41421356237328233
10
-337.58583400000015
20
-377.42887100000013
10
-337.58583400000077
20
-271.41637099994853
42
-0.41421356237328233
10
-336.58583400000009
20
-270.41637099994853
0
LWPOLYLINE
5
109
100
AcDbEntity
8
0
100
AcDbPolyline
90
8
70
1
43
0.0
10
-355.08583400000072
20
-268.41637099995631
10
-355.08583400000015
20
-280.41637099999997
42
0.41421356237309503
10
-354.08583400004403
20
-281.41637099999991
10
-342.08583400000009
20
-281.41637100004908
42
0.41421356238728835
10
-341.08583400000009
20
-280.41637099999997
10
-341.08583400000015
20
-268.41637100000003
42
0.4142135623730846
10
-342.0858340000002
20
-267.41637099999997
10
-354.08583400000009
20
-267.41637099995631
42
0.41421356237330315
0
LWPOLYLINE
5
110
100
AcDbEntity
8
0
100
AcDbPolyline
90
8
70
1
43
0.0
10
-360.13583400000073
20
-337.56637100004065
42
-0.41421356237292856
10
-361.1358340000001
20
-338.56637100004059
10
-373.13583400000033
20
-338.56637099999978
42
-0.41421356237311585
10
-374.13583400000027
20
-337.56637099999989
10
-374.13583400000078
20
-325.56637099996487
42
-0.41421356237330315
10
-373.13583400000016
20
-324.56637099996476
10
-361.13583399999976
20
-324.56637100000012
42
-0.41421356237292856
10
-360.13583400000039
20
-325.566371
0
LWPOLYLINE
5
111
100
AcDbEntity
8
0
100
AcDbPolyline
90
8
70
1
43
0.0
10
-374.13583400000039
20
-268.41637100000003
42
-0.41421356237313667
10
-373.13583400000033
20
-267.41637099999997
10
-361.13583400000039
20
-267.41637099999997
42
-0.41421356238496787
10
-360.13583399995969
20
-268.41637100000003
10
-360.13583400000027
20
-280.41637099999997
42
-0.41421356237313667
10
-361.13583400000033
20
-281.41637100000003
10
-373.13583400000033
20
-281.41637099999986
42
-0.41421356237311585
10
-374.13583400000027
20
-280.41637099999997
0
LWPOLYLINE
5
112
100
AcDbEntity
8
0
100
AcDbPolyline
90
8
70
1
43
0.0
10
-380.18583399999977
20
-324.56637100000012
10
-392.18583399999972
20
-324.56637100000017
42
0.41421356237338641
10
-393.18583400000068
20
-325.56637099997329
10
-393.18583400000023
20
-337.56637099999989
42
0.41421356237309503
10
-392.18583400000028
20
-338.56637099999989
10
-380.18583400000011
20
-338.56637100003212
42
0.41421356237288692
10
-379.18583400000068
20
-337.56637100003212
10
-379.18583400000023
20
-325.566371
42
0.41421356237301177
0
LWPOLYLINE
5
113
100
AcDbEntity
8
0
100
AcDbPolyline
90
8
70
1
43
0.0
10
-116.96083400000035
20
-306.51637100000005
42
-0.41421356237308982
10
-115.96083400000032
20
-305.51637099999999
10
-103.96083400000023
20
-305.51637100000005
42
-0.41421356237310542
10
-102.96083400000028
20
-306.51637100000005
10
-102.96083400000013
20
-318.51637099999999
42
-0.4142135623730846
10
-103.96083400000022
20
-319.51637100000016
10
-115.96083400000033
20
-319.51637100000005
42
-0.414213562373069
10
-116.96083400000033
20
-318.51637099999999
0
LWPOLYLINE
5
114
100
AcDbEntity
8
0
100
AcDbPolyline
90
8
70
1
43
0.0
10
-97.910834000000264
20
-306.51637099999994
10
-97.910834000000335
20
-318.51637099999999
42
0.41421356237310025
10
-96.91083400000025
20
-319.51637099999999
10
-84.910834000000222
20
-319.51637100000016
42
0.41421356237309503
10
-83.910834000000108
20
-318.51637099999999
10
-83.910834000000207
20
-306.51637100000005
42
0.41421356237310025
10
-84.910834000000222
20
-305.51637099999999
10
-96.910834000000321
20
-305.51637099999988
42
0.41421356237304818
0
LWPOLYLINE
5
115
100
AcDbEntity
8
0
100
AcDbPolyline
90
8
70
1
43
0.0
10
-78.59833399999907
20
-305.51637099999976
10
-79.410833999999085
20
-305.51637099999976
42
0.41421356237343582
10
-80.410834000000406
20
-306.51637100000005
10
-80.410833999999625
20
-318.51637099999999
42
0.4142135623732589
10
-79.410833999999682
20
-319.51637099999988
10
-78.598333999999625
20
-319.51637099999988
42
0.41421356237297535
10
-77.598334000000122
20
-318.51637099999959
10
-77.59833399999961
20
-306.51637100000005
42
0.41421356237276202
0
LWPOLYLINE
5
116
100
AcDbEntity
8
0
100
AcDbPolyline
90
8
70
1
43
0.0
10
-98.198334000000088
20
-337.56637100000023
42
-0.41421356237298057
10
-99.198334000000216
20
-338.566371
10
-111.19833400000033
20
-338.56637100000012
42
-0.41421356237298057
10
-112.19833400000029
20
-337.56637099999989
10
-112.19833400000022
20
-325.566371
42
-0.41421356237330836
10
-111.19833399999962
20
-324.56637099999989
10
-99.198333999999591
20
-324.566371
42
-0.41421356237295975
10
-98.198334000000202
20
-325.566371
0
LWPOLYLINE
5
117
100
AcDbEntity
8
0
100
AcDbPolyline
90
8
70
1
43
0.0
10
-79.148334000000219
20
-337.56637099999989
42
-0.41421356237298579
10
-80.148333999999579
20
-338.56637100000006
10
-92.148333999999679
20
-338.566371
42
-0.41421356237328233
10
-93.148334000000247
20
-337.56637099999989
10
-93.148334000000318
20
-325.566371
42
-0.414213562373069
10
-92.148334000000318
20
-324.56637099999995
10
-80.148333999999579
20
-324.56637099999995
42
-0.41421356237290774
10
-79.148334000000133
20
-325.566371
0
LWPOLYLINE
5
118
100
AcDbEntity
8
0
100
AcDbPolyline
90
8
70
1
43
0.0
10
-72.835834000000148
20
-337.56637099999989
42
-0.41421356237294676
10
-73.83583399999965
20
-338.56637100000023
10
-74.648334000000247
20
-338.56637099999989
42
-0.41421356237309503
10
-75.648334000000176
20
-337.56637099999989
10
-75.648334000000347
20
-325.566371
42
-0.41421356237312101
10
-74.648334000000233
20
-324.56637099999989
10
-73.835834000000204
20
-324.566371
42
-0.41421356237310542
10
-72.835834000000176
20
-325.566371
0
LWPOLYLINE
5
119
100
AcDbEntity
8
0
100
AcDbPolyline
90
8
70
1
43
0.0
10
-55.335833999999551
20
-337.566371
10
-55.33583399999948
20
-325.56637100000012
42
0.41421356237292856
10
-56.335833999998925
20
-324.56637100000012
10
-68.335833999999664
20
-324.56637099999995
42
0.41421356237307683
10
-69.33583399999975
20
-325.56637100000012
10
-69.335833999999608
20
-337.566371
42
0.41421356237327195
10
-68.335833999999025
20
-338.56637100000006
10
-56.335833999999565
20
-338.566371
42
0.41421356237313145
0
LWPOLYLINE
5
120
100
AcDbEntity
8
0
100
AcDbPolyline
90
8
70
1
43
0.0
10
-126.77333400000072
20
-356.61637100000002
42
-0.41421356235816814
10
-127.77333400000072
20
-357.61637099994908
10
-139.7733340000002
20
-357.61637100000007
42
-0.4142135623730534
10
-140.77333400000029
20
-356.61637100000002
10
-140.77333400000012
20
-344.61637100000007
42
-0.41421356237318868
10
-139.77333399999969
20
-343.61637100000007
10
-127.77333399999968
20
-343.61637100000019
42
-0.41421356237291296
10
-126.7733340000002
20
-344.61637100000013
0
LWPOLYLINE
5
121
100
AcDbEntity
8
0
100
AcDbPolyline
90
8
70
1
43
0.0
10
-107.72333400000021
20
-356.61637100000002
42
-0.41421356237296497
10
-108.72333399999971
20
-357.61637100000007
10
-120.72333400000019
20
-357.61637099999996
42
-0.41421356237309503
10
-121.72333400000015
20
-356.61637100000002
10
-121.72333400000025
20
-344.61637100000007
42
-0.4142135623732095
10
-120.7233339999997
20
-343.61637100000002
10
-108.72333399999971
20
-343.6163709999995
42
-0.41421356237297013
10
-107.72333399999967
20
-344.61637100000013
0
LWPOLYLINE
5
122
100
AcDbEntity
8
0
100
AcDbPolyline
90
8
70
1
43
0.0
10
-245.54833400000007
20
-368.42887100000007
42
-0.41421356237311585
10
-244.54833400000018
20
-367.42887100000013
10
-232.5483340000003
20
-367.42887100000007
42
-0.41421356237315748
10
-231.54833400000012
20
-368.42887100000013
10
-231.54833400000007
20
-380.42887100000002
42
-0.4142135623731783
10
-232.5483340000003
20
-381.42887100000007
10
-244.5483340000003
20
-381.42887100000007
42
-0.41421356237297013
10
-245.54833400000024
20
-380.42887100000002
0
LWPOLYLINE
5
123
100
AcDbEntity
8
0
100
AcDbPolyline
90
8
70
1
43
0.0
10
-69.62333400000071
20
-356.61637100000002
42
-0.41421356235816553
10
-70.623334000000696
20
-357.61637099994908
10
-82.623333999999673
20
-357.61637099999996
42
-0.41421356237328755
10
-83.623334000000142
20
-356.61637100000002
10
-83.623333999999957
20
-344.6163709999999
42
-0.41421356237327711
10
-82.623333999999602
20
-343.61637100000002
10
-70.623333999999687
20
-343.61637100000019
42
-0.41421356237292073
10
-69.623334000000327
20
-344.61637100000013
0
LWPOLYLINE
5
124
100
AcDbEntity
8
0
100
AcDbPolyline
90
8
70
1
43
0.0
10
-88.673334000000324
20
-356.61637099999996
42
-0.41421356237305862
10
-89.67333400000021
20
-357.61637099999996
10
-101.67333400000021
20
-357.61637100000002
42
-0.41421356237313667
10
-102.67333400000024
20
-356.61637100000002
10
-102.6733340000003
20
-344.61637100000013
42
-0.4142135623730534
10
-101.67333400000021
20
-343.61637100000002
10
-89.673333999999727
20
-343.61637100000007
42
-0.41421356237292334
10
-88.673334000000295
20
-344.61637100000013
0
LWPOLYLINE
5
125
100
AcDbEntity
8
0
100
AcDbPolyline
90
8
70
1
43
0.0
10
-64.573334000000187
20
-362.11637099999984
42
-0.41421356237326673
10
-63.573333999999655
20
-361.1163709999999
10
-51.573334000000202
20
-361.11637100000007
42
-0.41421356237312101
10
-50.573334000000251
20
-362.11637100000013
10
-50.573334000000273
20
-362.92887100000002
42
-0.41421356237292334
10
-51.573333999999633
20
-363.92887099999996
10
-63.573333999999662
20
-363.9288709999995
42
-0.4142135623732433
10
-64.573333999999676
20
-362.92887100000002
0
LWPOLYLINE
5
126
100
AcDbEntity
8
0
100
AcDbPolyline
90
8
70
1
43
0.0
10
-50.573334000000436
20
-356.61637100000007
10
-50.57333399999969
20
-344.61637100000013
42
0.41421356237293894
10
-51.573333999999633
20
-343.61637099999962
10
-63.573334000000216
20
-343.61637100000002
42
0.41421356237306384
10
-64.573334000000386
20
-344.61637100000013
10
-64.57333400000023
20
-356.61637100000002
42
0.41421356237312623
10
-63.57333400000023
20
-357.61637100000002
10
-51.573334000000202
20
-357.61637099999984
42
0.41421356237307161
0
LWPOLYLINE
5
127
100
AcDbEntity
8
0
100
AcDbPolyline
90
8
70
1
43
0.0
10
-84.623333999999858
20
-361.92887099999996
42
-0.4142135623730378
10
-83.623333999999687
20
-360.92887099999984
10
-69.623333999999701
20
-360.92887099999996
42
-0.41421356237316009
10
-68.623333999999744
20
-361.92887100000002
10
-68.623333999999431
20
-381.42887099999996
42
-0.41421356237310542
10
-69.623333999999687
20
-382.42887100000024
10
-83.623333999999687
20
-382.42887100000019
42
-0.41421356237313145
10
-84.623333999999915
20
-381.42887099999996
0
LWPOLYLINE
5
128
100
AcDbEntity
8
0
100
AcDbPolyline
90
8
70
1
43
0.0
10
-63.573333999999662
20
-381.42887099999996
10
-51.573333999999633
20
-381.42887099999996
42
0.41421356237292334
10
-50.573334000000258
20
-380.42887100000002
10
-50.573333999999129
20
-368.42887100000007
42
0.41421356237296758
10
-51.573333999999171
20
-367.42887099999996
10
-63.573333999999733
20
-367.4288709999999
42
0.41421356237307944
10
-64.573333999999818
20
-368.42887100000007
10
-64.573333999999662
20
-380.42887099999996
42
0.41421356237313145
0
LWPOLYLINE
5
129
100
AcDbEntity
8
0
100
AcDbPolyline
90
8
70
1
43
0.0
10
-198.21083400000046
20
-318.51637099999999
42
-0.41421356237307422
10
-199.2108340000002
20
-319.51637099999976
10
-211.21083399999972
20
-319.51637099999937
42
-0.41421356237326151
10
-212.21083399999966
20
-318.51637099999999
10
-212.21083400000026
20
-306.51637100000005
42
-0.41421356237326151
10
-211.21083399999969
20
-305.51637099999994
10
-199.21083399999969
20
-305.51637100000005
42
-0.41421356237291812
10
-198.21083400000035
20
-306.51637100000005
0
LWPOLYLINE
5
130
100
AcDbEntity
8
0
100
AcDbPolyline
90
8
70
1
43
0.0
10
-180.16083400000019
20
-305.51637099999959
42
-0.41421356237309503
10
-179.16083399999962
20
-306.51637100000005
10
-179.16083400000045
20
-318.51637099999999
42
-0.41421356237307422
10
-180.16083400000019
20
-319.51637099999976
10
-192.16083400000019
20
-319.51637100000005
42
-0.4142135623730534
10
-193.16083400000022
20
-318.51637099999999
10
-193.16083400000019
20
-306.51637100000005
42
-0.41421356237325113
10
-192.16083399999971
20
-305.51637100000005
0
LWPOLYLINE
5
131
100
AcDbEntity
8
0
100
AcDbPolyline
90
8
70
1
43
0.0
10
-174.11083400000024
20
-306.51637100000005
42
-0.41421356237321988
10
-173.1108339999997
20
-305.51637099999999
10
-161.11083400000018
20
-305.51637099999965
42
-0.41421356237313667
10
-160.11083399999967
20
-306.51637100000005
10
-160.11083400000032
20
-318.51637099999999
42
-0.4142135623730846
10
-161.11083400000018
20
-319.51637099999994
10
-173.1108339999997
20
-319.51637100000005
42
-0.41421356237321988
10
-174.11083400000021
20
-318.51637099999999
0
LWPOLYLINE
5
132
100
AcDbEntity
8
0
100
AcDbPolyline
90
8
70
1
43
0.0
10
-141.0608340000002
20
-318.51637099999999
42
-0.41421356237297013
10
-142.06083399999969
20
-319.51637100000005
10
-154.06083400000023
20
-319.51637099999948
42
-0.41421356237310542
10
-155.06083399999969
20
-318.51637099999999
10
-155.06083400000023
20
-306.51637100000005
42
-0.41421356237325629
10
-154.06083399999969
20
-305.51637099999999
10
-142.06083399999969
20
-305.51637099999937
42
-0.41421356237297013
10
-141.06083399999952
20
-306.51637100000005
0
LWPOLYLINE
5
133
100
AcDbEntity
8
0
100
AcDbPolyline
90
8
70
1
43
0.0
10
-117.24833400000026
20
-337.56637099999989
42
-0.41421356237312101
10
-118.24833400000023
20
-338.56637099999995
10
-130.24833399999972
20
-338.56637099999932
42
-0.41421356237324591
10
-131.24833399999969
20
-337.56637099999989
10
-131.24833400000043
20
-325.566371
42
-0.41421356237305862
10
-130.24833400000031
20
-324.56637099999995
10
-118.2483339999996
20
-324.56637099999995
42
-0.41421356237291812
10
-117.24833400000014
20
-325.566371
0
LWPOLYLINE
5
134
100
AcDbEntity
8
0
100
AcDbPolyline
90
8
70
1
43
0.0
10
-193.44833400000022
20
-380.42887100000002
42
-0.41421356237297013
10
-194.4483339999997
20
-381.42887099999996
10
-206.44833400000033
20
-381.42887099999996
42
-0.41421356237310542
10
-207.44833400000033
20
-380.42887100000002
10
-207.44833400000027
20
-368.4288709999999
42
-0.4142135623730534
10
-206.44833400000033
20
-367.42887100000013
10
-194.4483339999997
20
-367.4288709999999
42
-0.41421356237294937
10
-193.44833400000022
20
-368.42887100000007
0
LWPOLYLINE
5
135
100
AcDbEntity
8
0
100
AcDbPolyline
90
8
70
1
43
0.0
10
-258.33583399999935
20
-369.42887099999996
42
-0.4142135623730846
10
-257.33583399999958
20
-368.4288710000003
10
-248.33583399999969
20
-368.4288709999999
42
-0.41421356237309503
10
-247.33583399999961
20
-369.42887100000002
10
-247.33583399999961
20
-379.42887100000002
42
-0.41421356237309503
10
-248.33583399999969
20
-380.42887100000007
10
-257.33583399999958
20
-380.42887100000002
42
-0.41421356237316787
10
-258.33583399999952
20
-379.42887100000002
0
LWPOLYLINE
5
136
100
AcDbEntity
8
0
100
AcDbPolyline
90
8
70
1
43
0.0
10
-260.12333400000028
20
-380.42887100000019
42
-0.41421356237290774
10
-261.12333399999972
20
-381.42887100000007
10
-273.12333399999972
20
-381.42887100000007
42
-0.41421356237325113
10
-274.12333400000028
20
-380.42887099999996
10
-274.12333400000017
20
-368.42887100000007
42
-0.41421356237328233
10
-273.12333399999972
20
-367.42887100000013
10
-261.1233339999996
20
-367.42887100000007
42
-0.41421356237288692
10
-260.12333400000023
20
-368.42887100000007
0
LWPOLYLINE
5
137
100
AcDbEntity
8
0
100
AcDbPolyline
90
8
70
1
43
0.0
10
-174.39833400000015
20
-380.42887100000002
42
-0.4142135623730846
10
-175.3983340000002
20
-381.42887100000007
10
-187.3983340000002
20
-381.42887100000002
42
-0.41421356237304302
10
-188.39833400000018
20
-380.42887100000002
10
-188.39833399999989
20
-368.42887100000013
42
-0.4142135623730222
10
-187.3983340000002
20
-367.42887100000024
10
-175.39833399999969
20
-367.42887100000007
42
-0.41421356237293894
10
-174.3983340000002
20
-368.42887100000007
0
LWPOLYLINE
5
138
100
AcDbEntity
8
0
100
AcDbPolyline
90
8
70
1
43
0.0
10
-212.49833400000011
20
-380.42887100000002
42
-0.41421356237315748
10
-213.49833400000026
20
-381.42887100000007
10
-225.49833400000026
20
-381.42887099999996
42
-0.4142135623730534
10
-226.49833400000023
20
-380.42887100000002
10
-226.49833400000011
20
-368.42887099999984
42
-0.41421356237329271
10
-225.49833399999966
20
-367.42887100000007
10
-213.49833400000034
20
-367.4288709999999
42
-0.41421356237307422
10
-212.49833400000028
20
-368.42887100000007
0
LWPOLYLINE
5
139
100
AcDbEntity
8
0
100
AcDbPolyline
90
8
70
1
43
0.0
10
-161.61083399999961
20
-379.42887100000007
42
-0.41421356237307422
10
-162.61083399999961
20
-380.42887100000002
10
-171.61083399999964
20
-380.42887100000007
42
-0.41421356237309503
10
-172.61083399999973
20
-379.42887100000002
10
-172.61083399999939
20
-369.42887100000007
42
-0.41421356237312623
10
-171.61083399999964
20
-368.42887100000019
10
-162.61083399999961
20
-368.42887099999996
42
-0.41421356237316787
10
-161.61083399999967
20
-369.42887100000002
0
LWPOLYLINE
5
140
100
AcDbEntity
8
0
100
AcDbPolyline
90
8
70
1
43
0.0
10
-126.77333400000026
20
-380.42887099999979
10
-126.77333400000026
20
-368.42887100000007
42
0.41421356237292334
10
-127.77333399999964
20
-367.42887100000013
10
-139.77333399999975
20
-367.42887099999984
42
0.41421356237323032
10
-140.77333400000009
20
-368.4288709999999
10
-140.77333400000037
20
-380.42887099999979
42
0.4142135623730846
10
-139.77333400000026
20
-381.42887099999996
10
-127.7733340000002
20
-381.42887099994886
42
0.41421356235797563
0
LWPOLYLINE
5
141
100
AcDbEntity
8
0
100
AcDbPolyline
90
8
70
1
43
0.0
10
-159.82333400000019
20
-368.4288709999999
42
-0.41421356237321472
10
-158.82333399999962
20
-367.4288709999999
10
-146.82333400000027
20
-367.4288709999995
42
-0.41421356237300661
10
-145.82333399999973
20
-368.4288709999999
10
-145.82333400000013
20
-380.42887099999979
42
-0.41421356237296497
10
-146.82333399999962
20
-381.4288709999999
10
-158.82333399999982
20
-381.42887099999928
42
-0.41421356237321988
10
-159.82333399999982
20
-380.42887099999979
0
LWPOLYLINE
5
142
100
AcDbEntity
8
0
100
AcDbPolyline
90
8
70
1
43
0.0
10
-88.673334000000096
20
-380.42887100000002
42
-0.41421356237305862
10
-89.67333400000021
20
-381.42887100000007
10
-101.67333399999968
20
-381.42887100000007
42
-0.41421356237327195
10
-102.67333400000021
20
-380.42887100000002
10
-102.67333400000011
20
-368.42887100000007
42
-0.41421356237312101
10
-101.67333400000021
20
-367.42887100000013
10
-89.673334000000224
20
-367.42887100000007
42
-0.41421356237309503
10
-88.673334000000182
20
-368.42887100000007
0
LWPOLYLINE
5
143
100
AcDbEntity
8
0
100
AcDbPolyline
90
8
70
1
43
0.0
10
-107.72333400000011
20
-380.42887100000002
42
-0.41421356237305862
10
-108.72333400000022
20
-381.42887100000007
10
-120.72333400000019
20
-381.42887100000007
42
-0.41421356237312623
10
-121.72333400000022
20
-380.42887100000002
10
-121.72333400000011
20
-368.42887100000007
42
-0.41421356237312101
10
-120.72333400000021
20
-367.42887100000013
10
-108.72333400000024
20
-367.42887099999996
42
-0.4142135623730534
10
-107.72333400000016
20
-368.42887100000007
0
LWPOLYLINE
5
144
100
AcDbEntity
8
0
100
AcDbPolyline
90
8
70
1
43
0.0
10
-360.13583400000027
20
-318.51637099999999
42
-0.41421356237309503
10
-361.13583400000033
20
-319.51637100000005
10
-373.13583400000033
20
-319.51637099999988
42
-0.41421356237311585
10
-374.13583400000027
20
-318.51637099999999
10
-374.13583400000039
20
-306.51637100000005
42
-0.41421356237311585
10
-373.13583400000033
20
-305.51637100000005
10
-361.13583399999976
20
-305.51637100000005
42
-0.41421356237292856
10
-360.13583400000039
20
-306.51637100000005
0
LWPOLYLINE
5
145
100
AcDbEntity
8
0
100
AcDbPolyline
90
8
70
1
43
0.0
10
-354.08583400000032
20
-319.51637099999994
10
-342.0858340000002
20
-319.51637100000011
42
0.41421356237309503
10
-341.08583400000015
20
-318.51637099999999
10
-341.08583400000032
20
-306.51637100000005
42
0.41421356237309503
10
-342.0858340000002
20
-305.51637100000005
10
-354.08583400000032
20
-305.51637100000005
42
0.4142135623730846
10
-355.08583400000032
20
-306.51637100000005
10
-355.08583400000026
20
-318.51637099999999
42
0.41421356237311585
0
LWPOLYLINE
5
146
100
AcDbEntity
8
0
100
AcDbPolyline
90
8
70
1
43
0.0
10
-255.07333400000027
20
-344.61637100000007
42
-0.4142135623732407
10
-254.0733339999997
20
-343.61637100000007
10
-242.07333400000024
20
-343.61637099999962
42
-0.41421356237307422
10
-241.07333399999965
20
-344.61637100000013
10
-241.07333400000016
20
-356.61637100000007
42
-0.41421356237285573
10
-242.07333399999956
20
-357.61637100000002
10
-254.0733339999997
20
-357.61637099999945
42
-0.41421356237319906
10
-255.07333399999965
20
-356.61637100000002
0
LWPOLYLINE
5
147
100
AcDbEntity
8
0
100
AcDbPolyline
90
8
70
1
43
0.0
10
-264.59833400000042
20
-325.566371
42
-0.41421356237325113
10
-263.59833399999968
20
-324.566371
10
-251.59833400000022
20
-324.56637100000012
42
-0.41421356237307422
10
-250.59833400000025
20
-325.566371
10
-250.59833400000059
20
-337.56637099999989
42
-0.4142135623730846
10
-251.59833400000022
20
-338.56637099999955
10
-263.59833399999968
20
-338.56637099999932
42
-0.41421356237330315
10
-264.59833399999968
20
-337.56637099999989
0
LWPOLYLINE
5
148
100
AcDbEntity
8
0
100
AcDbPolyline
90
8
70
1
43
0.0
10
-283.64833400000032
20
-325.566371
42
-0.41421356237318868
10
-282.64833399999975
20
-324.566371
10
-270.6483340000002
20
-324.56637100000012
42
-0.41421356237309503
10
-269.64833400000026
20
-325.566371
10
-269.64833400000026
20
-337.56637099999989
42
-0.4142135623728973
10
-270.64833399999958
20
-338.566371
10
-282.64833399999975
20
-338.56637099999932
42
-0.41421356237325113
10
-283.64833399999964
20
-337.56637099999989
0
LWPOLYLINE
5
149
100
AcDbEntity
8
0
100
AcDbPolyline
90
8
70
1
43
0.0
10
-255.3608340000003
20
-318.51637099999999
42
-0.41421356237292856
10
-256.36083399999967
20
-319.51637099999994
10
-268.3608340000003
20
-319.51637100000005
42
-0.4142135623730534
10
-269.36083400000035
20
-318.51637099999999
10
-269.36083400000035
20
-306.51637100000005
42
-0.41421356237309503
10
-268.3608340000003
20
-305.51637099999999
10
-256.36083399999967
20
-305.51637099999795
42
-0.41421356237294937
10
-255.36083399999811
20
-306.51637100000005
0
LWPOLYLINE
5
150
100
AcDbEntity
8
0
100
AcDbPolyline
90
8
70
1
43
0.0
10
-274.41083400000059
20
-318.51637099999999
10
-274.41083400000031
20
-306.51637100000005
42
0.4142135623728973
10
-275.41083399999957
20
-305.51637099999999
10
-287.41083400000025
20
-305.51637099999971
42
0.41421356237311585
10
-288.41083400000053
20
-306.51637100000005
10
-288.41083400007369
20
-318.51637099999999
42
0.41421356239478041
10
-287.41083399999968
20
-319.51637099999999
10
-275.41083399999957
20
-319.51637100000005
42
0.41421356237293894
0
LINE
5
151
100
AcDbEntity
8
0
100
AcDbLine
10
-294.46083399999986
20
-319.51637099999971
30
0
11
-295.5954539999999
21
-319.51637099999994
31
0
0
ARC
5
152
100
AcDbEntity
8
0
100
AcDbCircle
10
-295.5954539999999
20
-320.01637099999988
30
0
40
0.49999999999997158
210
0
220
-0
230
1
100
AcDbArc
50
90
51
180
0
LINE
5
153
100
AcDbEntity
8
0
100
AcDbLine
10
-296.0954539999999
20
-320.01637099999988
30
0
11
-296.09545399999996
21
-320.47837100000004
31
0
0
ARC
5
154
100
AcDbEntity
8
0
100
AcDbCircle
10
-297.09545400000002
20
-320.47837100000004
30
0
40
1.0000000000000142
210
0
220
0
230
1
100
AcDbArc
50
-89.999999999993491
51
0
0
LINE
5
155
100
AcDbEntity
8
0
100
AcDbLine
10
-297.0954539999999
20
-321.47837100000004
30
0
11
-302.74275399999988
21
-321.47837100000004
31
0
0
ARC
5
156
100
AcDbEntity
8
0
100
AcDbCircle
10
-302.74275399999988
20
-320.47837100000004
30
0
40
1.0000000000000142
210
0
220
0
230
1
100
AcDbArc
50
180
51
270
0
LINE
5
157
100
AcDbEntity
8
0
100
AcDbLine
10
-303.74275399999993
20
-320.47837100000004
30
0
11
-303.74275399999988
21
-319.816371
31
0
0
ARC
5
158
100
AcDbEntity
8
0
100
AcDbCircle
10
-304.04275399999989
20
-319.816371
30
0
40
0.30000000000001137
210
0
220
-0
230
1
100
AcDbArc
50
0
51
90
0
LINE
5
159
100
AcDbEntity
8
0
100
AcDbLine
10
-304.04275399999989
20
-319.51637099999999
30
0
11
-313.89907766549993
21
-319.51637041403262
31
0
0
ARC
5
160
100
AcDbEntity
8
0
100
AcDbCircle
10
-313.89208999999988
20
-320.516346
30
0
40
0.99999999999996259
210
0
220
0
230
1
100
AcDbArc
50
90.400366999998255
51
180
0
LINE
5
161
100
AcDbEntity
8
0
100
AcDbLine
10
-314.89208999999988
20
-320.516346
30
0
11
-314.89208999999988
21
-323.81634600000007
31
0
0
ARC
5
162
100
AcDbEntity
8
0
100
AcDbCircle
10
-314.14208999999983
20
-323.81634600000007
30
0
40
0.75000000000002842
210
0
220
0
230
1
100
AcDbArc
50
180
51
270
0
LINE
5
163
100
AcDbEntity
8
0
100
AcDbLine
10
-314.14208999999983
20
-324.56634600000007
30
0
11
-313.26083399999987
21
-324.56634600000018
31
0
0
ARC
5
164
100
AcDbEntity
8
0
100
AcDbCircle
10
-313.26083399999987
20
-325.31634600000012
30
0
40
0.74999999999995737
210
0
220
0
230
1
100
AcDbArc
50
0
51
90
0
LINE
5
165
100
AcDbEntity
8
0
100
AcDbLine
10
-312.51083399999993
20
-325.31634600000012
30
0
11
-312.51083399999987
21
-337.56637100000012
31
0
0
ARC
5
166
100
AcDbEntity
8
0
100
AcDbCircle
10
-313.51083399999987
20
-337.56637100000012
30
0
40
1.0000000000000142
210
0
220
0
230
1
100
AcDbArc
50
-90
51
0
0
LINE
5
167
100
AcDbEntity
8
0
100
AcDbLine
10
-313.51083399999987
20
-338.56637100000012
30
0
11
-325.51083399999987
21
-338.56637100000006
31
0
0
ARC
5
168
100
AcDbEntity
8
0
100
AcDbCircle
10
-325.51083400000005
20
-337.56637100000046
30
0
40
0.99999999999964406
210
0
220
0
230
1
100
AcDbArc
50
202.33745599998463
51
270.00000000000978
0
ARC
5
169
100
AcDbEntity
8
0
100
AcDbCircle
10
-327.12951599999974
20
-338.23147699999981
30
0
40
0.74999925953115065
210
0
220
-0
230
1
100
AcDbArc
50
22.337429405956932
51
90.000000000013031
0
LINE
5
170
100
AcDbEntity
8
0
100
AcDbLine
10
-327.12951599999991
20
-337.48147699999998
30
0
11
-327.89195599999982
21
-337.48147699999998
31
0
0
ARC
5
171
100
AcDbEntity
8
0
100
AcDbCircle
10
-327.89195599999994
20
-336.4814770000001
30
0
40
0.99999999999994316
210
0
220
0
230
1
100
AcDbArc
50
180
51
270.00000000000648
0
LINE
5
172
100
AcDbEntity
8
0
100
AcDbLine
10
-328.89195599999988
20
-336.48147700000004
30
0
11
-328.89195599999982
21
-304.554371
31
0
0
ARC
5
173
100
AcDbEntity
8
0
100
AcDbCircle
10
-327.89195599999982
20
-304.554371
30
0
40
0.99999999999994316
210
0
220
-0
230
1
100
AcDbArc
50
90
51
180
0
LINE
5
174
100
AcDbEntity
8
0
100
AcDbLine
10
-327.89195599999982
20
-303.55437100000006
30
0
11
-321.97145299999988
21
-303.554371
31
0
0
ARC
5
175
100
AcDbEntity
8
0
100
AcDbCircle
10
-321.97145299999994
20
-304.554371
30
0
40
1.0000000000000142
210
0
220
0
230
1
100
AcDbArc
50
0
51
89.999999999996746
0
LINE
5
176
100
AcDbEntity
8
0
100
AcDbLine
10
-320.97145299999994
20
-304.554371
30
0
11
-320.97145299999977
21
-305.21637099999998
31
0
0
ARC
5
177
100
AcDbEntity
8
0
100
AcDbCircle
10
-320.67145299999987
20
-305.21637099999998
30
0
40
0.29999999999994031
210
0
220
0
230
1
100
AcDbArc
50
180
51
270
0
LINE
5
178
100
AcDbEntity
8
0
100
AcDbLine
10
-320.67145299999987
20
-305.51637099999994
30
0
11
-304.05025399999988
21
-305.51637099999999
31
0
0
ARC
5
179
100
AcDbEntity
8
0
100
AcDbCircle
10
-304.05025399999988
20
-305.21637099999998
30
0
40
0.29999999999997584
210
-0
220
0
230
1
100
AcDbArc
50
-90
51
0
0
LINE
5
180
100
AcDbEntity
8
0
100
AcDbLine
10
-303.75025399999993
20
-305.21637099999998
30
0
11
-303.75025399999993
21
-304.554371
31
0
0
ARC
5
181
100
AcDbEntity
8
0
100
AcDbCircle
10
-302.75025399999998
20
-304.55437099999995
30
0
40
0.99999999999994316
210
0
220
-0
230
1
100
AcDbArc
50
89.999999999996746
51
180
0
LINE
5
182
100
AcDbEntity
8
0
100
AcDbLine
10
-302.75025399999993
20
-303.55437100000006
30
0
11
-297.0954539999999
21
-303.55437100000006
31
0
0
ARC
5
183
100
AcDbEntity
8
0
100
AcDbCircle
10
-297.0954539999999
20
-304.554371
30
0
40
0.99999999999997868
210
0
220
0
230
1
100
AcDbArc
50
0
51
90
0
LINE
5
184
100
AcDbEntity
8
0
100
AcDbLine
10
-296.09545399999996
20
-304.554371
30
0
11
-296.0954539999999
21
-305.01637099999999
31
0
0
ARC
5
185
100
AcDbEntity
8
0
100
AcDbCircle
10
-295.59545399999996
20
-305.01637100000005
30
0
40
0.49999999999997158
210
0
220
0
230
1
100
AcDbArc
50
180
51
270.00000000000648
0
LINE
5
186
100
AcDbEntity
8
0
100
AcDbLine
10
-295.5954539999999
20
-305.51637099999999
30
0
11
-294.46083399999986
21
-305.51637099999999
31
0
0
ARC
5
187
100
AcDbEntity
8
0
100
AcDbCircle
10
-294.46083399999992
20
-306.51637100000005
30
0
40
1.0000000000000497
210
0
220
-0
230
1
100
AcDbArc
50
0
51
89.999999999996746
0
LINE
5
188
100
AcDbEntity
8
0
100
AcDbLine
10
-293.46083399999986
20
-306.51637100000005
30
0
11
-293.4608340000002
21
-318.51637099999999
31
0
0
ARC
5
189
100
AcDbEntity
8
0
100
AcDbCircle
10
-294.46083399999986
20
-318.51637100000005
30
0
40
0.99999999999965894
210
0
220
0
230
1
100
AcDbArc
50
-90
51
0
0
LWPOLYLINE
5
190
100
AcDbEntity
8
0
100
AcDbPolyline
90
8
70
1
43
0.0
10
-245.54833400000035
20
-325.566371
42
-0.4142135623732407
10
-244.5483339999997
20
-324.566371
10
-232.54833400000021
20
-324.56637099999995
42
-0.4142135623730846
10
-231.54833400000018
20
-325.566371
10
-231.54833400000103
20
-337.56637100000853
42
-0.41421356237294937
10
-232.54833400000021
20
-338.56637100000819
10
-244.54833399999958
20
-338.56637099999944
42
-0.41421356237328233
10
-245.54833399999961
20
-337.56637099999989
0
LWPOLYLINE
5
191
100
AcDbEntity
8
0
100
AcDbPolyline
90
8
70
1
43
0.0
10
-226.49833400000037
20
-325.566371
42
-0.41421356237325113
10
-225.49833399999969
20
-324.566371
10
-213.49833399998369
20
-324.56637100000012
42
-0.4142135623730534
10
-212.49833399998369
20
-325.566371
10
-212.49833400000043
20
-337.56637099999989
42
-0.41421356237313667
10
-213.49833400000023
20
-338.56637099999972
10
-225.49833399999957
20
-338.56637099999932
42
-0.41421356237331353
10
-226.49833399999955
20
-337.56637099999989
0
LWPOLYLINE
5
192
100
AcDbEntity
8
0
100
AcDbPolyline
90
8
70
1
43
0.0
10
-307.1983339999997
20
-324.56637099999989
10
-308.0108339999997
20
-324.56637099999989
42
0.41421356237338641
10
-309.01083400000073
20
-325.56637099993588
10
-309.01083400000027
20
-337.56637099999989
42
0.41421356237309503
10
-308.01083400000033
20
-338.56637099999989
10
-307.19833400000027
20
-338.566371
42
0.41421356237307422
10
-306.19833400000027
20
-337.56637099999989
10
-306.19833399993513
20
-325.566371
42
0.41421356239179402
0
LWPOLYLINE
5
193
100
AcDbEntity
8
0
100
AcDbPolyline
90
8
70
1
43
0.0
10
-202.97333400000031
20
-356.61637100000007
42
-0.41421356237283491
10
-203.97333399999974
20
-357.61637100000007
10
-215.97333399999968
20
-357.61637099999945
42
-0.41421356237323032
10
-216.97333399999968
20
-356.61637100000002
10
-216.97333400000031
20
-344.61637100000019
42
-0.41421356237325113
10
-215.97333399999968
20
-343.6163709999999
10
-203.97333400000025
20
-343.6163709999995
42
-0.4142135623730534
10
-202.97333399999968
20
-344.61637100000013
0
LWPOLYLINE
5
194
100
AcDbEntity
8
0
100
AcDbPolyline
90
32
70
1
43
0.0
10
-332.27333399999992
20
-287.46637099999998
42
-0.41421356237316787
10
-331.27333399999992
20
-286.46637100000009
10
-324.15625399999988
20
-286.46637099999998
42
0.41421356237309503
10
-323.85625399999986
20
-286.16637099999997
10
-323.85625399999981
20
-285.50437099999999
42
-0.41421356237309503
10
-322.85625399999986
20
-284.50437100000005
10
-317.2014539999999
20
-284.50437100000011
42
-0.41421356237315748
10
-316.20145399999996
20
-285.50437099999999
10
-316.2014539999999
20
-286.16637099999997
42
0.41421356237309503
10
-315.90145399999989
20
-286.46637099999998
10
-299.2802539999999
20
-286.46637099999998
42
0.41421356237309503
10
-298.98025399999989
20
-286.16637099999997
10
-298.98025399999989
20
-285.50437099999999
42
-0.41421356237307422
10
-297.98025399999983
20
-284.50437099999999
10
-292.02545399999991
20
-284.50437100000005
42
-0.41421356237312623
10
-291.02545399999991
20
-285.50437099999999
10
-291.02545399999991
20
-301.42837099999997
42
-0.41421356237312623
10
-292.02545399999991
20
-302.42837099999997
10
-297.98025399999983
20
-302.42837099999997
42
-0.41421356237307422
10
-298.98025399999989
20
-301.42837099999997
10
-298.98025399999989
20
-300.76637099999999
42
0.41421356237309503
10
-299.2802539999999
20
-300.46637099999998
10
-315.90145399999989
20
-300.46637099999998
42
0.4142135623730257
10
-316.2014539999999
20
-300.76637099999999
10
-316.2014539999999
20
-301.42837099999997
42
-0.41421356237307422
10
-317.2014539999999
20
-302.42837099999997
10
-322.85625399999986
20
-302.42837099999997
42
-0.41421356237307422
10
-323.85625399999981
20
-301.42837099999997
10
-323.85625399999986
20
-300.76637099999999
42
0.41421356237309503
10
-324.15625399999988
20
-300.46637099999998
10
-331.27333399999992
20
-300.46637100000004
42
-0.41421356237309503
10
-332.27333399999992
20
-299.46637099999998
0
ARC
5
195
100
AcDbEntity
8
0
100
AcDbCircle
10
-298.22420799999986
20
-344.61637100000007
30
0
40
1.0000000000000142
210
0
220
0
230
1
100
AcDbArc
50
0
51
88.180588800381415
0
LINE
5
196
100
AcDbEntity
8
0
100
AcDbLine
10
-297.22420799999986
20
-344.61637100000013
30
0
11
-297.22420799999998
21
-356.61637100000002
31
0
0
ARC
5
197
100
AcDbEntity
8
0
100
AcDbCircle
10
-298.22420799999992
20
-356.61637100000007
30
0
40
0.99999999999991607
210
0
220
0
230
1
100
AcDbArc
50
-88.180628000000524
51
0
0
ARC
5
198
100
AcDbEntity
8
0
100
AcDbCircle
10
-298.18293399999988
20
-357.91571499999998
30
0
40
0.29999937438971425
210
0
220
0
230
1
100
AcDbArc
50
91.819508729293176
51
180
0
LINE
5
199
100
AcDbEntity
8
0
100
AcDbLine
10
-298.48293399999994
20
-357.91571499999998
30
0
11
-298.48293399999989
21
-358.57837099999983
31
0
0
ARC
5
200
100
AcDbEntity
8
0
100
AcDbCircle
10
-299.48293399999989
20
-358.57837099999978
30
0
40
1.0000000000000142
210
0
220
0
230
1
100
AcDbArc
50
270
51
360
0
LINE
5
201
100
AcDbEntity
8
0
100
AcDbLine
10
-299.48293399999989
20
-359.57837099999978
30
0
11
-305.13773399999991
21
-359.57837099999995
31
0
0
ARC
5
202
100
AcDbEntity
8
0
100
AcDbCircle
10
-305.13773399999997
20
-358.57837099999989
30
0
40
1.0000000000000142
210
0
220
0
230
1
100
AcDbArc
50
180
51
270.00000000000324
0
LINE
5
203
100
AcDbEntity
8
0
100
AcDbLine
10
-306.13773400000002
20
-358.57837099999983
30
0
11
-306.13773399999991
21
-357.91637099999997
31
0
0
ARC
5
204
100
AcDbEntity
8
0
100
AcDbCircle
10
-306.43773399999986
20
-357.91637099999997
30
0
40
0.29999999999997584
210
0
220
-0
230
1
100
AcDbArc
50
0
51
90
0
LINE
5
205
100
AcDbEntity
8
0
100
AcDbLine
10
-306.43773399999986
20
-357.61637100000002
30
0
11
-323.05893299999991
21
-357.61637099999996
31
0
0
ARC
5
206
100
AcDbEntity
8
0
100
AcDbCircle
10
-323.05893299999991
20
-357.91637099999997
30
0
40
0.30000000000001137
210
0
220
-0
230
1
100
AcDbArc
50
90
51
180
0
LINE
5
207
100
AcDbEntity
8
0
100
AcDbLine
10
-323.35893299999998
20
-357.91637099999997
30
0
11
-323.35893299999981
21
-358.57837099999983
31
0
0
ARC
5
208
100
AcDbEntity
8
0
100
AcDbCircle
10
-324.35893299999975
20
-358.57837099999983
30
0
40
0.99999999999994316
210
0
220
0
230
1
100
AcDbArc
50
-90.000000000003254
51
0
0
LINE
5
209
100
AcDbEntity
8
0
100
AcDbLine
10
-324.35893299999981
20
-359.57837099999978
30
0
11
-330.01373299999989
21
-359.57837099999995
31
0
0
ARC
5
210
100
AcDbEntity
8
0
100
AcDbCircle
10
-330.01373299999983
20
-358.57837099999978
30
0
40
1.0000000000001563
210
0
220
0
230
1
100
AcDbArc
50
180
51
269.99999999999676
0
LINE
5
211
100
AcDbEntity
8
0
100
AcDbLine
10
-331.013733
20
-358.57837099999983
30
0
11
-331.01373299999977
21
-357.91571499999998
31
0
0
ARC
5
212
100
AcDbEntity
8
0
100
AcDbCircle
10
-331.31373299999979
20
-357.91571499999998
30
0
40
0.30000000000001137
210
0
220
-0
230
1
100
AcDbArc
50
0
51
88.180628000013471
0
ARC
5
213
100
AcDbEntity
8
0
100
AcDbCircle
10
-331.27245999999991
20
-356.61637100000002
30
0
40
0.99999999999994316
210
0
220
0
230
1
100
AcDbArc
50
180
51
268.18064424821017
0
LINE
5
214
100
AcDbEntity
8
0
100
AcDbLine
10
-332.27245999999985
20
-356.61637100000002
30
0
11
-332.2724599999998
21
-344.61637100000013
31
0
0
ARC
5
215
100
AcDbEntity
8
0
100
AcDbCircle
10
-331.27245999999991
20
-344.61637100000013
30
0
40
0.99999999999991496
210
0
220
0
230
1
100
AcDbArc
50
91.819371999999476
51
180
0
ARC
5
216
100
AcDbEntity
8
0
100
AcDbCircle
10
-331.31373299999979
20
-343.317026
30
0
40
0.30000034213643312
210
-0
220
0
230
1
100
AcDbArc
50
-88.18068822416339
51
0
0
LINE
5
217
100
AcDbEntity
8
0
100
AcDbLine
10
-331.01373299999977
20
-343.317026
30
0
11
-331.01373299999983
21
-342.65437099999997
31
0
0
ARC
5
218
100
AcDbEntity
8
0
100
AcDbCircle
10
-330.013733
20
-342.65437099999997
30
0
40
0.99999999999994316
210
0
220
-0
230
1
100
AcDbArc
50
89.999999999993491
51
180
0
LINE
5
219
100
AcDbEntity
8
0
100
AcDbLine
10
-330.01373299999989
20
-341.65437100000008
30
0
11
-324.35893299999981
21
-341.65437099999997
31
0
0
ARC
5
220
100
AcDbEntity
8
0
100
AcDbCircle
10
-324.35893299999975
20
-342.65437099999991
30
0
40
0.99999999999994316
210
0
220
0
230
1
100
AcDbArc
50
0
51
90.000000000003254
0
LINE
5
221
100
AcDbEntity
8
0
100
AcDbLine
10
-323.35893299999981
20
-342.65437099999997
30
0
11
-323.35893299999998
21
-343.316371
31
0
0
ARC
5
222
100
AcDbEntity
8
0
100
AcDbCircle
10
-323.05893299999991
20
-343.316371
30
0
40
0.30000000000001137
210
0
220
0
230
1
100
AcDbArc
50
180
51
270
0
LINE
5
223
100
AcDbEntity
8
0
100
AcDbLine
10
-323.05893299999991
20
-343.61637100000002
30
0
11
-306.43773399999986
21
-343.61637100000002
31
0
0
ARC
5
224
100
AcDbEntity
8
0
100
AcDbCircle
10
-306.43773399999986
20
-343.316371
30
0
40
0.30000000000001137
210
-0
220
0
230
1
100
AcDbArc
50
-90
51
0
0
LINE
5
225
100
AcDbEntity
8
0
100
AcDbLine
10
-306.13773399999985
20
-343.316371
30
0
11
-306.13773399999997
21
-342.65437099999997
31
0
0
ARC
5
226
100
AcDbEntity
8
0
100
AcDbCircle
10
-305.13773399999997
20
-342.65437099999997
30
0
40
1.0000000000000142
210
0
220
-0
230
1
100
AcDbArc
50
89.999999999996746
51
180
0
LINE
5
227
100
AcDbEntity
8
0
100
AcDbLine
10
-305.13773399999991
20
-341.65437099999997
30
0
11
-299.48293399999989
21
-341.65437099999991
31
0
0
ARC
5
228
100
AcDbEntity
8
0
100
AcDbCircle
10
-299.48293399999983
20
-342.65437099999991
30
0
40
1.0000000000000142
210
0
220
0
230
1
100
AcDbArc
50
0
51
90.000000000003254
0
LINE
5
229
100
AcDbEntity
8
0
100
AcDbLine
10
-298.48293399999983
20
-342.65437099999997
30
0
11
-298.48293399999989
21
-343.317026
31
0
0
ARC
5
230
100
AcDbEntity
8
0
100
AcDbCircle
10
-298.18293399999988
20
-343.317026
30
0
40
0.30000000000001137
210
0
220
0
230
1
100
AcDbArc
50
180
51
268.18062799995494
0
LWPOLYLINE
5
231
100
AcDbEntity
8
0
100
AcDbPolyline
90
8
70
1
43
0.0
10
-285.19833400000044
20
-287.46637099999987
42
-0.41421356237310542
10
-284.19833400000027
20
-286.4663709999997
10
-283.3858339999997
20
-286.46637099999924
42
-0.41421356237294937
10
-282.3858339999997
20
-287.46637099999987
10
-282.38583400000016
20
-299.46637099999998
42
-0.41421356237297013
10
-283.3858339999997
20
-300.46637100000009
10
-284.19833400007457
20
-300.46637100000004
42
-0.41421356237328233
10
-285.19833400007519
20
-299.46637099999998
0
LWPOLYLINE
5
232
100
AcDbEntity
8
0
100
AcDbPolyline
90
8
70
1
43
0.0
10
-302.6983340000013
20
-325.56637099993293
42
-0.41421356237332396
10
-301.6983340000001
20
-324.56637099993247
10
-289.69833400000022
20
-324.56637100000012
42
-0.41421356237309503
10
-288.69833400000027
20
-325.566371
10
-288.69833400000027
20
-337.56637099999989
42
-0.4142135623728973
10
-289.69833399999959
20
-338.566371
10
-301.6983339999997
20
-338.56637099999944
42
-0.41421356237318868
10
-302.6983339999997
20
-337.56637099999989
0
LWPOLYLINE
5
233
100
AcDbEntity
8
0
100
AcDbPolyline
90
8
70
1
43
0.0
10
-274.12333400000034
20
-344.61637100000019
42
-0.41421356237325113
10
-273.12333399999972
20
-343.61637100000007
10
-261.12333400000017
20
-343.6163709999995
42
-0.41421356237304302
10
-260.12333399999966
20
-344.61637100000013
10
-260.12333400000017
20
-356.61637100000007
42
-0.41421356237291812
10
-261.12333399999972
20
-357.61637100000007
10
-273.12333399999972
20
-357.61637099999939
42
-0.41421356237325113
10
-274.1233339999996
20
-356.61637100000002
0
LWPOLYLINE
5
234
100
AcDbEntity
8
0
100
AcDbPolyline
90
8
70
1
43
0.0
10
-197.92333400000032
20
-344.61637100000007
42
-0.41421356237326151
10
-196.92333399999961
20
-343.61637100000002
10
-184.92333400000012
20
-343.61637099999962
42
-0.41421356237307422
10
-183.92333399999956
20
-344.61637100000013
10
-183.92333400000015
20
-356.61637099999996
42
-0.41421356237290774
10
-184.92333399999967
20
-357.61637100000007
10
-196.92333400002551
20
-357.61637100000007
42
-0.41421356237329271
10
-197.92333400002619
20
-356.61637099999996
0
LWPOLYLINE
5
235
100
AcDbEntity
8
0
100
AcDbPolyline
90
8
70
1
43
0.0
10
-217.26083400000033
20
-318.51637099999999
42
-0.4142135623728973
10
-218.26083399999959
20
-319.51637099999994
10
-230.26083399999973
20
-319.51637099999937
42
-0.41421356237326151
10
-231.26083399999959
20
-318.51637099999999
10
-231.26083400000056
20
-306.51637100000005
42
-0.41421356237311585
10
-230.26083400000033
20
-305.51637099999982
10
-218.26083400000019
20
-305.51637099999999
42
-0.41421356237312623
10
-217.26083400000022
20
-306.51637100000005
0
LWPOLYLINE
5
236
100
AcDbEntity
8
0
100
AcDbPolyline
90
8
70
1
43
0.0
10
-207.44833400000036
20
-325.566371
42
-0.41421356237327195
10
-206.44833399999959
20
-324.566371
10
-194.44833400000022
20
-324.56637100000012
42
-0.41421356237310542
10
-193.44833400000022
20
-325.566371
10
-193.44833400000041
20
-337.56637099999989
42
-0.41421356237313667
10
-194.44833400000022
20
-338.56637099999972
10
-206.44833399999959
20
-338.56637099999944
42
-0.41421356237328233
10
-207.44833399999973
20
-337.56637099999989
0
LWPOLYLINE
5
237
100
AcDbEntity
8
0
100
AcDbPolyline
90
8
70
1
43
0.0
10
-236.31083400000028
20
-318.51637099999999
42
-0.41421356237297013
10
-237.31083399999972
20
-319.51637099999999
10
-249.31083400000034
20
-319.51637099999937
42
-0.41421356237312623
10
-250.31083399999972
20
-318.51637099999999
10
-250.31083400000057
20
-306.51637100000005
42
-0.41421356237311585
10
-249.31083400000034
20
-305.51637099999982
10
-237.3108340000002
20
-305.51637099999999
42
-0.41421356237309503
10
-236.31083400000017
20
-306.51637100000005
0
LWPOLYLINE
5
238
100
AcDbEntity
8
0
100
AcDbPolyline
90
8
70
1
43
0.0
10
-188.39833400000026
20
-325.56637100000012
42
-0.41421356237328233
10
-187.39833399999966
20
-324.566371
10
-175.39833399996678
20
-324.56637100000012
42
-0.41421356237312623
10
-174.3983339999667
20
-325.566371
10
-174.39833400000057
20
-337.56637099999989
42
-0.4142135623730846
10
-175.3983340000002
20
-338.56637099999955
10
-187.39833399999969
20
-338.56637099999932
42
-0.41421356237326151
10
-188.39833399999964
20
-337.56637099999989
0
LWPOLYLINE
5
239
100
AcDbEntity
8
0
100
AcDbPolyline
90
8
70
1
43
0.0
10
-159.82333400000022
20
-344.61637100000013
42
-0.41421356237326151
10
-158.82333399999959
20
-343.61637100000002
10
-146.82333400000022
20
-343.6163709999995
42
-0.4142135623730534
10
-145.82333399999965
20
-344.61637100000013
10
-145.82333400000005
20
-356.61637100000002
42
-0.41421356237297013
10
-146.82333399999956
20
-357.61637100000007
10
-158.82333399999979
20
-357.61637099999945
42
-0.41421356237321472
10
-159.82333399999976
20
-356.61637100000002
0
LWPOLYLINE
5
240
100
AcDbEntity
8
0
100
AcDbPolyline
90
8
70
1
43
0.0
10
-169.34833400000025
20
-325.56637100000012
42
-0.41421356237321988
10
-168.34833399999965
20
-324.56637099999995
10
-156.34833400000019
20
-324.56637099999995
42
-0.41421356237312623
10
-155.34833400000019
20
-325.566371
10
-155.34833400000042
20
-337.56637099999989
42
-0.41421356237313145
10
-156.34833400000019
20
-338.56637099999972
10
-168.34833399999968
20
-338.56637099999944
42
-0.41421356237326151
10
-169.34833399999962
20
-337.56637099999989
0
LWPOLYLINE
5
241
100
AcDbEntity
8
0
100
AcDbPolyline
90
8
70
1
43
0.0
10
-136.29833400000027
20
-337.56637099999989
42
-0.41421356237312101
10
-137.29833400000024
20
-338.56637099999995
10
-149.2983340000003
20
-338.566371
42
-0.41421356237305862
10
-150.29833400000024
20
-337.56637099999989
10
-150.29833400000012
20
-325.566371
42
-0.41421356237326151
10
-149.29833399999961
20
-324.56637099999995
10
-137.29833399999961
20
-324.56637099999995
42
-0.41421356237291812
10
-136.29833400000015
20
-325.566371
0
LWPOLYLINE
5
242
100
AcDbEntity
8
0
100
AcDbPolyline
90
8
70
1
43
0.0
10
-112.48583400000015
20
-299.46637100000004
42
-0.41421356237307944
10
-113.48583400000025
20
-300.46637100000004
10
-125.48583399999963
20
-300.46637100000009
42
-0.4142135623732251
10
-126.4858340000002
20
-299.46637099999998
10
-126.48583400000024
20
-287.46637099999998
42
-0.41421356237326151
10
-125.4858339999997
20
-286.46637100000004
10
-113.48583400000024
20
-286.46637099999919
42
-0.41421356237311063
10
-112.48583399999957
20
-287.46637099999992
0
LWPOLYLINE
5
243
100
AcDbEntity
8
0
100
AcDbPolyline
90
8
70
1
43
0.0
10
-100.58085399999968
20
-267.41637099999997
10
-116.9608340000002
20
-267.41637099999991
42
0.41421356237309503
10
-117.96083400000029
20
-268.41637100000003
10
-117.96083400000032
20
-280.41637099999997
42
0.41421356237328233
10
-116.96083399999961
20
-281.41637099999997
10
-100.58085400000023
20
-281.41637100000008
42
0.41421356237311063
10
-99.580854000000159
20
-280.41637099999997
10
-99.580853999999661
20
-268.41637100000003
42
0.41421356237291296
0
LWPOLYLINE
5
244
100
AcDbEntity
8
0
100
AcDbPolyline
90
8
70
1
43
0.0
10
-164.58583400000023
20
-287.46637099999998
42
-0.41421356237330315
10
-163.58583399999969
20
-286.46637099999987
10
-151.5858340000002
20
-286.46637099999936
42
-0.414213562373069
10
-150.58583399999975
20
-287.46637099999987
10
-150.58583400000015
20
-299.46637099999998
42
-0.41421356237308982
10
-151.58583400000023
20
-300.46637100000004
10
-163.58583399999969
20
-300.46637100000004
42
-0.41421356237329271
10
-164.58583400000023
20
-299.46637099999998
0
LWPOLYLINE
5
245
100
AcDbEntity
8
0
100
AcDbPolyline
90
8
70
1
43
0.0
10
-139.37708399999968
20
-266.71637100000004
10
-139.37708399999968
20
-282.41637099999997
42
0.4142135623732095
10
-138.37708399999968
20
-283.41637099999946
10
-124.3770839999996
20
-283.41637100000008
42
0.41421356237294416
10
-123.37708400000014
20
-282.41637100000003
10
-123.37708400000022
20
-266.71637099999998
42
0.41421356237306384
10
-124.3770840000002
20
-265.71637100000004
10
-138.37708400000022
20
-265.71637099999998
42
0.4142135623728973
0
ARC
5
246
100
AcDbEntity
8
0
100
AcDbCircle
10
-87.385834000000173
20
-287.46637099999981
30
0
40
0.99999999999997868
210
0
220
-0
230
1
100
AcDbArc
50
90
51
180
0
LINE
5
247
100
AcDbEntity
8
0
100
AcDbLine
10
-87.385834000000173
20
-286.46637099999987
30
0
11
-86.231254000000206
21
-286.46637099999998
31
0
0
ARC
5
248
100
AcDbEntity
8
0
100
AcDbCircle
10
-86.231254000000192
20
-285.96637099999998
30
0
40
0.50000000000000711
210
0
220
0
230
1
100
AcDbArc
50
-90.000000000001634
51
0
0
LINE
5
249
100
AcDbEntity
8
0
100
AcDbLine
10
-85.731254000000177
20
-285.96637099999998
30
0
11
-85.731254000000163
21
-285.50437099999988
31
0
0
ARC
5
250
100
AcDbEntity
8
0
100
AcDbCircle
10
-84.731254000000149
20
-285.50437099999988
30
0
40
0.99999999999997868
210
0
220
-0
230
1
100
AcDbArc
50
90
51
180
0
LINE
5
251
100
AcDbEntity
8
0
100
AcDbLine
10
-84.731254000000149
20
-284.50437099999988
30
0
11
-79.07645400000014
21
-284.50437099999994
31
0
0
ARC
5
252
100
AcDbEntity
8
0
100
AcDbCircle
10
-79.076454000000112
20
-285.50437099999988
30
0
40
0.99999999999993427
210
0
220
0
230
1
100
AcDbArc
50
0
51
90.000000000001634
0
LINE
5
253
100
AcDbEntity
8
0
100
AcDbLine
10
-78.076454000000183
20
-285.50437099999988
30
0
11
-78.076454000000268
21
-286.16637099999991
31
0
0
ARC
5
254
100
AcDbEntity
8
0
100
AcDbCircle
10
-77.776454000000172
20
-286.16637099999991
30
0
40
0.3000000000000913
210
0
220
0
230
1
100
AcDbArc
50
180
51
270
0
LINE
5
255
100
AcDbEntity
8
0
100
AcDbLine
10
-77.776454000000172
20
-286.46637099999998
30
0
11
-61.15525400000017
21
-286.46637099999992
31
0
0
ARC
5
256
100
AcDbEntity
8
0
100
AcDbCircle
10
-61.15525400000017
20
-286.16637099999991
30
0
40
0.30000000000001137
210
-0
220
0
230
1
100
AcDbArc
50
-90
51
0
0
LINE
5
257
100
AcDbEntity
8
0
100
AcDbLine
10
-60.855254000000158
20
-286.16637099999991
30
0
11
-60.855254000000087
21
-285.50437099999988
31
0
0
ARC
5
258
100
AcDbEntity
8
0
100
AcDbCircle
10
-59.855254000000151
20
-285.50437099999988
30
0
40
0.99999999999994316
210
0
220
-0
230
1
100
AcDbArc
50
90
51
180
0
LINE
5
259
100
AcDbEntity
8
0
100
AcDbLine
10
-59.855254000000151
20
-284.50437099999994
30
0
11
-54.200454000000136
21
-284.50437099999994
31
0
0
ARC
5
260
100
AcDbEntity
8
0
100
AcDbCircle
10
-54.200454000000107
20
-285.50437099999988
30
0
40
0.99999999999993427
210
0
220
0
230
1
100
AcDbArc
50
0
51
90.000000000001634
0
LINE
5
261
100
AcDbEntity
8
0
100
AcDbLine
10
-53.200454000000178
20
-285.50437099999988
30
0
11
-53.200454000000228
21
-286.16755199999989
31
0
0
ARC
5
262
100
AcDbEntity
8
0
100
AcDbCircle
10
-52.900454000000146
20
-286.16755199999989
30
0
40
0.30000000000008242
210
0
220
0
230
1
100
AcDbArc
50
180
51
267.55747742840595
0
ARC
5
263
100
AcDbEntity
8
0
100
AcDbCircle
10
-52.955854000000208
20
-287.46637099999992
30
0
40
1.000000000000103
210
0
220
-0
230
1
100
AcDbArc
50
0
51
87.557608999999331
0
LINE
5
264
100
AcDbEntity
8
0
100
AcDbLine
10
-51.955854000000102
20
-287.46637099999987
30
0
11
-51.955854000000166
21
-299.46637099999987
31
0
0
ARC
5
265
100
AcDbEntity
8
0
100
AcDbCircle
10
-52.955854000000159
20
-299.46637099999987
30
0
40
1.0000000000000171
210
0
220
0
230
1
100
AcDbArc
50
-87.557609000000085
51
0
0
ARC
5
266
100
AcDbEntity
8
0
100
AcDbCircle
10
-52.900454000000238
20
-300.76519000000002
30
0
40
0.29999998260108807
210
0
220
0
230
1
100
AcDbArc
50
92.442522571576134
51
180
0
LINE
5
267
100
AcDbEntity
8
0
100
AcDbLine
10
-53.200454000000185
20
-300.76519000000008
30
0
11
-53.200454000000157
21
-301.42837100000003
31
0
0
ARC
5
268
100
AcDbEntity
8
0
100
AcDbCircle
10
-54.20045400000015
20
-301.42837099999997
30
0
40
0.99999999999997868
210
0
220
0
230
1
100
AcDbArc
50
270
51
360
0
LINE
5
269
100
AcDbEntity
8
0
100
AcDbLine
10
-54.20045400000015
20
-302.42837099999997
30
0
11
-59.855254000000144
21
-302.42837099999991
31
0
0
ARC
5
270
100
AcDbEntity
8
0
100
AcDbCircle
10
-59.855254000000158
20
-301.42837099999997
30
0
40
0.99999999999993427
210
0
220
0
230
1
100
AcDbArc
50
180
51
270.0000000000008
0
LINE
5
271
100
AcDbEntity
8
0
100
AcDbLine
10
-60.855254000000095
20
-301.42837099999997
30
0
11
-60.855254000000087
21
-300.76637099999988
31
0
0
ARC
5
272
100
AcDbEntity
8
0
100
AcDbCircle
10
-61.15525400000017
20
-300.76637099999988
30
0
40
0.30000000000008242
210
0
220
-0
230
1
100
AcDbArc
50
0
51
90
0
LINE
5
273
100
AcDbEntity
8
0
100
AcDbLine
10
-61.15525400000017
20
-300.46637099999981
30
0
11
-77.776454000000186
21
-300.46637099999981
31
0
0
ARC
5
274
100
AcDbEntity
8
0
100
AcDbCircle
10
-77.776454000000186
20
-300.76637099999988
30
0
40
0.30000000000008242
210
0
220
-0
230
1
100
AcDbArc
50
90
51
180
0
LINE
5
275
100
AcDbEntity
8
0
100
AcDbLine
10
-78.076454000000268
20
-300.76637099999988
30
0
11
-78.076454000000155
21
-301.42837100000003
31
0
0
ARC
5
276
100
AcDbEntity
8
0
100
AcDbCircle
10
-79.076454000000155
20
-301.42837099999997
30
0
40
0.99999999999997868
210
0
220
0
230
1
100
AcDbArc
50
270
51
360
0
LINE
5
277
100
AcDbEntity
8
0
100
AcDbLine
10
-79.076454000000155
20
-302.42837099999997
30
0
11
-84.731254000000149
21
-302.42837099999997
31
0
0
ARC
5
278
100
AcDbEntity
8
0
100
AcDbCircle
10
-84.731254000000149
20
-301.42837099999997
30
0
40
0.99999999999997868
210
0
220
0
230
1
100
AcDbArc
50
180
51
270
0
LINE
5
279
100
AcDbEntity
8
0
100
AcDbLine
10
-85.731254000000121
20
-301.42837099999997
30
0
11
-85.731254000000163
21
-300.96637099999998
31
0
0
ARC
5
280
100
AcDbEntity
8
0
100
AcDbCircle
10
-86.231254000000192
20
-300.96637099999998
30
0
40
0.50000000000002487
210
0
220
-0
230
1
100
AcDbArc
50
0
51
90
0
LINE
5
281
100
AcDbEntity
8
0
100
AcDbLine
10
-86.231254000000192
20
-300.46637099999998
30
0
11
-87.385834000000173
21
-300.46637099999992
31
0
0
ARC
5
282
100
AcDbEntity
8
0
100
AcDbCircle
10
-87.385834000000187
20
-299.46637099999987
30
0
40
0.99999999999999645
210
0
220
0
230
1
100
AcDbArc
50
180
51
270.0000000000008
0
LINE
5
283
100
AcDbEntity
8
0
100
AcDbLine
10
-88.385834000000187
20
-299.46637099999987
30
0
11
-88.385834000000159
21
-287.46637099999987
31
0
0
LWPOLYLINE
5
284
100
AcDbEntity
8
0
100
AcDbPolyline
90
8
70
1
43
0.0
10
-182.63583399999965
20
-300.46637100000004
10
-170.63583400000022
20
-300.46637100000009
42
0.41421356237309503
10
-169.63583400000019
20
-299.46637099999998
10
-169.63583400000019
20
-287.46637099999987
42
0.41421356237312623
10
-170.63583400000024
20
-286.46637099999987
10
-182.63583399999959
20
-286.46637099999987
42
0.41421356237330315
10
-183.63583400000024
20
-287.46637099999998
10
-183.63583400000024
20
-299.46637099999998
42
0.41421356237328233
0
LWPOLYLINE
5
285
100
AcDbEntity
8
0
100
AcDbPolyline
90
8
70
1
43
0.0
10
-131.53583400000019
20
-299.46637099999998
42
-0.41421356237309503
10
-132.53583400000022
20
-300.46637100000004
10
-144.53583400000019
20
-300.46637100000004
42
-0.41421356237309503
10
-145.53583400000025
20
-299.46637099999998
10
-145.53583400000008
20
-287.46637099999987
42
-0.41421356237307422
10
-144.53583400000019
20
-286.46637099999998
10
-132.53583399999968
20
-286.46637099999936
42
-0.41421356237292856
10
-131.53583399999968
20
-287.46637099999987
0
LWPOLYLINE
5
286
100
AcDbEntity
8
0
100
AcDbPolyline
90
8
70
1
43
0.0
10
-145.37708400000011
20
-283.41637099999946
42
-0.4142135623730846
10
-146.37708399999957
20
-282.41637099999997
10
-146.37708400000025
20
-266.71637099999998
42
-0.41421356237308982
10
-145.3770840000002
20
-265.71637099999992
10
-142.37708399999968
20
-265.71637100000004
42
-0.41421356237291812
10
-141.37708400000034
20
-266.71637099999998
10
-141.37708400000011
20
-282.41637099999997
42
-0.41421356237314183
10
-142.37708400000028
20
-283.41637100000008
0
LWPOLYLINE
5
287
100
AcDbEntity
8
0
100
AcDbPolyline
90
8
70
1
43
0.0
10
-226.78583400000019
20
-299.46637099999998
42
-0.41421356237294937
10
-227.78583399999971
20
-300.46637100000004
10
-239.78583399999968
20
-300.46637099999941
42
-0.41421356237330315
10
-240.78583399999968
20
-299.46637099999998
10
-240.78583400000028
20
-287.46637099999987
42
-0.41421356237309503
10
-239.78583400000019
20
-286.46637099999975
10
-227.78583400000019
20
-286.46637099999987
42
-0.41421356237307422
10
-226.78583400000019
20
-287.46637099999987
0
LWPOLYLINE
5
288
100
AcDbEntity
8
0
100
AcDbPolyline
90
8
70
1
43
0.0
10
-70.335834000000332
20
-268.41637100000003
10
-70.335833999999622
20
-280.41637099999997
42
0.41421356237331614
10
-69.335833999999537
20
-281.41637099999997
10
-52.955853999999576
20
-281.41637100000008
42
0.41421356237292856
10
-51.955854000000059
20
-280.41637099999997
10
-51.955854000000201
20
-268.41637100000003
42
0.41421356237291296
10
-52.955853999999576
20
-267.41637099999997
10
-69.335834000000304
20
-267.41637099999991
42
0.41421356237307422
0
LWPOLYLINE
5
289
100
AcDbEntity
8
0
100
AcDbPolyline
90
8
70
1
43
0.0
10
-94.148334000000347
20
-268.41637100000003
42
-0.41421356237309503
10
-93.148334000000261
20
-267.41637099999991
10
-76.768354000000301
20
-267.41637100000003
42
-0.41421356237313145
10
-75.768354000000215
20
-268.41637100000003
10
-75.768354000000144
20
-280.41637099999997
42
-0.41421356237313667
10
-76.768354000000301
20
-281.41637100000008
10
-93.148334000000261
20
-281.41637100000014
42
-0.41421356237310542
10
-94.148334000000347
20
-280.41637099999997
0
LWPOLYLINE
5
290
100
AcDbEntity
8
0
100
AcDbPolyline
90
8
70
1
43
0.0
10
-166.96708399999972
20
-279.41637100000008
42
-0.41421356237309503
10
-167.96708399999977
20
-278.41637100000003
10
-167.96708399999974
20
-270.41637099999997
42
-0.41421356237310542
10
-166.96708399999972
20
-269.41637099999991
10
-150.5871039999997
20
-269.41637100000003
42
-0.41421356237308982
10
-149.5871039999997
20
-270.41637099999997
10
-149.5871039999997
20
-278.41637100000003
42
-0.41421356237309503
10
-150.5871039999997
20
-279.41637100000003
0
LWPOLYLINE
5
291
100
AcDbEntity
8
0
100
AcDbPolyline
90
8
70
1
43
0.0
10
-202.9492039999997
20
-269.41637099999991
42
-0.41421356237309503
10
-201.94920399999967
20
-270.41637099999997
10
-201.94920399999967
20
-278.41637100000003
42
-0.41421356237309503
10
-202.9492039999997
20
-279.41637100000003
10
-219.32918399999971
20
-279.41637099999991
42
-0.41421356237309503
10
-220.32918399999966
20
-278.41637100000003
10
-220.32918399999994
20
-270.41637099999997
42
-0.41421356237311585
10
-219.32918399999971
20
-269.41637099999974
0
LWPOLYLINE
5
292
100
AcDbEntity
8
0
100
AcDbPolyline
90
8
70
1
43
0.0
10
-207.73583400000012
20
-299.46637099999998
10
-207.73583400000021
20
-287.46637099999987
42
0.41421356237312623
10
-208.73583400000018
20
-286.46637099999987
10
-220.73583400000018
20
-286.46637099999998
42
0.4142135623730534
10
-221.73583400000018
20
-287.46637099999987
10
-221.73583400000018
20
-299.46637099999998
42
0.41421356237325113
10
-220.73583399999973
20
-300.46637099999998
10
-208.73583400000018
20
-300.46637100000004
42
0.41421356237309503
0
LWPOLYLINE
5
293
100
AcDbEntity
8
0
100
AcDbPolyline
90
8
70
1
43
0.0
10
-265.8858339999997
20
-286.46637099999998
10
-277.88583399999965
20
-286.46637099999987
42
0.4142135623732407
10
-278.88583400000022
20
-287.46637099999987
10
-278.88583399999982
20
-299.46637099999998
42
0.41421356237309503
10
-277.88583400000039
20
-300.46637099999947
10
-265.88583400000033
20
-300.46637100000004
42
0.41421356237309503
10
-264.88583400000027
20
-299.46637099999998
10
-264.8858339999997
20
-287.46637099999987
42
0.41421356237288692
0
LWPOLYLINE
5
294
100
AcDbEntity
8
0
100
AcDbPolyline
90
8
70
1
43
0.0
10
-202.68583400000023
20
-287.46637099999998
42
-0.41421356237325113
10
-201.68583399999972
20
-286.46637100000004
10
-189.68583400000031
20
-286.46637099999987
42
-0.41421356237311585
10
-188.6858340000002
20
-287.46637099999987
10
-188.6858340000002
20
-299.46637099999998
42
-0.41421356237313667
10
-189.68583400000031
20
-300.46637100000004
10
-201.68583399999972
20
-300.46637100000004
42
-0.41421356237329271
10
-202.68583400000026
20
-299.46637099999998
0
LWPOLYLINE
5
295
100
AcDbEntity
8
0
100
AcDbPolyline
90
8
70
1
43
0.0
10
-107.43583400000026
20
-287.46637099999987
42
-0.41421356237321988
10
-106.4358339999997
20
-286.46637100000004
10
-94.435834000000227
20
-286.46637099999987
42
-0.41421356237310542
10
-93.435834000000213
20
-287.46637099999992
10
-93.435834000000142
20
-299.46637100000009
42
-0.41421356237288171
10
-94.435833999999602
20
-300.46637099999992
10
-106.43583399999966
20
-300.46637099999998
42
-0.41421356237326673
10
-107.43583400000023
20
-299.46637099999998
0
LWPOLYLINE
5
296
100
AcDbEntity
8
0
100
AcDbPolyline
90
8
70
1
43
0.0
10
-245.83583400000026
20
-299.46637099999998
42
-0.41421356237309503
10
-246.83583400000032
20
-300.46637100000004
10
-258.83583400000032
20
-300.46637100000009
42
-0.41421356237310542
10
-259.83583400000043
20
-299.46637099999998
10
-259.83583400000026
20
-287.46637100000009
42
-0.4142135623732407
10
-258.83583399999969
20
-286.46637100000009
10
-246.83318226165505
20
-286.49819900376116
42
-0.41343709838424775
10
-245.83583400000023
20
-287.49819548789691
0
LWPOLYLINE
5
297
100
AcDbEntity
8
0
100
AcDbPolyline
90
8
70
1
43
0.0
10
-63.073334000000258
20
-384.92887099077734
42
-0.41421356237310281
10
-62.073333990777542
20
-385.92887100000007
10
-62.073334000000308
20
-386.72887099999991
42
-0.41421356237311846
10
-63.073334000000258
20
-387.72887099999991
10
-215.37958400000031
20
-387.72887099999866
42
-0.41421356237329271
10
-216.37958399999968
20
-386.72887099999991
10
-216.37958400000031
20
-385.92887099999996
42
-0.41421356237327195
10
-215.37958399999968
20
-384.92887100000013
0
LWPOLYLINE
5
298
100
AcDbEntity
8
0
100
AcDbPolyline
90
8
70
1
43
0.0
10
-220.37958399999968
20
-383.92887099999996
10
-223.3795839999996
20
-383.92887100000019
42
0.41421356238656692
10
-224.87958399999957
20
-385.42887100000002
10
-224.87958400006812
20
-388.42262099999999
42
0.41421356237309503
10
-223.37958400006812
20
-389.92262099999999
10
-220.37958400000022
20
-389.92262099999994
42
0.41421356237308116
10
-218.87958400000042
20
-388.42262099999982
10
-218.87958400000028
20
-385.42887100000002
42
0.41421356237299095
0
LWPOLYLINE
5
299
100
AcDbEntity
8
0
100
AcDbPolyline
90
8
70
1
43
0.0
10
-228.37958399999977
20
-384.92887099999933
42
-0.41421356237295975
10
-227.37958399999968
20
-385.92887100000007
10
-227.37958400000025
20
-386.72887099999997
42
-0.41421356237309503
10
-228.37958400000019
20
-387.72887099999991
10
-327.67680000000036
20
-387.72887099999878
42
-0.41421356237313667
10
-328.67679999999916
20
-386.72887099999997
10
-328.6768000000003
20
-385.92887100000007
42
-0.41421356237313667
10
-327.67680000000036
20
-384.92887100000013
0
LWPOLYLINE
5
300
100
AcDbEntity
8
0
100
AcDbPolyline
90
8
70
1
43
0.0
10
-317.27333400000026
20
-380.42887100000002
10
-317.27333399999969
20
-368.42887100000007
42
0.41421356237297013
10
-318.27333399994006
20
-367.42887099999939
10
-330.27333400000003
20
-367.42887099994596
42
0.41421356238920298
10
-331.27333399999969
20
-368.42887100000007
10
-331.27333400005392
20
-380.42887100000002
42
0.41421356238916135
10
-330.27333399999969
20
-381.42887100000002
10
-318.27333400000032
20
-381.42887100000007
42
0.41421356237309503
0
LWPOLYLINE
5
301
100
AcDbEntity
8
0
100
AcDbPolyline
90
8
70
1
43
0.0
10
-298.22333400000059
20
-380.42887100006817
42
-0.41421356237278284
10
-299.22333399999962
20
-381.42887100006811
10
-311.22333400000025
20
-381.42887100000002
42
-0.41421356237303258
10
-312.22333400000019
20
-380.42887100000002
10
-312.22333400000014
20
-368.42887100000013
42
-0.41421356237314705
10
-311.22333400000025
20
-367.42887100000013
10
-299.22333400000025
20
-367.42887100000007
42
-0.41421356237310542
10
-298.22333400000025
20
-368.42887100000007
0
LWPOLYLINE
5
302
100
AcDbEntity
8
0
100
AcDbPolyline
90
8
70
1
43
0.0
10
-279.1733340000003
20
-380.42887100000002
42
-0.41421356237292856
10
-280.17333399999973
20
-381.42887099999996
10
-292.17333399999967
20
-381.42887100000007
42
-0.41421356239411444
10
-293.17333400007152
20
-380.42887100000002
10
-293.17333400000075
20
-368.42887099992879
42
-0.41421356237326151
10
-292.17333400000024
20
-367.42887099992885
10
-280.17333399999973
20
-367.4288709999995
42
-0.41421356237290774
10
-279.17333399999973
20
-368.42887100000007
0
LWPOLYLINE
5
303
100
AcDbEntity
8
0
100
AcDbPolyline
90
8
70
1
43
0.0
10
-354.08583400000032
20
-338.566371
10
-342.08583400000009
20
-338.56637100004895
42
0.41421356238726753
10
-341.08583400000037
20
-337.56637099999989
10
-341.08583400000032
20
-325.566371
42
0.41421356237292856
10
-342.08583399999964
20
-324.56637099999989
10
-354.08583400000032
20
-324.566371
42
0.41421356237313667
10
-355.08583400000032
20
-325.566371
10
-355.08583400004341
20
-337.56637099999989
42
0.41421356238585239
0
LWPOLYLINE
5
304
100
AcDbEntity
8
0
100
AcDbPolyline
90
8
70
1
43
0.0
10
-355.08583400000032
20
-287.46637099999987
42
-0.41421356237311585
10
-354.08583400000032
20
-286.46637099999992
10
-342.08583399995115
20
-286.46637099999919
42
-0.41421356237309503
10
-341.08583399995047
20
-287.46637099999987
10
-341.08583400000015
20
-299.46637099999998
42
-0.41421356237309503
10
-342.0858340000002
20
-300.46637100000009
10
-354.08583400000032
20
-300.46637099999987
42
-0.41421356237311585
10
-355.08583400000026
20
-299.46637099999998
0
LWPOLYLINE
5
305
100
AcDbEntity
8
0
100
AcDbPolyline
90
8
70
1
43
0.0
10
-374.13583400000061
20
-344.61637099996466
42
-0.41421356237326151
10
-373.13583400000016
20
-343.61637099996472
10
-361.13583399995917
20
-343.61637100000019
42
-0.41421356237292856
10
-360.1358339999598
20
-344.61637100000013
10
-360.13583400000073
20
-356.61637100004066
42
-0.41421356237292856
10
-361.1358340000001
20
-357.6163710000406
10
-373.13583400000033
20
-357.61637099999939
42
-0.4142135623832926
10
-374.13583400003483
20
-356.61637100000002
0
LWPOLYLINE
5
306
100
AcDbEntity
8
0
100
AcDbPolyline
90
8
70
1
43
0.0
10
-360.13583400000073
20
-380.4288710000406
42
-0.41421356237292856
10
-361.1358340000001
20
-381.42887100004054
10
-373.1358339999997
20
-381.42887099999939
42
-0.41421356238352147
10
-374.13583400003483
20
-380.42887100000002
10
-374.13583400000061
20
-368.42887099996483
42
-0.41421356237326151
10
-373.13583400000016
20
-367.42887099996489
10
-361.13583399995974
20
-367.42887099999939
42
-0.41421356237309503
10
-360.13583399995912
20
-368.42887100000007
0
LWPOLYLINE
5
307
100
AcDbEntity
8
0
100
AcDbPolyline
90
8
70
1
43
0.0
10
-393.18583400000074
20
-362.11637099997324
42
-0.41421356237326151
10
-392.18583400000011
20
-361.11637099997324
10
-342.08583399999964
20
-361.11637099999945
42
-0.41421356238730916
10
-341.08583399995047
20
-362.11637100000013
10
-341.08583400000032
20
-362.92887100000002
42
-0.41421356237309503
10
-342.0858340000002
20
-363.92887099999996
10
-392.18583400000028
20
-363.92887099999996
42
-0.41421356237309503
10
-393.18583400000023
20
-362.92887100000002
0
LWPOLYLINE
5
308
100
AcDbEntity
8
0
100
AcDbPolyline
90
8
70
1
43
0.0
10
-354.08583399999969
20
-381.42887100000002
10
-342.0858340000002
20
-381.42887100000007
42
0.4142135623730534
10
-341.08583400000015
20
-380.42887100000002
10
-341.08583400000015
20
-368.42887100000007
42
0.41421356237292856
10
-342.08583399999964
20
-367.42887099999996
10
-354.08583400000009
20
-367.42887099995636
42
0.41421356238608131
10
-355.08583399999964
20
-368.42887100000007
10
-355.08583400004341
20
-380.42887100000002
42
0.41421356238603968
0
LWPOLYLINE
5
309
100
AcDbEntity
8
0
100
AcDbPolyline
90
8
70
1
43
0.0
10
-379.18583400000068
20
-380.42887100003202
42
-0.41421356237292856
10
-380.18583400000011
20
-381.42887100003202
10
-392.18583400000028
20
-381.42887099999996
42
-0.41421356237309503
10
-393.18583400000023
20
-380.42887100000002
10
-393.18583400000068
20
-368.42887099997324
42
-0.41421356237326151
10
-392.18583400000011
20
-367.42887099997336
10
-380.18583399996766
20
-367.42887099999939
42
-0.41421356237292856
10
-379.18583399996754
20
-368.42887100000007
0
LWPOLYLINE
5
310
100
AcDbEntity
8
0
100
AcDbPolyline
90
8
70
1
43
0.0
10
-380.18583399999977
20
-343.61637100000002
10
-392.18583400000028
20
-343.61637100000002
42
0.4142135623730534
10
-393.18583400000034
20
-344.61637100000013
10
-393.18583400002638
20
-356.61637100000002
42
0.41421356238104495
10
-392.18583399999972
20
-357.61637100000002
10
-380.18583400000017
20
-357.61637100000007
42
0.4142135623730534
10
-379.18583400000011
20
-356.61637100000002
10
-379.18583399996754
20
-344.61637100000013
42
0.41421356238233525
0
LWPOLYLINE
5
311
100
AcDbEntity
8
0
100
AcDbPolyline
90
8
70
1
43
0.0
10
-354.08583400004403
20
-357.61637099999996
10
-342.08583400000009
20
-357.61637100004907
42
0.41421356238726753
10
-341.08583399999964
20
-356.61637100000002
10
-341.08583399995121
20
-344.61637100000013
42
0.41421356237313667
10
-342.08583399995115
20
-343.61637100000019
10
-354.08583400000032
20
-343.61637100000002
42
0.4142135623730534
10
-355.08583400000043
20
-344.61637100000013
10
-355.08583400004397
20
-356.61637100000002
42
0.41421356237311585
0
LWPOLYLINE
5
312
100
AcDbEntity
8
0
100
AcDbPolyline
90
8
70
1
43
0.0
10
-379.18583400000057
20
-299.46637100003204
42
-0.41421356237291812
10
-380.18583400000011
20
-300.46637100003204
10
-392.18583400000028
20
-300.46637099999992
42
-0.41421356238092011
10
-393.18583400002694
20
-299.46637099999998
10
-393.18583400000074
20
-287.46637099997321
42
-0.41421356237333434
10
-392.18583400000011
20
-286.46637099997326
10
-380.18583400000017
20
-286.46637099999998
42
-0.41421356237311585
10
-379.18583400000023
20
-287.46637099999987
0
LWPOLYLINE
5
313
100
AcDbEntity
8
0
100
AcDbPolyline
90
8
70
1
43
0.0
10
-381.68583400000074
20
-385.92887099996813
42
-0.41421356237321988
10
-380.68583400000017
20
-384.92887099996813
10
-344.67144499999961
20
-384.92887099999939
42
-0.41421356238693458
10
-343.67144499995169
20
-385.92887100000007
10
-343.67144500000063
20
-386.72887099999997
42
-0.41421356238685131
10
-344.67144499999961
20
-387.72887100004789
10
-380.68583399999972
20
-387.72887099999878
42
-0.41421356237326151
10
-381.68583399999898
20
-386.72887099999997
0
LWPOLYLINE
5
314
100
AcDbEntity
8
0
100
AcDbPolyline
90
8
70
1
43
0.0
10
-379.18583400000057
20
-280.41637100003203
42
-0.41421356237281409
10
-380.18583399999977
20
-281.41637100003203
10
-392.18583400002643
20
-281.41637099999934
42
-0.41421356237321988
10
-393.18583400002638
20
-280.41637099999997
10
-393.18583400000023
20
-268.41637100000003
42
-0.41421356237307422
10
-392.18583400000028
20
-267.41637100000003
10
-380.18583400000017
20
-267.41637100000014
42
-0.41421356237311585
10
-379.18583400000023
20
-268.41637100000003
0
LWPOLYLINE
5
315
100
AcDbEntity
8
0
100
AcDbPolyline
90
8
70
1
43
0.0
10
-312.51083400000027
20
-267.41637099999997
10
-328.89081400000009
20
-267.41637099994512
42
0.41421356238934864
10
-329.89081399999969
20
-268.41637100000003
10
-329.8908140000002
20
-280.41637099999997
42
0.41421356237326151
10
-328.89081399999964
20
-281.41637099999997
10
-312.51083400000027
20
-281.41637100000008
42
0.41421356237307422
10
-311.51083400000027
20
-280.41637099999997
10
-311.51083400000027
20
-268.41637100000003
42
0.41421356237309503
0
LWPOLYLINE
5
316
100
AcDbEntity
8
0
100
AcDbPolyline
90
8
70
1
43
0.0
10
-62.073334000000997
20
-262.91637099999997
42
-0.41421356237309764
10
-63.073334000000841
20
-263.9163709999998
10
-215.37958399999968
20
-263.91637099999878
42
-0.41421356237340717
10
-216.3795839999996
20
-262.91637099999997
10
-216.37958400000031
20
-262.11637100000007
42
-0.41421356237328233
10
-215.37958399999974
20
-261.11637100000007
10
-63.07333399999969
20
-261.11637099973603
42
-0.41421356237292073
10
-62.073333999736278
20
-262.11637100000007
0
LWPOLYLINE
5
317
100
AcDbEntity
8
0
100
AcDbPolyline
90
8
70
1
43
0.0
10
-224.87958400000022
20
-260.42262099999994
10
-224.87958400000002
20
-263.41637100000003
42
0.4142135623730534
10
-223.37958400000019
20
-264.91637099999986
10
-220.37958400000025
20
-264.91637099999991
42
0.41421356237308116
10
-218.87958400000042
20
-263.41637100000003
10
-218.87958400000042
20
-260.42262099999994
42
0.41421356237294243
10
-220.37958399999968
20
-258.92262100000005
10
-223.37958400000014
20
-258.92262099993212
42
0.41421356238646284
0
LWPOLYLINE
5
318
100
AcDbEntity
8
0
100
AcDbPolyline
90
8
70
1
43
0.0
10
-236.50833399999965
20
-283.41651899999943
10
-225.50833399999965
20
-283.41651899999994
42
0.41421356237290774
10
-224.50833400000025
20
-282.41651899999994
10
-224.50833400000019
20
-266.71651900000001
42
0.41421356237288692
10
-225.50833399999959
20
-265.71651900000001
10
-236.50833400000033
20
-265.71651899999995
42
0.41421356237309503
10
-237.50833400000039
20
-266.71651900000001
10
-237.50833399999965
20
-282.41651899999999
42
0.41421356237326151
0
LWPOLYLINE
5
319
100
AcDbEntity
8
0
100
AcDbPolyline
90
8
70
1
43
0.0
10
-228.37958399999968
20
-261.11637099999939
42
-0.41421356237290774
10
-227.37958399999968
20
-262.11637100000007
10
-227.37958400000031
20
-262.91637099999997
42
-0.4142135623730534
10
-228.37958400000019
20
-263.91637099999986
10
-380.68583400000017
20
-263.91637099999878
42
-0.41421356237309503
10
-381.68583399999898
20
-262.91637099999997
10
-381.68583400000017
20
-262.11637100000007
42
-0.41421356237313667
10
-380.68583400000017
20
-261.11637100000002
0
LWPOLYLINE
5
320
100
AcDbEntity
8
0
100
AcDbPolyline
90
8
70
1
43
0.0
10
-306.07831400000043
20
-268.41637100000003
42
-0.41421356237310542
10
-305.07831400000032
20
-267.41637099999991
10
-288.69833400000033
20
-267.41637099999991
42
-0.41421356237309503
10
-287.69833400000027
20
-268.41637100000003
10
-287.69833400000073
20
-280.41637100007284
42
-0.41421356237292856
10
-288.6983340000001
20
-281.41637100007279
10
-305.07831399999964
20
-281.41637100000003
42
-0.41421356237331353
10
-306.07831400000032
20
-280.41637099999997
0
LWPOLYLINE
5
321
100
AcDbEntity
8
0
100
AcDbPolyline
90
8
70
1
43
0.0
10
-284.64833400000026
20
-268.41637100000003
42
-0.41421356237328233
10
-283.64833399999964
20
-267.41637100000003
10
-264.88583400000033
20
-267.41637099999997
42
-0.41421356237307422
10
-263.88583400000033
20
-268.41637100000003
10
-263.88583400000022
20
-280.41637099999997
42
-0.41421356237294937
10
-264.8858339999997
20
-281.41637100000003
10
-283.64833400000032
20
-281.41637100000003
42
-0.4142135623730534
10
-284.64833400000037
20
-280.41637099999997
0
LWPOLYLINE
5
322
100
AcDbEntity
8
0
100
AcDbPolyline
90
8
70
1
43
0.0
10
-374.13583400000039
20
-287.46637099999987
42
-0.41421356237311585
10
-373.13583400000033
20
-286.46637099999992
10
-361.13583399995974
20
-286.46637099999919
42
-0.41421356237309503
10
-360.13583399995912
20
-287.46637099999987
10
-360.13583400000027
20
-299.46637099999998
42
-0.41421356237313667
10
-361.13583400000033
20
-300.46637100000004
10
-373.13583400000033
20
-300.46637099999987
42
-0.41421356237311585
10
-374.13583400000027
20
-299.46637099999998
0
ARC
5
323
100
AcDbEntity
8
0
100
AcDbCircle
10
-324.17412300005719
20
-391.92887100000007
30
0
40
0.99999999999937472
210
0
220
0
230
1
100
AcDbArc
50
180
51
270
0
LINE
5
324
100
AcDbEntity
8
0
100
AcDbLine
10
-324.17412300005719
20
-392.92887099999945
30
0
11
-63.194653999999701
21
-392.92887100000002
31
0
0
ARC
5
325
100
AcDbEntity
8
0
100
AcDbCircle
10
-63.194654000000263
20
-391.42887099999996
30
0
40
1.5000000000000568
210
-0
220
0
230
1
100
AcDbArc
50
270.00000000002143
51
314.9999999999992
0
LINE
5
326
100
AcDbEntity
8
0
100
AcDbLine
10
-62.133993828220405
20
-392.48953117177984
30
0
11
-60.012673999999535
21
-390.36821099999997
31
0
0
ARC
5
327
100
AcDbEntity
8
0
100
AcDbCircle
10
-61.073334000000223
20
-389.30755099999999
30
0
40
1.4999997570671211
210
-0
220
0
230
1
100
AcDbArc
50
-44.999999999981021
51
0
0
LINE
5
328
100
AcDbEntity
8
0
100
AcDbLine
10
-59.573334000000457
20
-389.30755099999999
30
0
11
-59.573333999999676
21
-385.42887100000002
31
0
0
ARC
5
329
100
AcDbEntity
8
0
100
AcDbCircle
10
-58.073333999999683
20
-385.42887100000002
30
0
40
1.4999999999999858
210
0
220
-0
230
1
100
AcDbArc
50
90
51
180
0
LINE
5
330
100
AcDbEntity
8
0
100
AcDbLine
10
-58.073333999999683
20
-383.92887100000002
30
0
11
-51.487546999999552
21
-383.92887100000002
31
0
0
ARC
5
331
100
AcDbEntity
8
0
100
AcDbCircle
10
-51.487546999999481
20
-382.92887100000019
30
0
40
0.9999999999998721
210
0
220
0
230
1
100
AcDbArc
50
269.99999999999591
51
315.00000000000142
0
LINE
5
332
100
AcDbEntity
8
0
100
AcDbLine
10
-50.780440218813006
20
-383.63597778118663
30
0
11
-48.366226999999569
21
-381.22176400000001
31
0
0
ARC
5
333
100
AcDbEntity
8
0
100
AcDbCircle
10
-49.073333999999697
20
-380.51465699999989
30
0
40
1.0000003094491376
210
-0
220
0
230
1
100
AcDbArc
50
-44.999999999999694
51
0
0
LINE
5
334
100
AcDbEntity
8
0
100
AcDbLine
10
-48.073333999999349
20
-380.51465699999989
30
0
11
-48.07333399999969
21
-340.566371
31
0
0
ARC
5
335
100
AcDbEntity
8
0
100
AcDbCircle
10
-50.073333999999569
20
-340.566371
30
0
40
1.9999999999998774
210
0
220
-0
230
1
100
AcDbArc
50
0
51
90.000000000000199
0
LINE
5
336
100
AcDbEntity
8
0
100
AcDbLine
10
-50.073333999999576
20
-338.566371
30
0
11
-50.335833999999551
21
-338.56637099999938
31
0
0
ARC
5
337
100
AcDbEntity
8
0
100
AcDbCircle
10
-50.335834000000148
20
-337.566371
30
0
40
0.99999999999941025
210
0
220
0
230
1
100
AcDbArc
50
180
51
270.00000000003416
0
LINE
5
338
100
AcDbEntity
8
0
100
AcDbLine
10
-51.335833999999558
20
-337.56637099999989
30
0
11
-51.335833999999565
21
-325.566371
31
0
0
ARC
5
339
100
AcDbEntity
8
0
100
AcDbCircle
10
-50.335834000000226
20
-325.56637100000012
30
0
40
1.0000000000000853
210
0
220
-0
230
1
100
AcDbArc
50
89.999999999964984
51
180
0
LINE
5
340
100
AcDbEntity
8
0
100
AcDbLine
10
-50.335833999999615
20
-324.566371
30
0
11
-50.073333999999576
21
-324.56637099999989
31
0
0
ARC
5
341
100
AcDbEntity
8
0
100
AcDbCircle
10
-50.073333999999512
20
-322.566371
30
0
40
1.9999999999998863
210
0
220
0
230
1
100
AcDbArc
50
-90.000000000001833
51
0
0
LINE
5
342
100
AcDbEntity
8
0
100
AcDbLine
10
-48.073333999999626
20
-322.56637099999989
30
0
11
-48.073334000000045
21
-268.33058399999999
31
0
0
ARC
5
343
100
AcDbEntity
8
0
100
AcDbCircle
10
-49.073333999999619
20
-268.33058399999999
30
0
40
0.99999999999957012
210
0
220
-0
230
1
100
AcDbArc
50
0
51
45.000000000002011
0
LINE
5
344
100
AcDbEntity
8
0
100
AcDbLine
10
-48.3662272188134
20
-267.62347721881372
30
0
11
-50.780440218813006
21
-265.20926421881342
31
0
0
ARC
5
345
100
AcDbEntity
8
0
100
AcDbCircle
10
-51.487546999999566
20
-265.91637100000003
30
0
40
1.0000000000000608
210
0
220
-0
230
1
100
AcDbArc
50
45.000000000002011
51
89.99999999999919
0
LINE
5
346
100
AcDbEntity
8
0
100
AcDbLine
10
-51.487546999999552
20
-264.91637099999997
30
0
11
-58.07333399999969
21
-264.91637099999997
31
0
0
ARC
5
347
100
AcDbEntity
8
0
100
AcDbCircle
10
-58.073333999999662
20
-263.41637099999997
30
0
40
1.5000000000000036
210
0
220
0
230
1
100
AcDbArc
50
180
51
269.99999999999886
0
LINE
5
348
100
AcDbEntity
8
0
100
AcDbLine
10
-59.573333999999669
20
-263.41637100000003
30
0
11
-59.573333999999676
21
-259.53769099999994
31
0
0
ARC
5
349
100
AcDbEntity
8
0
100
AcDbCircle
10
-61.073334000000081
20
-259.53769099999994
30
0
40
1.5000000000004032
210
0
220
-0
230
1
100
AcDbArc
50
0
51
44.999999999996724
0
LINE
5
350
100
AcDbEntity
8
0
100
AcDbLine
10
-60.012673828219903
20
-258.47703082821988
30
0
11
-62.13399382822054
21
-256.35571082822025
31
0
0
ARC
5
351
100
AcDbEntity
8
0
100
AcDbCircle
10
-63.194654000000263
20
-257.41637099999997
30
0
40
1.499999999999865
210
0
220
-0
230
1
100
AcDbArc
50
44.999999999999808
51
90.00000000000027
0
LINE
5
352
100
AcDbEntity
8
0
100
AcDbLine
10
-63.19465400000027
20
-255.91637100000011
30
0
11
-380.56451400000037
21
-255.91637099999991
31
0
0
ARC
5
353
100
AcDbEntity
8
0
100
AcDbCircle
10
-380.56451400000037
20
-257.41637099999997
30
0
40
1.5000000000000568
210
0
220
-0
230
1
100
AcDbArc
50
90
51
135.00000000000307
0
LINE
5
354
100
AcDbEntity
8
0
100
AcDbLine
10
-381.62517417178032
20
-256.35571082822014
30
0
11
-383.74649417178023
21
-258.47703082822011
31
0
0
ARC
5
355
100
AcDbEntity
8
0
100
AcDbCircle
10
-382.68583400000017
20
-259.53769099999994
30
0
40
1.5000000000001728
210
0
220
0
230
1
100
AcDbArc
50
135.00000000000617
51
180
0
LINE
5
356
100
AcDbEntity
8
0
100
AcDbLine
10
-384.18583400000034
20
-259.53769099999994
30
0
11
-384.18583399999977
21
-263.41637100000003
31
0
0
ARC
5
357
100
AcDbEntity
8
0
100
AcDbCircle
10
-385.68583399999972
20
-263.41637100000008
30
0
40
1.4999999999999858
210
0
220
0
230
1
100
AcDbArc
50
-90
51
0
0
LINE
5
358
100
AcDbEntity
8
0
100
AcDbLine
10
-385.68583399999972
20
-264.91637100000003
30
0
11
-392.27161999999964
21
-264.9163709999998
31
0
0
ARC
5
359
100
AcDbEntity
8
0
100
AcDbCircle
10
-392.27161999999959
20
-265.9163710000002
30
0
40
1.0000000000004405
210
0
220
0
230
1
100
AcDbArc
50
90.000000000003254
51
134.99999999999309
0
LINE
5
360
100
AcDbEntity
8
0
100
AcDbLine
10
-392.97872678118637
20
-265.20926421881325
30
0
11
-395.3929407811865
21
-267.62347721881315
31
0
0
ARC
5
361
100
AcDbEntity
8
0
100
AcDbCircle
10
-394.68583399999966
20
-268.33058400000004
30
0
40
1.0000000000004501
210
0
220
0
230
1
100
AcDbArc
50
134.99999999999773
51
180
0
LINE
5
362
100
AcDbEntity
8
0
100
AcDbLine
10
-395.68583400000011
20
-268.33058399999999
30
0
11
-395.68583400002524
21
-301.60215699999986
31
0
0
ARC
5
363
100
AcDbEntity
8
0
100
AcDbCircle
10
-394.68583400002586
20
-301.60215699999986
30
0
40
0.99999999999937472
210
0
220
0
230
1
100
AcDbArc
50
180
51
225.00000000000227
0
LINE
5
364
100
AcDbEntity
8
0
100
AcDbLine
10
-395.39294078121196
20
-302.30926378118602
30
0
11
-392.47872678118688
21
-305.2234777811866
31
0
0
ARC
5
365
100
AcDbEntity
8
0
100
AcDbCircle
10
-391.77162000000015
20
-304.51637099999988
30
0
40
1.000000000000224
210
0
220
0
230
1
100
AcDbArc
50
225
51
270
0
LINE
5
366
100
AcDbEntity
8
0
100
AcDbLine
10
-391.77162000000015
20
-305.51637100000011
30
0
11
-380.18583399996766
21
-305.51637099999937
31
0
0
ARC
5
367
100
AcDbEntity
8
0
100
AcDbCircle
10
-380.18583399996828
20
-306.51637100000005
30
0
40
1.0000000000007248
210
0
220
-0
230
1
100
AcDbArc
50
0
51
89.999999999964174
0
LINE
5
368
100
AcDbEntity
8
0
100
AcDbLine
10
-379.18583399996754
20
-306.51637100000005
30
0
11
-379.18583400000017
21
-318.51637099999999
31
0
0
ARC
5
369
100
AcDbEntity
8
0
100
AcDbCircle
10
-380.18583400000017
20
-318.51637099999999
30
0
40
1.0000000000000142
210
0
220
0
230
1
100
AcDbArc
50
-90
51
0
0
LINE
5
370
100
AcDbEntity
8
0
100
AcDbLine
10
-380.18583400000017
20
-319.51637100000005
30
0
11
-391.77162000000015
21
-319.51637100000005
31
0
0
ARC
5
371
100
AcDbEntity
8
0
100
AcDbCircle
10
-391.77162000000015
20
-320.51637099999988
30
0
40
0.99999999999983658
210
0
220
-0
230
1
100
AcDbArc
50
90
51
134.99999999998388
0
LINE
5
372
100
AcDbEntity
8
0
100
AcDbLine
10
-392.47872678118642
20
-319.80926421881321
30
0
11
-395.39294078118712
21
-322.72347721881317
31
0
0
ARC
5
373
100
AcDbEntity
8
0
100
AcDbCircle
10
-394.68583400000028
20
-323.43058400000007
30
0
40
1.0000000000004501
210
0
220
0
230
1
100
AcDbArc
50
134.99999999999773
51
180
0
LINE
5
374
100
AcDbEntity
8
0
100
AcDbLine
10
-395.6858340000008
20
-323.43058400000007
30
0
11
-395.68583400000023
21
-380.51465699999989
31
0
0
ARC
5
375
100
AcDbEntity
8
0
100
AcDbCircle
10
-394.68583399999955
20
-380.51465699999972
30
0
40
1.0000000000006537
210
0
220
0
230
1
100
AcDbArc
50
180
51
225
0
LINE
5
376
100
AcDbEntity
8
0
100
AcDbLine
10
-395.39294078118655
20
-381.22176378118672
30
0
11
-392.97872678118631
21
-383.63597778118663
31
0
0
ARC
5
377
100
AcDbEntity
8
0
100
AcDbCircle
10
-392.27161999999942
20
-382.92887099999962
30
0
40
1.0000000000005507
210
0
220
0
230
1
100
AcDbArc
50
225.0000000000046
51
269.99999999998698
0
LINE
5
378
100
AcDbEntity
8
0
100
AcDbLine
10
-392.27161999999964
20
-383.92887100000007
30
0
11
-385.68583399999972
21
-383.92887100000019
31
0
0
ARC
5
379
100
AcDbEntity
8
0
100
AcDbCircle
10
-385.68583399999977
20
-385.42887100000019
30
0
40
1.4999999999999858
210
0
220
-0
230
1
100
AcDbArc
50
0
51
89.999999999997826
0
LINE
5
380
100
AcDbEntity
8
0
100
AcDbLine
10
-384.18583399999983
20
-385.42887100000002
30
0
11
-384.18583400000023
21
-389.30755099999999
31
0
0
ARC
5
381
100
AcDbEntity
8
0
100
AcDbCircle
10
-382.68583400000017
20
-389.30755099999999
30
0
40
1.5000000000000568
210
0
220
0
230
1
100
AcDbArc
50
180
51
224.99999999999693
0
LINE
5
382
100
AcDbEntity
8
0
100
AcDbLine
10
-383.74649417178006
20
-390.36821117177976
30
0
11
-381.62517417178032
21
-392.48953117177996
31
0
0
ARC
5
383
100
AcDbEntity
8
0
100
AcDbCircle
10
-380.56451400000037
20
-391.42887100000002
30
0
40
1.5000000000001728
210
0
220
0
230
1
100
AcDbArc
50
225
51
270
0
LINE
5
384
100
AcDbEntity
8
0
100
AcDbLine
10
-380.56451400000037
20
-392.92887100000024
30
0
11
-348.17412300000029
21
-392.9288710000003
31
0
0
ARC
5
385
100
AcDbEntity
8
0
100
AcDbCircle
10
-348.17412300000029
20
-391.92887100000007
30
0
40
1.0000000000002274
210
-0
220
0
230
1
100
AcDbArc
50
-90
51
0
0
LINE
5
386
100
AcDbEntity
8
0
100
AcDbLine
10
-347.17412300000007
20
-391.92887100000007
30
0
11
-347.17412300000063
21
-391.42887099996841
31
0
0
ARC
5
387
100
AcDbEntity
8
0
100
AcDbCircle
10
-345.6741230000008
20
-391.42887099996835
30
0
40
1.4999999999998437
210
0
220
-0
230
1
100
AcDbArc
50
89.999999999973952
51
180
0
LINE
5
388
100
AcDbEntity
8
0
100
AcDbLine
10
-345.67412300000012
20
-389.92887099996847
30
0
11
-343.58565900000031
21
-389.9288709999999
31
0
0
ARC
5
389
100
AcDbEntity
8
0
100
AcDbCircle
10
-343.58565900000031
20
-388.92887100000002
30
0
40
0.9999999999998721
210
-0
220
0
230
1
100
AcDbArc
50
270
51
315
0
LINE
5
390
100
AcDbEntity
8
0
100
AcDbLine
10
-342.87855221881387
20
-389.63597778118645
30
0
11
-341.46433821881368
21
-388.22176378118661
31
0
0
ARC
5
391
100
AcDbEntity
8
0
100
AcDbCircle
10
-342.17144500000029
20
-387.51465699999983
30
0
40
1.0000000000002491
210
-0
220
0
230
1
100
AcDbArc
50
-45.000000000006921
51
0
0
LINE
5
392
100
AcDbEntity
8
0
100
AcDbLine
10
-341.17144500000001
20
-387.51465699999983
30
0
11
-341.17144500000023
21
-384.42887100000007
31
0
0
ARC
5
393
100
AcDbEntity
8
0
100
AcDbCircle
10
-339.17144500000018
20
-384.42887100000007
30
0
40
2.0000000000000284
210
0
220
-0
230
1
100
AcDbArc
50
90
51
180
0
LINE
5
394
100
AcDbEntity
8
0
100
AcDbLine
10
-339.17144500000018
20
-382.42887100000007
30
0
11
-333.17679999997324
21
-382.4288709999995
31
0
0
ARC
5
395
100
AcDbEntity
8
0
100
AcDbCircle
10
-333.17679999997381
20
-384.42887100000007
30
0
40
2.0000000000005969
210
0
220
0
230
1
100
AcDbArc
50
0
51
89.999999999983714
0
LINE
5
396
100
AcDbEntity
8
0
100
AcDbLine
10
-331.17679999997324
20
-384.42887100000007
30
0
11
-331.1768000000007
21
-387.51465699999983
31
0
0
ARC
5
397
100
AcDbEntity
8
0
100
AcDbCircle
10
-330.17680000000036
20
-387.51465699999983
30
0
40
1.0000000000003695
210
0
220
0
230
1
100
AcDbArc
50
180
51
225.0000000000046
0
LINE
5
398
100
AcDbEntity
8
0
100
AcDbLine
10
-330.88390678118714
20
-388.22176378118672
30
0
11
-329.46969378118689
21
-389.63597778118674
31
0
0
ARC
5
399
100
AcDbEntity
8
0
100
AcDbCircle
10
-328.76258700000017
20
-388.92887100000002
30
0
40
1.0000000000002491
210
0
220
0
230
1
100
AcDbArc
50
225
51
270.00000000003257
0
LINE
5
400
100
AcDbEntity
8
0
100
AcDbLine
10
-328.7625869999996
20
-389.92887100000024
30
0
11
-326.67412299996244
21
-389.92887099999939
31
0
0
ARC
5
401
100
AcDbEntity
8
0
100
AcDbCircle
10
-326.674122999963
20
-391.42887100000002
30
0
40
1.5000000000006253
210
0
220
0
230
1
100
AcDbArc
50
0
51
89.999999999978286
0
LINE
5
402
100
AcDbEntity
8
0
100
AcDbLine
10
-325.17412299996238
20
-391.42887100000002
30
0
11
-325.17412300005662
21
-391.92887100000007
31
0
0
ENDSEC
0
SECTION
2
OBJECTS
0
DICTIONARY
5
C
100
AcDbDictionary
3
ACAD_GROUP
350
D
3
ACAD_MLINESTYLE
350
17
0
DICTIONARY
5
D
100
AcDbDictionary
0
DICTIONARY
5
1A
330
C
100
AcDbDictionary
0
DICTIONARY
5
17
100
AcDbDictionary
0
ENDSEC
0
EOF
