0
SECTION
2
HEADER
9
$INSUNITS
70
4
9
$ACADVER
1
AC1014
9
$HANDSEED
5
FFFF
0
ENDSEC
0
SECTION
2
TABLES
0
TABLE
2
VPORT
5
8
100
AcDbSymbolTable
0
ENDTAB
0
TABLE
2
LTYPE
5
5
100
AcDbSymbolTable
0
LTYPE
5
14
100
AcDbSymbolTableRecord
100
AcDbLinetypeTableRecord
2
BYBLOCK
70
0
0
LTYPE
5
15
100
AcDbSymbolTableRecord
100
AcDbLinetypeTableRecord
2
BYLAYER
70
0
0
ENDTAB
0
TABLE
2
LAYER
5
2
100
AcDbSymbolTable
70
2
0
LAYER
5
50
100
AcDbSymbolTableRecord
100
AcDbLayerTableRecord
2
0
70
0
6
CONTINUOUS
0
ENDTAB
0
TABLE
2
STYLE
5
3
100
AcDbSymbolTable
70
1
0
STYLE
5
11
100
AcDbSymbolTableRecord
100
AcDbTextStyleTableRecord
2
STANDARD
70
0
0
ENDTAB
0
TABLE
2
VIEW
5
6
100
AcDbSymbolTable
70
0
0
ENDTAB
0
TABLE
2
UCS
5
7
100
AcDbSymbolTable
70
0
0
ENDTAB
0
TABLE
2
APPID
5
9
100
AcDbSymbolTable
70
2
0
APPID
5
12
100
AcDbSymbolTableRecord
100
AcDbRegAppTableRecord
2
ACAD
70
0
0
ENDTAB
0
TABLE
2
DIMSTYLE
5
A
100
AcDbSymbolTable
70
1
0
ENDTAB
0
TABLE
2
BLOCK_RECORD
5
1
100
AcDbSymbolTable
70
1
0
BLOCK_RECORD
5
1F
100
AcDbSymbolTableRecord
100
AcDbBlockTableRecord
2
*MODEL_SPACE
0
BLOCK_RECORD
5
1B
100
AcDbSymbolTableRecord
100
AcDbBlockTableRecord
2
*PAPER_SPACE
0
ENDTAB
0
ENDSEC
0
SECTION
2
BLOCKS
0
BLOCK
5
20
100
AcDbEntity
100
AcDbBlockBegin
2
*MODEL_SPACE
0
ENDBLK
5
21
100
AcDbEntity
100
AcDbBlockEnd
0
BLOCK
5
1C
100
AcDbEntity
100
AcDbBlockBegin
2
*PAPER_SPACE
0
ENDBLK
5
1D
100
AcDbEntity
100
AcDbBlockEnd
0
ENDSEC
0
SECTION
2
ENTITIES
0
LWPOLYLINE
5
100
100
AcDbEntity
8
0
100
AcDbPolyline
90
8
70
1
43
0.0
10
-200.53832712360014
20
-60.268300000000004
42
-0.41421356237309503
10
-200.03832712360011
20
-59.768300000000011
10
-199.9873271236001
20
-59.768300000000011
42
-0.41421356237323032
10
-199.48732712360004
20
-60.268300000000004
10
-199.48732712360004
20
-73.267600000000016
42
-0.41421356237312623
10
-199.98732712360012
20
-73.767600000000016
10
-200.03832712360008
20
-73.76760000000003
42
-0.41421356237307944
10
-200.53832712360014
20
-73.267600000000016
0
LWPOLYLINE
5
101
100
AcDbEntity
8
0
100
AcDbPolyline
90
8
70
1
43
0.0
10
-213.77432712360005
20
-35.167599999999993
42
-0.41421356237303258
10
-214.27432712359999
20
-35.66759999999995
10
-214.32532712360006
20
-35.6676
42
-0.4142135623732095
10
-214.82532712360012
20
-35.167600000000007
10
-214.82532712360012
20
-22.168299999999999
42
-0.41421356237314444
10
-214.32532712360012
20
-21.668299999999995
10
-214.27432712360005
20
-21.668299999999977
42
-0.41421356237314444
10
-213.77432712360005
20
-22.168299999999999
0
LWPOLYLINE
5
102
100
AcDbEntity
8
0
100
AcDbPolyline
90
8
70
1
43
0.0
10
-157.17532712360003
20
-35.667600000000007
42
-0.4142135623730378
10
-157.67532712360003
20
-35.167600000000007
10
-157.67532712360003
20
-22.168299999999999
42
-0.41421356237304302
10
-157.17532712360003
20
-21.668299999999995
10
-157.12432712360001
20
-21.668299999999995
42
-0.41421356237309243
10
-156.62432712360001
20
-22.168299999999999
10
-156.62432712360001
20
-35.167600000000007
42
-0.41421356237308721
10
-157.12432712360001
20
-35.667600000000007
0
LWPOLYLINE
5
103
100
AcDbEntity
8
0
100
AcDbPolyline
90
8
70
1
43
0.0
10
-135.18200000000002
20
-35.6676
42
-0.41421356237306384
10
-135.68200000000002
20
-35.167600000000007
10
-135.68200000000002
20
-22.168299999999999
42
-0.4142135623730222
10
-135.1820000000001
20
-21.668300000000016
10
-122.18200000000002
20
-21.668299999999995
42
-0.41421356237300916
10
-121.682
20
-22.168299999999999
10
-121.682
20
-35.167600000000007
42
-0.41421356237304563
10
-122.18200000000003
20
-35.667600000000022
0
LWPOLYLINE
5
104
100
AcDbEntity
8
0
100
AcDbPolyline
90
8
70
1
43
0.0
10
-97.581500000000005
20
-22.168299999999999
10
-97.581500000000005
20
-35.167600000000007
42
0.41421356237310281
10
-97.08150000000002
20
-35.667600000000007
10
-84.082200000000014
20
-35.667600000000022
42
0.41421356237305601
10
-83.582200000000014
20
-35.167600000000007
10
-83.582200000000029
20
-22.168299999999999
42
0.4142135623729884
10
-84.0822
20
-21.668300000000002
10
-97.08150000000002
20
-21.668299999999995
42
0.41421356237308721
0
LWPOLYLINE
5
105
100
AcDbEntity
8
0
100
AcDbPolyline
90
8
70
1
43
0.0
10
-99.474327123600006
20
-35.167600000000007
10
-99.474327123600006
20
-22.168299999999999
42
0.41421356237309243
10
-99.97432712360002
20
-21.668299999999995
10
-100.02532712360001
20
-21.668299999999995
42
0.41421356237309243
10
-100.52532712360002
20
-22.168299999999999
10
-100.52532712360002
20
-35.1676
42
0.41421356237309503
10
-100.02532712360001
20
-35.667600000000007
10
-99.97432712360002
20
-35.667600000000007
42
0.41421356237308721
0
LWPOLYLINE
5
106
100
AcDbEntity
8
0
100
AcDbPolyline
90
8
70
1
43
0.0
10
-230.93199999999999
20
-22.168299999999999
10
-230.93199999999999
20
-35.167600000000007
42
0.41421356237301177
10
-230.43199999999999
20
-35.667599999999993
10
-217.43200000000004
20
-35.667599999999993
42
0.41421356237316787
10
-216.93200000000004
20
-35.167600000000007
10
-216.93200000000004
20
-22.168299999999999
42
0.41421356237314444
10
-217.43200000000004
20
-21.668299999999981
10
-230.43199999999999
20
-21.668299999999974
42
0.4142135623729884
0
LWPOLYLINE
5
107
100
AcDbEntity
8
0
100
AcDbPolyline
90
6
70
1
43
0.0
10
-192.83199999999999
20
-22.168299999999999
42
-0.41421356237314444
10
-192.33199999999999
20
-21.668299999999995
10
-179.33200000000005
20
-21.66829999999997
42
-0.41421356237310802
10
-178.83200000000005
20
-22.168299999999999
10
-178.83200000000005
20
-35.667600000000007
10
-192.83199999999999
20
-35.667600000000007
0
LWPOLYLINE
5
108
100
AcDbEntity
8
0
100
AcDbPolyline
90
8
70
1
43
0.0
10
-195.22432712360003
20
-21.668299999999981
10
-195.27532712360005
20
-21.668300000000002
42
0.414213562373069
10
-195.77532712360011
20
-22.168299999999999
10
-195.77532712360011
20
-35.167599999999993
42
0.41421356237291035
10
-195.27532712360005
20
-35.667600000000007
10
-195.22432712360003
20
-35.667599999999993
42
0.41421356237316787
10
-194.72432712360003
20
-35.167600000000007
10
-194.72432712360003
20
-22.168299999999999
42
0.41421356237314444
0
LWPOLYLINE
5
109
100
AcDbEntity
8
0
100
AcDbPolyline
90
8
70
1
43
0.0
10
-159.78200000000001
20
-35.167600000000007
10
-159.78200000000001
20
-22.168299999999999
42
0.41421356237309243
10
-160.28200000000001
20
-21.668299999999995
10
-173.28200000000007
20
-21.668299999999995
42
0.41421356237314444
10
-173.78200000000007
20
-22.168299999999999
10
-173.78200000000007
20
-35.167600000000007
42
0.4142135623732095
10
-173.28200000000007
20
-35.667599999999979
10
-160.28200000000001
20
-35.667600000000007
42
0.41421356237308721
0
LWPOLYLINE
5
110
100
AcDbEntity
8
0
100
AcDbPolyline
90
8
70
1
43
0.0
10
-176.7253271236001
20
-22.168299999999999
10
-176.7253271236001
20
-35.167600000000007
42
0.41421356237310281
10
-176.22532712360004
20
-35.667599999999993
10
-176.17432712360005
20
-35.667600000000022
42
0.41421356237313145
10
-175.67432712360005
20
-35.167600000000007
10
-175.67432712360005
20
-22.168299999999984
42
0.4142135623730534
10
-176.17432712360005
20
-21.668300000000009
10
-176.22532712360004
20
-21.668299999999981
42
0.41421356237307683
0
LWPOLYLINE
5
111
100
AcDbEntity
8
0
100
AcDbPolyline
90
8
70
1
43
0.0
10
-116.63200000000003
20
-22.168299999999999
42
-0.41421356237308721
10
-116.13200000000005
20
-21.668299999999995
10
-103.13200000000002
20
-21.668299999999995
42
-0.41421356237309243
10
-102.63200000000001
20
-22.168299999999999
10
-102.63200000000001
20
-35.167600000000007
42
-0.41421356237308721
10
-103.13200000000002
20
-35.667600000000007
10
-116.13200000000005
20
-35.667600000000014
42
-0.41421356237310281
10
-116.63200000000003
20
-35.167600000000007
0
LWPOLYLINE
5
112
100
AcDbEntity
8
0
100
AcDbPolyline
90
8
70
1
43
0.0
10
-80.975527123600017
20
-35.667600000000036
42
-0.41421356237301177
10
-81.475527123600017
20
-35.167600000000007
10
-81.475527123600017
20
-22.168299999999999
42
-0.4142135623730378
10
-80.975527123600017
20
-21.668300000000002
10
-80.924527123600001
20
-21.668299999999995
42
-0.4142135623729884
10
-80.424527123600029
20
-22.168299999999999
10
-80.424527123600015
20
-35.167600000000007
42
-0.41421356237305601
10
-80.924527123600015
20
-35.667600000000022
0
LWPOLYLINE
5
113
100
AcDbEntity
8
0
100
AcDbPolyline
90
8
70
1
43
0.0
10
-154.23200000000003
20
-35.667600000000007
10
-141.232
20
-35.667600000000007
42
0.41421356237308721
10
-140.732
20
-35.167600000000007
10
-140.732
20
-22.168299999999999
42
0.41421356237309243
10
-141.232
20
-21.668299999999995
10
-154.23200000000006
20
-21.668300000000016
42
0.4142135623730222
10
-154.732
20
-22.168299999999999
10
-154.732
20
-35.167600000000007
42
0.4142135623730378
0
LWPOLYLINE
5
114
100
AcDbEntity
8
0
100
AcDbPolyline
90
4
70
1
43
0.0
10
-208.86956666670002
20
-94.817600000000013
10
-298.61935000000005
20
-94.817600000000027
42
0.99999999999999989
10
-298.61935000000005
20
-96.817600000000027
10
-208.86956666670002
20
-96.817600000000041
42
0.99999999999999989
0
LWPOLYLINE
5
115
100
AcDbEntity
8
0
100
AcDbPolyline
90
8
70
1
43
0.0
10
-233.48300000000009
20
-35.667599999999993
10
-233.4320000000001
20
-35.667600000000029
42
0.41421356237304563
10
-232.93200000000013
20
-35.167600000000007
10
-232.9320000000001
20
-22.168299999999999
42
0.41421356237310802
10
-233.4320000000001
20
-21.668299999999977
10
-233.48300000000009
20
-21.668300000000002
42
0.41421356237312884
10
-233.98300000000009
20
-22.168299999999999
10
-233.98300000000009
20
-35.167600000000007
42
0.41421356237301177
0
LWPOLYLINE
5
116
100
AcDbEntity
8
0
100
AcDbPolyline
90
8
70
1
43
0.0
10
-197.88200000000003
20
-35.167600000000007
42
-0.41421356237313928
10
-198.38200000000003
20
-35.667600000000007
10
-211.38199999999998
20
-35.6676
42
-0.4142135623732095
10
-211.88200000000001
20
-35.167600000000007
10
-211.88200000000001
20
-22.168299999999999
42
-0.41421356237314444
10
-211.38200000000001
20
-21.668299999999995
10
-198.38200000000003
20
-21.668299999999977
42
-0.41421356237314444
10
-197.88200000000003
20
-22.168299999999999
0
LWPOLYLINE
5
117
100
AcDbEntity
8
0
100
AcDbPolyline
90
8
70
1
43
0.0
10
-288.87000000000006
20
-40.718299999999992
10
-301.86900000000009
20
-40.718300000000042
42
0.41421356237313145
10
-302.3690000000002
20
-41.218299999999999
10
-302.36900000000014
20
-54.217599999999997
42
0.41421356237317308
10
-301.86900000000009
20
-54.717599999999997
10
-288.87000000000006
20
-54.717599999999997
42
0.414213562373069
10
-288.37
20
-54.217599999999997
10
-288.37000000000006
20
-41.218299999999999
42
0.41421356237313667
0
LWPOLYLINE
5
118
100
AcDbEntity
8
0
100
AcDbPolyline
90
8
70
1
43
0.0
10
-88.344700000000032
20
-73.267600000000016
42
-0.4142135623730534
10
-88.844699999999989
20
-73.767600000000016
10
-101.84399999999999
20
-73.76760000000003
42
-0.41421356237311585
10
-102.34400000000001
20
-73.267600000000016
10
-102.34400000000001
20
-60.268300000000004
42
-0.41421356237314183
10
-101.84399999999999
20
-59.768299999999996
10
-88.84470000000006
20
-59.768299999999996
42
-0.4142135623730846
10
-88.344700000000032
20
-60.268300000000004
0
LWPOLYLINE
5
119
100
AcDbEntity
8
0
100
AcDbPolyline
90
8
70
1
43
0.0
10
-31.694700000000005
20
-59.768300000000011
42
-0.41421356237311063
10
-31.194700000000005
20
-60.268300000000004
10
-31.194699999999997
20
-73.267600000000016
42
-0.41421356237309503
10
-31.694700000000005
20
-73.767600000000016
10
-44.694000000000003
20
-73.767600000000016
42
-0.41421356237313667
10
-45.194000000000003
20
-73.267600000000016
10
-45.194000000000003
20
-60.268300000000004
42
-0.41421356237313667
10
-44.694000000000003
20
-59.768300000000004
0
LWPOLYLINE
5
120
100
AcDbEntity
8
0
100
AcDbPolyline
90
8
70
1
43
0.0
10
-6.1259000000000068
20
-35.167600000000014
42
-0.41421356237306772
10
-6.6259000000000157
20
-35.667600000000007
10
-12.624900000000032
20
-35.667600000000007
42
-0.41421356237309892
10
-13.124900000000029
20
-35.167600000000007
10
-13.124900000000036
20
-20.698300000000003
42
-0.41421356237310153
10
-12.624900000000016
20
-20.198299999999989
10
-6.6259000000000512
20
-20.198300000000003
42
-0.41421356237311585
10
-6.1259000000000174
20
-20.6983
0
LWPOLYLINE
5
121
100
AcDbEntity
8
0
100
AcDbPolyline
90
8
70
1
43
0.0
10
-54.719000000000023
20
-79.318299999999979
42
-0.41421356237313667
10
-54.219000000000023
20
-78.818299999999979
10
-41.219700000000046
20
-78.818299999999979
42
-0.41421356237313145
10
-40.719700000000017
20
-79.318299999999979
10
-40.719700000000017
20
-92.317599999999942
42
-0.41421356237304818
10
-41.219700000000017
20
-92.817600000000027
10
-54.219000000000044
20
-92.817600000000027
42
-0.41421356237301699
10
-54.719000000000023
20
-92.317600000000013
0
LWPOLYLINE
5
122
100
AcDbEntity
8
0
100
AcDbPolyline
90
8
70
1
43
0.0
10
-226.45700000000005
20
-54.217599999999997
42
-0.41421356237313667
10
-226.95700000000005
20
-54.717599999999997
10
-239.95700000000005
20
-54.717599999999955
42
-0.41421356237312623
10
-240.45700000000011
20
-54.217599999999997
10
-240.45700000000011
20
-41.218299999999999
42
-0.41421356237307422
10
-239.95700000000005
20
-40.718299999999992
10
-226.95700000000005
20
-40.718299999999985
42
-0.41421356237318346
10
-226.45700000000005
20
-41.218299999999999
0
LWPOLYLINE
5
123
100
AcDbEntity
8
0
100
AcDbPolyline
90
8
70
1
43
0.0
10
-21.669700000000063
20
-92.317599999999999
42
-0.41421356237315488
10
-22.169700000000013
20
-92.817600000000027
10
-35.169000000000032
20
-92.817600000000027
42
-0.41421356237313145
10
-35.669000000000011
20
-92.317599999999999
10
-35.669000000000054
20
-79.318299999999979
42
-0.41421356237304563
10
-35.169000000000032
20
-78.818299999999979
10
-22.169699999999999
20
-78.818299999999994
42
-0.41421356237311585
10
-21.66970000000001
20
-79.318299999999979
0
LWPOLYLINE
5
124
100
AcDbEntity
8
0
100
AcDbPolyline
90
8
70
1
43
0.0
10
-5.0009100000000117
20
-16.117800000000013
42
-0.4142135623730937
10
-5.5009100000000188
20
-16.617800000000013
10
-20.881700000000016
20
-16.617799999999995
42
-0.41421356237312101
10
-21.381700000000023
20
-16.117800000000006
10
-21.381700000000023
20
-3.1182699999999919
42
-0.41421356237308005
10
-20.881700000000016
20
-2.6182699999999932
10
-5.5009099999999833
20
-2.6182699999999932
42
-0.41421356237307455
10
-5.0009100000000206
20
-3.1182699999999963
0
LWPOLYLINE
5
125
100
AcDbEntity
8
0
100
AcDbPolyline
90
8
70
1
43
0.0
10
-2.6196500000000364
20
-92.317599999999999
42
-0.41421356237305273
10
-3.1196500000000249
20
-92.817600000000027
10
-16.119200000000049
20
-92.817600000000027
42
-0.41421356237314055
10
-16.619200000000014
20
-92.317599999999999
10
-16.619200000000031
20
-79.318299999999979
42
-0.41421356237310414
10
-16.119200000000035
20
-78.818299999999979
10
-3.1196500000000427
20
-78.818299999999979
42
-0.41421356237311585
10
-2.619650000000024
20
-79.318299999999979
0
LWPOLYLINE
5
126
100
AcDbEntity
8
0
100
AcDbPolyline
90
8
70
1
43
0.0
10
-87.556500000000014
20
-54.717599999999997
10
-74.557199999999995
20
-54.717599999999997
42
0.41421356237310025
10
-74.057199999999995
20
-54.217599999999997
10
-74.057199999999995
20
-41.218299999999999
42
0.41421356237310025
10
-74.557199999999995
20
-40.718299999999999
10
-87.556500000000014
20
-40.718299999999992
42
0.41421356237304818
10
-88.0565
20
-41.218299999999999
10
-88.0565
20
-54.217599999999997
42
0.41421356237310025
0
LWPOLYLINE
5
127
100
AcDbEntity
8
0
100
AcDbPolyline
90
8
70
1
43
0.0
10
-49.956500000000013
20
-41.218299999999999
42
-0.41421356237309503
10
-49.456500000000013
20
-40.718299999999999
10
-36.457200000000007
20
-40.718299999999999
42
-0.41421356237308982
10
-35.9572
20
-41.218299999999999
10
-35.9572
20
-54.21759999999999
42
-0.41421356237308721
10
-36.4572
20
-54.717599999999997
10
-49.456500000000005
20
-54.717599999999997
42
-0.41421356237310025
10
-49.956500000000013
20
-54.217599999999997
0
LWPOLYLINE
5
128
100
AcDbEntity
8
0
100
AcDbPolyline
90
8
70
1
43
0.0
10
-63.744000000000014
20
-73.767600000000016
10
-50.744700000000016
20
-73.767600000000016
42
0.41421356237313145
10
-50.244700000000009
20
-73.267600000000016
10
-50.244700000000002
20
-60.268300000000004
42
0.41421356237311585
10
-50.744700000000016
20
-59.768300000000004
10
-63.744000000000014
20
-59.768300000000004
42
0.41421356237311063
10
-64.244
20
-60.268300000000004
10
-64.244
20
-73.267600000000016
42
0.41421356237311063
0
LWPOLYLINE
5
129
100
AcDbEntity
8
0
100
AcDbPolyline
90
8
70
1
43
0.0
10
-203.1450000000001
20
-59.768299999999996
10
-216.14400000000003
20
-59.768299999999982
42
0.41421356237312101
10
-216.64400000000001
20
-60.268300000000004
10
-216.64400000000001
20
-73.267600000000016
42
0.4142135623730534
10
-216.14400000000003
20
-73.76760000000003
10
-203.14500000000012
20
-73.767600000000016
42
0.41421356237312623
10
-202.64500000000004
20
-73.267600000000016
10
-202.64500000000004
20
-60.268300000000004
42
0.41421356237323032
0
LWPOLYLINE
5
130
100
AcDbEntity
8
0
100
AcDbPolyline
90
8
70
1
43
0.0
10
-219.0883271236001
20
-73.76760000000003
42
-0.41421356237307944
10
-219.58832712360015
20
-73.267600000000016
10
-219.58832712360015
20
-60.268300000000004
42
-0.41421356237309503
10
-219.0883271236001
20
-59.768300000000025
10
-219.03732712360005
20
-59.768299999999982
42
-0.41421356237323032
10
-218.53732712359999
20
-60.268300000000004
10
-218.53732712359999
20
-73.267600000000016
42
-0.41421356237314183
10
-219.03732712359999
20
-73.767600000000016
0
LWPOLYLINE
5
131
100
AcDbEntity
8
0
100
AcDbPolyline
90
8
70
1
43
0.0
10
-269.32000000000005
20
-16.117800000000006
42
-0.41421356237313017
10
-269.82000000000005
20
-16.617800000000003
10
-282.81900000000007
20
-16.617800000000031
42
-0.41421356237323292
10
-283.31900000000013
20
-16.117799999999999
10
-283.31900000000013
20
-3.1182700000000008
42
-0.41421356237310608
10
-282.81900000000013
20
-2.6182699999999741
10
-269.82000000000005
20
-2.6182699999999084
42
-0.41421356237295781
10
-269.32000000000011
20
-3.1182700000000008
0
LWPOLYLINE
5
132
100
AcDbEntity
8
0
100
AcDbPolyline
90
42
70
1
43
0.0
10
-281.93800000000027
20
-66.1434
10
-281.9380000000001
20
-72.143100000000004
42
0.41421356237309503
10
-281.43800000000005
20
-72.643099999999976
10
-279.05700000000013
20
-72.643100000000075
42
-0.4142135623731783
10
-278.55700000000013
20
-73.143100000000004
10
-278.55700000000013
20
-73.267600000000016
42
0.41421356237312101
10
-278.05700000000002
20
-73.767600000000002
10
-265.05700000000002
20
-73.767599999999987
42
0.41421356237296497
10
-264.55700000000007
20
-73.267600000000016
10
-264.55700000000007
20
-60.268300000000004
42
0.41421356237304818
10
-265.05700000000002
20
-59.768299999999996
10
-266.43799999999999
20
-59.768300000000004
42
-0.41421356237299617
10
-266.93799999999999
20
-59.268300000000025
10
-266.93800000000005
20
-55.217600000000004
42
-0.41421356237313145
10
-266.43799999999999
20
-54.717600000000004
10
-246.00700000000003
20
-54.717599999999997
42
0.41421356237310025
10
-245.50700000000012
20
-54.217599999999997
10
-245.50700000000009
20
-41.218299999999999
42
0.41421356237300139
10
-246.00700000000003
20
-40.718300000000013
10
-248.51330000000004
20
-40.718300000000013
42
-0.4142135623730534
10
-249.01329999999999
20
-40.218300000000006
10
-249.01330000000002
20
-39.7485
42
0.41421356237304818
10
-249.51329999999999
20
-39.248499999999979
10
-255.51230000000004
20
-39.248500000000007
42
0.41421356237309764
10
-256.01229999999998
20
-39.7485
10
-256.01230000000004
20
-40.218300000000006
42
-0.41421356237316265
10
-256.51230000000004
20
-40.718299999999985
10
-272.31380000000007
20
-40.718299999999942
42
-0.41421356237290252
10
-272.81380000000007
20
-40.218299999999907
10
-272.81380000000007
20
-39.7485
42
0.41421356237309764
10
-273.31380000000001
20
-39.2485
10
-279.31280000000004
20
-39.2485
42
0.41421356237316787
10
-279.81279999999998
20
-39.7485
10
-279.81279999999998
20
-41.343200000000017
42
-0.41421356237315227
10
-280.31280000000004
20
-41.843200000000053
10
-281.43800000000005
20
-41.843200000000003
42
0.41421356237329793
10
-281.93800000000027
20
-42.343200000000003
10
-281.9380000000001
20
-48.3429
42
0.414213562373069
10
-281.43800000000005
20
-48.842899999999993
42
-0.41421356237307944
10
-280.93799999999999
20
-49.342900000000007
10
-280.93800000000005
20
-65.143400000000014
42
-0.41421356237300661
10
-281.43800000000005
20
-65.6434
42
0.41421356237329793
0
LWPOLYLINE
5
133
100
AcDbEntity
8
0
100
AcDbPolyline
90
8
70
1
43
0.0
10
-197.09400000000011
20
-73.767600000000044
42
-0.41421356237312623
10
-197.59400000000005
20
-73.267600000000016
10
-197.59400000000005
20
-60.268300000000004
42
-0.41421356237314183
10
-197.09400000000005
20
-59.768300000000004
10
-184.09500000000008
20
-59.768300000000011
42
-0.41421356237323032
10
-183.59500000000003
20
-60.268300000000004
10
-183.59500000000003
20
-73.267600000000016
42
-0.41421356237312623
10
-184.09500000000011
20
-73.767600000000016
0
LWPOLYLINE
5
134
100
AcDbEntity
8
0
100
AcDbPolyline
90
8
70
1
43
0.0
10
-240.745
20
-73.267600000000016
10
-240.745
20
-60.268300000000004
42
0.41421356237323032
10
-241.245
20
-59.768299999999996
10
-254.24400000000009
20
-59.768299999999982
42
0.41421356237310025
10
-254.74400000000003
20
-60.268300000000004
10
-254.74400000000003
20
-73.267600000000016
42
0.4142135623730534
10
-254.24400000000006
20
-73.76760000000003
10
-241.245
20
-73.767600000000016
42
0.41421356237314183
0
LWPOLYLINE
5
135
100
AcDbEntity
8
0
100
AcDbPolyline
90
8
70
1
43
0.0
10
-69.29470000000002
20
-73.267600000000016
10
-69.29470000000002
20
-60.268300000000004
42
0.41421356237312101
10
-69.794700000000034
20
-59.768300000000004
10
-82.793999999999983
20
-59.768299999999996
42
0.414213562373069
10
-83.293999999999954
20
-60.268300000000004
10
-83.293999999999997
20
-73.267600000000016
42
0.41421356237299617
10
-82.793999999999983
20
-73.76760000000003
10
-69.794700000000006
20
-73.767600000000016
42
0.41421356237313667
0
LWPOLYLINE
5
136
100
AcDbEntity
8
0
100
AcDbPolyline
90
8
70
1
43
0.0
10
-23.762900000000041
20
-41.218299999999992
42
-0.41421356237305601
10
-23.26290000000002
20
-40.718299999999992
10
-5.5009099999999833
20
-40.718299999999999
42
-0.41421356237308332
10
-5.0009100000000331
20
-41.218299999999992
10
-5.0009100000000135
20
-54.21759999999999
42
-0.41421356237309892
10
-5.5009100000000188
20
-54.717600000000026
10
-23.262900000000037
20
-54.717599999999997
42
-0.41421356237307422
10
-23.762900000000005
20
-54.217600000000004
0
LWPOLYLINE
5
137
100
AcDbEntity
8
0
100
AcDbPolyline
90
25
70
1
43
0.0
10
-288.03876854872283
20
-84.59497409504678
10
-287.76756026518808
20
-84.323765811411931
42
0.41421356237234702
10
-287.76756026518711
20
-83.475237673989099
10
-292.36358008109954
20
-78.879217858051135
10
-292.36358008110005
20
-77.032548296300007
42
0.41421356237310375
10
-292.96358008110008
20
-76.432548296299942
10
-293.30444884450003
20
-76.432548296300027
42
0.41421356237326412
10
-293.90444884450011
20
-77.032548296300007
10
-293.90444884450005
20
-83.219134090853913
10
-298.79245629138808
20
-78.331126643988085
42
0.41421356237284979
10
-299.64098442881163
20
-78.331126643987659
10
-299.91219271251447
20
-78.602334927689952
42
0.4142135623731073
10
-299.91219271251009
20
-79.450863065114447
10
-294.28085280321386
20
-85.082202974337221
10
-297.19087125761916
20
-86.439166865017413
10
-298.02246665858809
20
-85.60757146398808
42
0.4142135623731073
10
-298.8709947960121
20
-85.60757146398808
10
-299.12970307971204
20
-85.866279747687997
42
0.41421356237320539
10
-299.12970307971199
20
-86.714807885112037
10
-293.744613887512
20
-92.099897077312093
42
0.19891236737970233
10
-293.32034981879991
20
-92.27563300860011
10
-292.96358008110008
20
-92.275633008600039
42
0.41421356237326851
10
-292.36358008110005
20
-91.675633008600016
10
-292.36358008110005
20
-81.118690700245025
10
-288.8872966862121
20
-84.59497409511188
42
0.41421356241815616
0
LWPOLYLINE
5
138
100
AcDbEntity
8
0
100
AcDbPolyline
90
4
70
1
43
0.0
10
-304.36935000000005
20
-92.567600000000056
42
-0.99999999999999989
10
-306.36935
20
-92.567600000000013
10
-306.36935000000005
20
-2.8682699999999968
42
-0.99999999999999989
10
-304.36935000000005
20
-2.8682700000000061
0
LWPOLYLINE
5
139
100
AcDbEntity
8
0
100
AcDbPolyline
90
8
70
1
43
0.0
10
-108.99932712360001
20
-54.217599999999997
42
-0.41421356237304302
10
-109.49932712360004
20
-54.717600000000004
10
-109.55032712360008
20
-54.717599999999997
42
-0.41421356237305862
10
-110.05032712360007
20
-54.217599999999997
10
-110.05032712360007
20
-41.218299999999999
42
-0.41421356237305862
10
-109.55032712360008
20
-40.718299999999999
10
-109.49932712360004
20
-40.718300000000013
42
-0.41421356237311585
10
-108.99932712360001
20
-41.218299999999999
0
LWPOLYLINE
5
140
100
AcDbEntity
8
0
100
AcDbPolyline
90
8
70
1
43
0.0
10
-204.24932712360004
20
-54.217599999999997
42
-0.41421356237316265
10
-204.74932712360004
20
-54.717599999999969
10
-204.80032712360011
20
-54.717599999999955
42
-0.41421356237321472
10
-205.30032712360011
20
-54.217600000000026
10
-205.30032712360011
20
-41.218299999999964
42
-0.41421356237308982
10
-204.80032712360011
20
-40.718300000000028
10
-204.74932712360001
20
-40.71829999999995
42
-0.41421356237307944
10
-204.24932712360004
20
-41.218299999999964
0
LWPOLYLINE
5
141
100
AcDbEntity
8
0
100
AcDbPolyline
90
8
70
1
43
0.0
10
-243.0080000000001
20
-54.717599999999955
42
-0.41421356237318868
10
-243.50800000000004
20
-54.217599999999997
10
-243.50800000000007
20
-41.218299999999999
42
-0.41421356237311063
10
-243.00800000000012
20
-40.718299999999978
10
-242.95699999999999
20
-40.718299999999985
42
-0.41421356237318346
10
-242.45699999999999
20
-41.218299999999999
10
-242.45699999999999
20
-54.21759999999999
42
-0.41421356237306384
10
-242.95699999999997
20
-54.717599999999976
0
LWPOLYLINE
5
142
100
AcDbEntity
8
0
100
AcDbPolyline
90
8
70
1
43
0.0
10
-180.98832712360007
20
-73.767600000000044
42
-0.41421356237312623
10
-181.48832712360004
20
-73.267600000000016
10
-181.48832712360004
20
-60.268300000000004
42
-0.41421356237314183
10
-180.98832712360004
20
-59.768300000000004
10
-180.93732712360008
20
-59.768299999999982
42
-0.41421356237298057
10
-180.43732712360008
20
-60.268300000000004
10
-180.43732712360008
20
-73.267600000000016
42
-0.41421356237313145
10
-180.93732712360008
20
-73.767600000000016
0
LWPOLYLINE
5
143
100
AcDbEntity
8
0
100
AcDbPolyline
90
8
70
1
43
0.0
10
-235.69400000000002
20
-60.268300000000004
42
-0.41421356237314183
10
-235.19400000000002
20
-59.768300000000004
10
-222.19500000000005
20
-59.768299999999982
42
-0.41421356237323032
10
-221.69499999999999
20
-60.268300000000004
10
-221.69499999999999
20
-73.267600000000016
42
-0.41421356237314183
10
-222.19499999999999
20
-73.767600000000016
10
-235.19399999999996
20
-73.767600000000044
42
-0.41421356237314705
10
-235.69400000000002
20
-73.267600000000016
0
LWPOLYLINE
5
144
100
AcDbEntity
8
0
100
AcDbPolyline
90
8
70
1
43
0.0
10
-145.99500000000003
20
-59.768300000000004
42
-0.41421356237302737
10
-145.495
20
-60.268300000000004
10
-145.495
20
-73.267600000000016
42
-0.41421356237312623
10
-145.99500000000003
20
-73.76760000000003
10
-158.994
20
-73.76760000000003
42
-0.41421356237311585
10
-159.494
20
-73.267600000000016
10
-159.494
20
-60.268300000000004
42
-0.41421356237314183
10
-158.994
20
-59.768299999999996
0
LWPOLYLINE
5
145
100
AcDbEntity
8
0
100
AcDbPolyline
90
8
70
1
43
0.0
10
-164.54499999999996
20
-73.267600000000016
10
-164.54499999999999
20
-60.268300000000004
42
0.41421356237310542
10
-165.04500000000004
20
-59.768300000000011
10
-178.04400000000004
20
-59.768300000000004
42
0.41421356237314183
10
-178.54400000000004
20
-60.268300000000004
10
-178.54400000000004
20
-73.267600000000016
42
0.41421356237314705
10
-178.04400000000004
20
-73.76760000000003
10
-165.04500000000004
20
-73.767600000000016
42
0.41421356237313145
0
LWPOLYLINE
5
146
100
AcDbEntity
8
0
100
AcDbPolyline
90
8
70
1
43
0.0
10
-169.8070000000001
20
-40.718299999999999
10
-182.80700000000007
20
-40.718299999999999
42
0.41421356237313667
10
-183.30700000000007
20
-41.218299999999999
10
-183.30700000000007
20
-54.217599999999997
42
0.41421356237318868
10
-182.80700000000007
20
-54.717599999999997
10
-169.8070000000001
20
-54.717599999999997
42
0.41421356237307422
10
-169.30700000000004
20
-54.217599999999997
10
-169.30700000000004
20
-41.218299999999999
42
0.41421356237307422
0
LWPOLYLINE
5
147
100
AcDbEntity
8
0
100
AcDbPolyline
90
8
70
1
43
0.0
10
-243.12600000000003
20
-35.167600000000007
42
-0.41421356237294155
10
-243.626
20
-35.667600000000007
10
-256.625
20
-35.667600000000085
42
-0.41421356237292856
10
-257.125
20
-35.167600000000007
10
-257.12500000000006
20
-22.168299999999999
42
-0.41421356237305079
10
-256.625
20
-21.66829999999997
10
-243.626
20
-21.668299999999995
42
-0.41421356237313406
10
-243.126
20
-22.168299999999999
0
LWPOLYLINE
5
148
100
AcDbEntity
8
0
100
AcDbPolyline
90
20
70
1
43
0.0
10
-124.5620000000001
20
-2.6182699999999937
10
-149.57515000000004
20
-2.6182700000000203
42
0.41421356237312756
10
-150.07515000000006
20
-3.1182700000000008
10
-150.07515000000006
20
-8.1180350000000079
42
-0.41421356237308787
10
-150.57515000000004
20
-8.6180350000000061
10
-173.07615000000004
20
-8.6180350000000061
42
0.99999999999999989
10
-173.07615000000004
20
-10.618034999999999
10
-150.57515000000001
20
-10.618034999999995
42
-0.41421356237310281
10
-150.07515000000006
20
-11.118034999999997
10
-150.07515000000006
20
-16.117799999999999
42
0.41421356237308593
10
-149.57515000000004
20
-16.617800000000003
10
-124.5620000000001
20
-16.617800000000006
42
0.41421356237307161
10
-124.06200000000004
20
-16.117799999999995
10
-124.06200000000001
20
-11.118034999999995
42
-0.41421356237308721
10
-123.56200000000004
20
-10.618034999999999
10
-99.076149999999998
20
-10.618035000000001
42
0.99999999999999989
10
-99.076149999999998
20
-8.6180350000000061
10
-123.56200000000004
20
-8.6180349999999954
42
-0.41421356237314577
10
-124.06200000000001
20
-8.1180350000000079
10
-124.06200000000001
20
-3.1182700000000008
42
0.41421356237313861
0
LWPOLYLINE
5
149
100
AcDbEntity
8
0
100
AcDbPolyline
90
8
70
1
43
0.0
10
-113.75999999999999
20
-92.317600000000013
42
-0.41421356237313667
10
-114.25999999999999
20
-92.817599999999999
10
-114.31100000000001
20
-92.817599999999999
42
-0.41421356237313667
10
-114.81099999999999
20
-92.317600000000013
10
-114.81100000000001
20
-79.318300000000022
42
-0.41421356237310025
10
-114.31100000000001
20
-78.818300000000008
10
-114.26000000000002
20
-78.818300000000022
42
-0.41421356237312101
10
-113.75999999999998
20
-79.318300000000022
0
LWPOLYLINE
5
150
100
AcDbEntity
8
0
100
AcDbPolyline
90
8
70
1
43
0.0
10
-185.69900000000004
20
-44.217600000000033
10
-185.75000000000003
20
-44.217600000000026
42
0.41421356237307944
10
-186.25000000000006
20
-44.71760000000004
10
-186.25
20
-50.717600000000033
42
0.41421356237306384
10
-185.75000000000003
20
-51.21759999999999
10
-185.69900000000004
20
-51.217600000000004
42
0.41421356237310025
10
-185.19900000000001
20
-50.717600000000019
10
-185.19900000000001
20
-44.71760000000004
42
0.41421356237323032
0
LWPOLYLINE
5
151
100
AcDbEntity
8
0
100
AcDbPolyline
90
8
70
1
43
0.0
10
-228.06199999999995
20
-92.317600000000013
42
-0.41421356237313667
10
-228.56199999999998
20
-92.817600000000027
10
-228.613
20
-92.817600000000027
42
-0.41421356237307422
10
-229.11299999999997
20
-92.317600000000013
10
-229.11300000000006
20
-79.318300000000022
42
-0.41421356237312623
10
-228.613
20
-78.818300000000008
10
-228.56199999999998
20
-78.818299999999994
42
-0.41421356237314183
10
-228.06199999999995
20
-79.318300000000022
0
LWPOLYLINE
5
152
100
AcDbEntity
8
0
100
AcDbPolyline
90
8
70
1
43
0.0
10
-209.01199999999994
20
-92.317600000000013
42
-0.41421356237313667
10
-209.51199999999997
20
-92.817600000000027
10
-209.56299999999999
20
-92.817600000000027
42
-0.41421356237307422
10
-210.06299999999996
20
-92.317600000000013
10
-210.06300000000005
20
-79.318300000000022
42
-0.41421356237312623
10
-209.56299999999999
20
-78.818300000000008
10
-209.51199999999997
20
-78.818299999999994
42
-0.41421356237314183
10
-209.01199999999994
20
-79.318300000000022
0
LWPOLYLINE
5
153
100
AcDbEntity
8
0
100
AcDbPolyline
90
8
70
1
43
0.0
10
-104.73699999999999
20
-59.768300000000025
10
-104.788
20
-59.768300000000011
42
0.41421356237310025
10
-105.28800000000001
20
-60.268300000000025
10
-105.28799999999998
20
-73.267600000000016
42
0.41421356237311063
10
-104.788
20
-73.767600000000016
10
-104.73699999999997
20
-73.767600000000016
42
0.41421356237311063
10
-104.23699999999998
20
-73.267600000000016
10
-104.23699999999997
20
-60.268300000000025
42
0.41421356237312101
0
LWPOLYLINE
5
154
100
AcDbEntity
8
0
100
AcDbPolyline
90
8
70
1
43
0.0
10
-189.9620000000001
20
-92.317600000000013
42
-0.41421356237313667
10
-190.4620000000001
20
-92.817600000000027
10
-190.51300000000012
20
-92.817600000000027
42
-0.41421356237307422
10
-191.01300000000009
20
-92.317600000000013
10
-191.01300000000015
20
-79.318300000000022
42
-0.41421356237312623
10
-190.51300000000012
20
-78.818300000000008
10
-190.4620000000001
20
-78.818299999999994
42
-0.41421356237314183
10
-189.9620000000001
20
-79.318300000000022
0
LWPOLYLINE
5
155
100
AcDbEntity
8
0
100
AcDbPolyline
90
8
70
1
43
0.0
10
-238.63800000000012
20
-63.767950000000013
42
-0.41421356237307944
10
-238.13800000000009
20
-63.267949999999999
10
-238.0870000000001
20
-63.267950000000027
42
-0.41421356237323032
10
-237.58700000000005
20
-63.767950000000013
10
-237.58700000000005
20
-69.767949999999985
42
-0.41421356237309503
10
-238.0870000000001
20
-70.267949999999971
10
-238.13800000000009
20
-70.267949999999985
42
-0.41421356237306384
10
-238.63800000000003
20
-69.767949999999999
0
LWPOLYLINE
5
156
100
AcDbEntity
8
0
100
AcDbPolyline
90
8
70
1
43
0.0
10
-85.68670000000003
20
-59.768300000000025
10
-85.737700000000032
20
-59.768300000000011
42
0.41421356237310025
10
-86.237700000000046
20
-60.268300000000025
10
-86.237700000000018
20
-73.267600000000016
42
0.41421356237311063
10
-85.737700000000032
20
-73.767600000000016
10
-85.686700000000002
20
-73.767600000000016
42
0.41421356237311063
10
-85.186700000000016
20
-73.267600000000016
10
-85.186700000000002
20
-60.268300000000025
42
0.41421356237312101
0
LWPOLYLINE
5
157
100
AcDbEntity
8
0
100
AcDbPolyline
90
8
70
1
43
0.0
10
-76.16170000000001
20
-78.818299999999951
42
-0.41421356237311585
10
-75.661699999999982
20
-79.318299999999965
10
-75.661699999999996
20
-92.317599999999942
42
-0.41421356237310025
10
-76.161699999999996
20
-92.817599999999942
10
-76.212700000000027
20
-92.817599999999942
42
-0.41421356237309503
10
-76.712700000000012
20
-92.317599999999956
10
-76.712700000000012
20
-79.318299999999965
42
-0.41421356237311063
10
-76.212700000000012
20
-78.818299999999951
0
LWPOLYLINE
5
158
100
AcDbEntity
8
0
100
AcDbPolyline
90
8
70
1
43
0.0
10
-19.062700000000067
20
-92.817599999999985
42
-0.41421356237309892
10
-19.562700000000056
20
-92.317599999999999
10
-19.562700000000071
20
-79.318299999999994
42
-0.41421356237309764
10
-19.062700000000067
20
-78.818299999999994
10
-19.011700000000076
20
-78.818299999999994
42
-0.41421356237312756
10
-18.511700000000037
20
-79.318299999999994
10
-18.511700000000033
20
-92.317599999999999
42
-0.41421356237308721
10
-19.011700000000044
20
-92.817599999999985
0
LWPOLYLINE
5
159
100
AcDbEntity
8
0
100
AcDbPolyline
90
8
70
1
43
0.0
10
-94.710300000000046
20
-92.317600000000013
42
-0.41421356237312623
10
-95.210300000000018
20
-92.817599999999999
10
-95.261300000000034
20
-92.817600000000027
42
-0.41421356237312623
10
-95.761300000000034
20
-92.317600000000013
10
-95.761300000000034
20
-79.318300000000022
42
-0.41421356237307944
10
-95.261300000000034
20
-78.818300000000008
10
-95.210300000000032
20
-78.818300000000022
42
-0.41421356237311585
10
-94.710300000000004
20
-79.318300000000022
0
LWPOLYLINE
5
160
100
AcDbEntity
8
0
100
AcDbPolyline
90
4
70
1
43
0.0
10
-96.119433333300037
20
-96.817600000000041
42
-0.99999999999999989
10
-96.119433333300037
20
-94.817600000000013
10
-6.3696500000000178
20
-94.817600000000013
42
-0.99999999999999989
10
-6.3696500000000356
20
-96.817599999999999
0
LWPOLYLINE
5
161
100
AcDbEntity
8
0
100
AcDbPolyline
90
4
70
1
43
0.0
10
-197.36921666669986
20
-96.817600000000041
10
-107.61943333330008
20
-96.817600000000056
42
0.99999999999999989
10
-107.61943333330001
20
-94.817599999999956
10
-197.3692166667002
20
-94.817599999999942
42
0.99999999999999989
0
LWPOLYLINE
5
162
100
AcDbEntity
8
0
100
AcDbPolyline
90
8
70
1
43
0.0
10
-212.6580000000001
20
-3.1184999999999952
42
-0.41421356237307161
10
-212.15800000000004
20
-2.6184999999999969
10
-212.10700000000003
20
-2.6184999999999881
42
-0.41421356237313667
10
-211.60700000000003
20
-3.1184999999999952
10
-211.60700000000003
20
-16.117800000000003
42
-0.41421356237315876
10
-212.10700000000003
20
-16.617799999999988
10
-212.15800000000004
20
-16.617800000000006
42
-0.41421356237295193
10
-212.6580000000001
20
-16.117799999999992
0
LWPOLYLINE
5
163
100
AcDbEntity
8
0
100
AcDbPolyline
90
8
70
1
43
0.0
10
-193.39400000000001
20
-3.1184999999999974
42
-0.41421356237307161
10
-192.89399999999998
20
-2.6184999999999992
10
-192.84299999999996
20
-2.6184999999999903
42
-0.41421356237313667
10
-192.34299999999993
20
-3.1184999999999974
10
-192.34299999999993
20
-16.117800000000013
42
-0.41421356237315488
10
-192.84299999999996
20
-16.617799999999988
10
-192.89399999999998
20
-16.617800000000006
42
-0.41421356237295193
10
-193.39400000000001
20
-16.117799999999995
0
LWPOLYLINE
5
164
100
AcDbEntity
8
0
100
AcDbPolyline
90
8
70
1
43
0.0
10
-2.3429099999999989
20
-2.6185000000000036
42
-0.41421356237298274
10
-1.8429100000000229
20
-3.1185000000000018
10
-1.8429100000000087
20
-16.117800000000013
42
-0.41421356237305651
10
-2.3429100000000167
20
-16.617800000000024
10
-2.3939100000000124
20
-16.617800000000042
42
-0.41421356237301521
10
-2.893910000000016
20
-16.117800000000013
10
-2.8939100000000115
20
-3.1184999999999974
42
-0.41421356237306661
10
-2.3939100000000044
20
-2.6185000000000036
0
LWPOLYLINE
5
165
100
AcDbEntity
8
0
100
AcDbPolyline
90
8
70
1
43
0.0
10
-166.64900000000006
20
-44.217600000000004
10
-166.70000000000005
20
-44.217599999999997
42
0.41421356237307944
10
-167.2000000000001
20
-44.717600000000019
10
-167.20000000000002
20
-50.717600000000004
42
0.4142135623730846
10
-166.70000000000005
20
-51.217599999999962
10
-166.64900000000006
20
-51.217599999999976
42
0.41421356237309503
10
-166.14900000000003
20
-50.71759999999999
10
-166.14900000000003
20
-44.717600000000019
42
0.41421356237316787
0
LWPOLYLINE
5
166
100
AcDbEntity
8
0
100
AcDbPolyline
90
8
70
1
43
0.0
10
-148.15000000000003
20
-44.717600000000019
10
-148.14999999999998
20
-50.717600000000004
42
0.41421356237303258
10
-147.65000000000001
20
-51.217599999999962
10
-147.59900000000005
20
-51.217599999999976
42
0.41421356237313145
10
-147.09899999999999
20
-50.71759999999999
10
-147.09899999999999
20
-44.717600000000019
42
0.41421356237319906
10
-147.59900000000002
20
-44.217600000000004
10
-147.65000000000001
20
-44.217599999999997
42
0.41421356237307944
0
LWPOLYLINE
5
167
100
AcDbEntity
8
0
100
AcDbPolyline
90
8
70
1
43
0.0
10
-52.900200000000055
20
-44.717600000000019
10
-52.900199999999984
20
-50.717600000000004
42
0.4142135623730378
10
-52.400200000000012
20
-51.217599999999962
10
-52.349200000000017
20
-51.217599999999976
42
0.41421356237308982
10
-51.849199999999982
20
-50.71759999999999
10
-51.849199999999975
20
-44.717600000000019
42
0.41421356237320428
10
-52.349200000000025
20
-44.217600000000004
10
-52.400200000000005
20
-44.217599999999997
42
0.41421356237307944
0
LWPOLYLINE
5
168
100
AcDbEntity
8
0
100
AcDbPolyline
90
8
70
1
43
0.0
10
-32.799199999999956
20
-50.717599999999983
42
-0.41421356237309243
10
-33.299200000000006
20
-51.217599999999976
10
-33.350200000000001
20
-51.217599999999962
42
-0.41421356237302737
10
-33.850199999999973
20
-50.717600000000004
10
-33.850200000000036
20
-44.717600000000019
42
-0.41421356237308982
10
-33.350199999999994
20
-44.217599999999997
10
-33.299200000000013
20
-44.217600000000004
42
-0.41421356237319651
10
-32.799199999999963
20
-44.717600000000019
0
LWPOLYLINE
5
169
100
AcDbEntity
8
0
100
AcDbPolyline
90
8
70
1
43
0.0
10
-118.52400000000002
20
-35.167600000000022
42
-0.41421356237306639
10
-119.02400000000002
20
-35.667600000000014
10
-119.075
20
-35.667600000000014
42
-0.41421356237307422
10
-119.57500000000002
20
-35.167600000000007
10
-119.57500000000002
20
-22.168300000000009
42
-0.41421356237307161
10
-119.075
20
-21.668300000000006
10
-119.02400000000002
20
-21.668300000000006
42
-0.41421356237307161
10
-118.52400000000002
20
-22.168300000000009
0
LWPOLYLINE
5
170
100
AcDbEntity
8
0
100
AcDbPolyline
90
8
70
1
43
0.0
10
-285.2120000000001
20
-16.117799999999995
10
-285.21200000000005
20
-3.1184999999999796
42
0.41421356237310347
10
-285.71200000000005
20
-2.6184999999999636
10
-285.76300000000003
20
-2.6184999999999858
42
0.41421356237312884
10
-286.26300000000003
20
-3.1184999999999796
10
-286.26300000000003
20
-16.117799999999995
42
0.41421356237300916
10
-285.76300000000003
20
-16.617799999999985
10
-285.71200000000005
20
-16.61780000000001
42
0.41421356237304563
0
LWPOLYLINE
5
171
100
AcDbEntity
8
0
100
AcDbPolyline
90
8
70
1
43
0.0
10
-23.988700000000016
20
-2.6184999999999969
42
-0.41421356237298318
10
-23.488700000000037
20
-3.1184999999999952
10
-23.488700000000019
20
-16.117800000000003
42
-0.41421356237305473
10
-23.98870000000003
20
-16.617800000000017
10
-24.039700000000046
20
-16.617800000000038
42
-0.41421356237300788
10
-24.539700000000032
20
-16.117800000000006
10
-24.539700000000025
20
-3.1184999999999974
42
-0.414213562373069
10
-24.039700000000018
20
-2.6184999999999969
0
LWPOLYLINE
5
172
100
AcDbEntity
8
0
100
AcDbPolyline
90
8
70
1
43
0.0
10
-29.925950000000014
20
-35.167600000000007
42
-0.41421356237310802
10
-30.425950000000025
20
-35.667600000000007
10
-36.424950000000003
20
-35.667600000000007
42
-0.41421356237310025
10
-36.924950000000017
20
-35.167600000000007
10
-36.92495000000001
20
-20.698300000000003
42
-0.41421356237310802
10
-36.424950000000038
20
-20.198300000000003
10
-30.425950000000022
20
-20.198300000000003
42
-0.41421356237311063
10
-29.925950000000014
20
-20.6983
0
LWPOLYLINE
5
173
100
AcDbEntity
8
0
100
AcDbPolyline
90
8
70
1
43
0.0
10
-28.024900000000024
20
-35.667700000000011
10
-15.025900000000014
20
-35.667700000000011
42
0.41421356237310936
10
-14.525900000000043
20
-35.167700000000011
10
-14.525900000000016
20
-22.168399999999995
42
0.41421356237309243
10
-15.025900000000014
20
-21.668400000000002
10
-28.024900000000024
20
-21.668399999999998
42
0.4142135623730846
10
-28.524899999999995
20
-22.168399999999995
10
-28.524900000000034
20
-35.167700000000011
42
0.41421356237306639
0
LWPOLYLINE
5
174
100
AcDbEntity
8
0
100
AcDbPolyline
90
16
70
1
43
0.0
10
-204.11930000000009
20
-16.617800000000017
42
-0.41421356237312884
10
-203.61930000000001
20
-17.11780000000001
10
-203.61930000000001
20
-17.587760000000006
42
0.41421356237320561
10
-203.11930000000004
20
-18.087760000000024
10
-197.12029999999999
20
-18.087760000000078
42
0.414213562373004
10
-196.62030000000001
20
-17.58776000000001
10
-196.62029999999999
20
-17.11780000000001
42
-0.41421356237300661
10
-196.12030000000004
20
-16.617799999999932
10
-196.00099999999998
20
-16.617800000000081
42
0.41421356237301049
10
-195.501
20
-16.117799999999995
10
-195.50100000000009
20
-3.1182700000000008
42
0.41421356237309764
10
-196.00099999999998
20
-2.6182700000000114
10
-209.00000000000009
20
-2.6182699999999959
42
0.41421356237302381
10
-209.50000000000003
20
-3.1182700000000008
10
-209.50000000000003
20
-16.117800000000006
42
0.41421356237320039
10
-209.00000000000009
20
-16.617799999999985
0
LWPOLYLINE
5
175
100
AcDbEntity
8
0
100
AcDbPolyline
90
8
70
1
43
0.0
10
-117.41800000000005
20
-78.818299999999994
42
-0.41421356237313145
10
-116.91800000000002
20
-79.318299999999979
10
-116.91800000000002
20
-92.317600000000013
42
-0.41421356237312623
10
-117.41800000000005
20
-92.817600000000027
10
-130.41900000000001
20
-92.817600000000027
42
-0.41421356237306384
10
-130.91900000000004
20
-92.317600000000013
10
-130.91900000000007
20
-79.318299999999979
42
-0.41421356237316265
10
-130.41900000000001
20
-78.818299999999965
0
LWPOLYLINE
5
176
100
AcDbEntity
8
0
100
AcDbPolyline
90
8
70
1
43
0.0
10
-73.769000000000005
20
-79.318299999999979
42
-0.41421356237309503
10
-73.269000000000005
20
-78.818299999999979
10
-60.269700000000022
20
-78.818299999999979
42
-0.41421356237313667
10
-59.769700000000022
20
-79.318299999999979
10
-59.769700000000022
20
-92.317599999999942
42
-0.41421356237312101
10
-60.269700000000022
20
-92.817600000000027
10
-73.26900000000002
20
-92.817599999999985
42
-0.4142135623730846
10
-73.769000000000005
20
-92.317600000000013
0
LWPOLYLINE
5
177
100
AcDbEntity
8
0
100
AcDbPolyline
90
6
70
1
43
0.0
10
-177.56379999999996
20
-17.58776000000001
10
-177.56380000000001
20
-2.6184600000000025
10
-184.56280000000007
20
-2.6184600000000025
10
-184.56280000000007
20
-17.587760000000006
42
0.41421356237306511
10
-184.06280000000007
20
-18.087759999999964
10
-178.06380000000004
20
-18.087759999999982
42
0.41421356237328882
0
LWPOLYLINE
5
178
100
AcDbEntity
8
0
100
AcDbPolyline
90
8
70
1
43
0.0
10
-233.31299999999996
20
-3.1182700000000008
42
-0.41421356237309537
10
-232.81300000000002
20
-2.618270000000007
10
-217.43200000000007
20
-2.6182700000000154
42
-0.41421356237326967
10
-216.93200000000004
20
-3.1182700000000008
10
-216.93200000000004
20
-16.117799999999995
42
-0.41421356237318607
10
-217.43200000000007
20
-16.617799999999995
10
-232.81300000000002
20
-16.617800000000106
42
-0.41421356237300661
10
-233.31299999999999
20
-16.117799999999999
0
LWPOLYLINE
5
179
100
AcDbEntity
8
0
100
AcDbPolyline
90
8
70
1
43
0.0
10
-129.10032712359998
20
-41.218299999999999
10
-129.10032712360001
20
-54.217599999999997
42
0.41421356237308982
10
-128.60032712360004
20
-54.717599999999997
10
-128.54932712359999
20
-54.71759999999999
42
0.41421356237310025
10
-128.04932712359999
20
-54.217599999999997
10
-128.04932712359999
20
-41.218299999999999
42
0.41421356237308982
10
-128.54932712359999
20
-40.718299999999999
10
-128.60032712360004
20
-40.718299999999999
42
0.41421356237305862
0
LWPOLYLINE
5
180
100
AcDbEntity
8
0
100
AcDbPolyline
90
8
70
1
43
0.0
10
-288.87000000000006
20
-59.768299999999996
42
-0.41421356237313667
10
-288.37000000000006
20
-60.268300000000004
10
-288.37
20
-73.267600000000016
42
-0.41421356237307944
10
-288.87000000000006
20
-73.76760000000003
10
-301.86900000000009
20
-73.767600000000002
42
-0.41421356237328755
10
-302.36900000000014
20
-73.267600000000016
10
-302.36900000000014
20
-60.268300000000004
42
-0.41421356237319906
10
-301.86900000000009
20
-59.768300000000025
0
LWPOLYLINE
5
181
100
AcDbEntity
8
0
100
AcDbPolyline
90
8
70
1
43
0.0
10
-69.006500000000003
20
-3.1182700000000008
42
-0.41421356237311324
10
-68.506500000000045
20
-2.6182700000000025
10
-53.126000000000033
20
-2.6182700000000114
42
-0.41421356237311585
10
-52.626000000000026
20
-3.1182700000000008
10
-52.626000000000026
20
-16.117799999999995
42
-0.41421356237306123
10
-53.126000000000026
20
-16.617800000000006
10
-68.506500000000045
20
-16.617800000000013
42
-0.41421356237309892
10
-69.006500000000017
20
-16.117799999999999
0
LWPOLYLINE
5
182
100
AcDbEntity
8
0
100
AcDbPolyline
90
8
70
1
43
0.0
10
-283.31900000000013
20
-22.168299999999999
10
-283.31900000000019
20
-35.167600000000007
42
0.41421356237323292
10
-282.81900000000007
20
-35.667600000000007
10
-269.82000000000005
20
-35.667599999999993
42
0.41421356237315748
10
-269.32000000000005
20
-35.167600000000007
10
-269.32000000000011
20
-22.168299999999999
42
0.41421356237295975
10
-269.82000000000005
20
-21.668299999999935
10
-282.81900000000007
20
-21.668299999999988
42
0.41421356237316787
0
LWPOLYLINE
5
183
100
AcDbEntity
8
0
100
AcDbPolyline
90
8
70
1
43
0.0
10
-245.21900000000002
20
-79.318299999999979
10
-245.21900000000002
20
-92.317600000000013
42
0.41421356237306384
10
-244.71900000000005
20
-92.817600000000041
10
-231.72000000000003
20
-92.817600000000027
42
0.41421356237331353
10
-231.22
20
-92.317600000000013
10
-231.22000000000003
20
-79.318299999999979
42
0.41421356237313667
10
-231.72000000000003
20
-78.818299999999965
10
-244.71900000000005
20
-78.818299999999979
42
0.41421356237299095
0
LWPOLYLINE
5
184
100
AcDbEntity
8
0
100
AcDbPolyline
90
8
70
1
43
0.0
10
-45.194000000000038
20
-3.1182700000000008
42
-0.41421356237305501
10
-44.694000000000017
20
-2.6182699999999985
10
-29.313400000000023
20
-2.6182699999999972
42
-0.41421356237308526
10
-28.813400000000019
20
-3.1182700000000008
10
-28.813400000000033
20
-16.117800000000003
42
-0.4142135623730937
10
-29.313400000000005
20
-16.61780000000001
10
-44.694000000000017
20
-16.617800000000006
42
-0.41421356237308982
10
-45.194000000000017
20
-16.117799999999999
0
LWPOLYLINE
5
185
100
AcDbEntity
8
0
100
AcDbPolyline
90
8
70
1
43
0.0
10
-288.37
20
-16.117799999999995
42
-0.41421356237321211
10
-288.87000000000006
20
-16.617800000000045
10
-301.86900000000009
20
-16.617800000000042
42
-0.41421356237299095
10
-302.36900000000014
20
-16.117799999999999
10
-302.36900000000014
20
-3.1182700000000008
42
-0.41421356237326185
10
-301.86900000000009
20
-2.6182699999999954
10
-288.87000000000006
20
-2.6182699999999959
42
-0.41421356237307294
10
-288.37
20
-3.1182700000000008
0
LWPOLYLINE
5
186
100
AcDbEntity
8
0
100
AcDbPolyline
90
4
70
1
43
0.0
10
-107.61943333330008
20
1.3817300000000099
10
-197.3692166667
20
1.381730000000001
42
0.99999999999999989
10
-197.3692166667
20
-0.61827000000000076
10
-107.61943333330004
20
-0.61827000000000054
42
0.99999999999999989
0
LWPOLYLINE
5
187
100
AcDbEntity
8
0
100
AcDbPolyline
90
8
70
1
43
0.0
10
-88.801009331300008
20
-18.087760000000031
42
-0.41421356237309243
10
-89.301009331299994
20
-17.58776000000001
10
-89.301009331299952
20
-3.1184600000000007
42
-0.41421356237310542
10
-88.801009331300008
20
-2.6184599999999865
10
-78.063550000000035
20
-2.6184600000000029
42
-0.4142135623730791
10
-77.563550000000021
20
-3.1184600000000007
10
-77.563550000000021
20
-17.58776000000001
42
-0.41421356237308593
10
-78.063550000000021
20
-18.087759999999989
0
LWPOLYLINE
5
188
100
AcDbEntity
8
0
100
AcDbPolyline
90
32
70
1
43
0.0
10
-250.27000000000001
20
-92.317600000000013
42
-0.41421356237331353
10
-250.77000000000004
20
-92.817600000000027
10
-251.39480000000009
20
-92.817600000000027
10
-251.39480000000009
20
-92.817800000000005
10
-258.39380000000006
20
-92.817800000000005
10
-258.39380000000006
20
-92.817600000000027
10
-275.19479999999999
20
-92.817600000000027
10
-275.19479999999999
20
-92.817800000000005
10
-282.19380000000001
20
-92.817800000000005
10
-282.19380000000001
20
-92.817600000000027
10
-282.81900000000007
20
-92.817600000000056
42
-0.41421356237299095
10
-283.31900000000013
20
-92.317600000000013
10
-283.31900000000013
20
-79.318299999999979
42
-0.41421356237299095
10
-282.81900000000013
20
-78.818299999999951
10
-282.69380000000007
20
-78.818299999999979
42
0.41421356237317308
10
-282.19380000000001
20
-78.318299999999979
10
-282.19380000000001
20
-77.848500000000001
42
-0.414213562373069
10
-281.69380000000001
20
-77.348500000000016
10
-275.69480000000004
20
-77.34850000000003
42
-0.41421356237309503
10
-275.19479999999999
20
-77.848500000000001
10
-275.19479999999999
20
-78.318299999999979
42
0.41421356237316787
10
-274.69479999999999
20
-78.818299999999965
10
-258.89380000000006
20
-78.818299999999994
42
0.41421356237313667
10
-258.39380000000006
20
-78.318299999999979
10
-258.39380000000006
20
-77.848500000000001
42
-0.414213562373069
10
-257.89380000000006
20
-77.348500000000016
10
-251.89480000000009
20
-77.348500000000001
42
-0.41421356237310542
10
-251.39480000000009
20
-77.84850000000003
10
-251.39480000000015
20
-78.318299999999979
42
0.41421356237310025
10
-250.89480000000009
20
-78.818299999999979
10
-250.77000000000004
20
-78.818299999999965
42
-0.41421356237313667
10
-250.27000000000004
20
-79.318299999999979
0
LWPOLYLINE
5
189
100
AcDbEntity
8
0
100
AcDbPolyline
90
8
70
1
43
0.0
10
-207.11900000000014
20
-79.318299999999979
42
-0.41421356237317308
10
-206.61900000000003
20
-78.818299999999951
10
-193.62
20
-78.818299999999965
42
-0.41421356237307422
10
-193.12000000000012
20
-79.318299999999979
10
-193.12000000000012
20
-92.317600000000013
42
-0.41421356237307422
10
-193.62
20
-92.817600000000027
10
-206.61900000000003
20
-92.817599999999985
42
-0.41421356237303258
10
-207.11900000000011
20
-92.317600000000013
0
LWPOLYLINE
5
190
100
AcDbEntity
8
0
100
AcDbPolyline
90
8
70
1
43
0.0
10
-188.85700000000003
20
-40.718299999999985
42
-0.41421356237318346
10
-188.35700000000003
20
-41.218299999999999
10
-188.35700000000006
20
-54.217600000000026
42
-0.41421356237307422
10
-188.857
20
-54.717600000000004
10
-201.85700000000003
20
-54.717599999999919
42
-0.41421356237317308
10
-202.35700000000008
20
-54.217600000000026
10
-202.35700000000006
20
-41.218299999999964
42
-0.41421356237307422
10
-201.85700000000011
20
-40.718299999999985
0
LWPOLYLINE
5
191
100
AcDbEntity
8
0
100
AcDbPolyline
90
8
70
1
43
0.0
10
-223.29932712360005
20
-54.217599999999997
10
-223.29932712360005
20
-41.218299999999999
42
0.41421356237318346
10
-223.79932712360005
20
-40.718299999999992
10
-223.85032712360004
20
-40.718299999999999
42
0.41421356237313667
10
-224.35032712360004
20
-41.218299999999999
10
-224.35032712360004
20
-54.217600000000026
42
0.41421356237312623
10
-223.85032712360012
20
-54.717600000000033
10
-223.79932712360005
20
-54.717599999999997
42
0.41421356237313667
0
LWPOLYLINE
5
192
100
AcDbEntity
8
0
100
AcDbPolyline
90
8
70
1
43
0.0
10
-207.90700000000001
20
-40.71829999999995
42
-0.41421356237307944
10
-207.40700000000004
20
-41.218299999999964
10
-207.40700000000007
20
-54.217600000000026
42
-0.41421356237307422
10
-207.90700000000001
20
-54.717600000000004
10
-220.90700000000004
20
-54.717599999999919
42
-0.41421356237317308
10
-221.4070000000001
20
-54.217600000000026
10
-221.4070000000001
20
-41.218299999999964
42
-0.41421356237308982
10
-220.9070000000001
20
-40.718300000000028
0
LWPOLYLINE
5
193
100
AcDbEntity
8
0
100
AcDbPolyline
90
8
70
1
43
0.0
10
-78.531499999999994
20
-22.168299999999999
10
-78.53149999999998
20
-35.167600000000007
42
0.41421356237309764
10
-78.031499999999994
20
-35.667600000000007
10
-65.032200000000003
20
-35.667600000000007
42
0.41421356237311063
10
-64.532200000000017
20
-35.167600000000007
10
-64.532200000000017
20
-22.168299999999999
42
0.41421356237308721
10
-65.032200000000017
20
-21.668300000000009
10
-78.031499999999994
20
-21.668299999999995
42
0.41421356237309764
0
LWPOLYLINE
5
194
100
AcDbEntity
8
0
100
AcDbPolyline
90
8
70
1
43
0.0
10
-59.481499999999997
20
-22.168299999999999
42
-0.41421356237308721
10
-58.981500000000011
20
-21.668300000000006
10
-45.982200000000013
20
-21.668300000000009
42
-0.41421356237311585
10
-45.48220000000002
20
-22.168299999999999
10
-45.482200000000013
20
-35.167600000000007
42
-0.41421356237309764
10
-45.982199999999992
20
-35.667600000000014
10
-58.981500000000011
20
-35.667600000000014
42
-0.41421356237307161
10
-59.481499999999997
20
-35.167600000000007
0
LWPOLYLINE
5
195
100
AcDbEntity
8
0
100
AcDbPolyline
90
8
70
1
43
0.0
10
-61.374527123600004
20
-31.667950000000005
10
-61.374527123600004
20
-25.667950000000005
42
0.41421356237308204
10
-61.874527123599989
20
-25.167950000000001
10
-61.925527123600013
20
-25.167950000000005
42
0.41421356237309764
10
-62.42552712360002
20
-25.667950000000005
10
-62.425527123600006
20
-31.667950000000005
42
0.41421356237308721
10
-61.925527123600013
20
-32.167949999999998
10
-61.874527123599997
20
-32.167950000000005
42
0.41421356237309503
0
LWPOLYLINE
5
196
100
AcDbEntity
8
0
100
AcDbPolyline
90
8
70
1
43
0.0
10
-168.51900000000001
20
-92.817599999999985
10
-155.5200000000001
20
-92.817600000000027
42
0.41421356237309503
10
-155.0200000000001
20
-92.317600000000013
10
-155.0200000000001
20
-79.318299999999979
42
0.41421356237311585
10
-155.5200000000001
20
-78.818299999999979
10
-168.51900000000001
20
-78.818299999999979
42
0.41421356237317308
10
-169.01900000000015
20
-79.318299999999979
10
-169.01900000000012
20
-92.317600000000013
42
0.41421356237309503
0
LWPOLYLINE
5
197
100
AcDbEntity
8
0
100
AcDbPolyline
90
8
70
1
43
0.0
10
-69.006500000000003
20
-41.218299999999999
10
-69.006500000000003
20
-54.217599999999997
42
0.41421356237311063
10
-68.506500000000017
20
-54.717599999999997
10
-55.507200000000019
20
-54.717599999999997
42
0.41421356237307944
10
-55.007200000000012
20
-54.217599999999997
10
-55.007200000000012
20
-41.218299999999999
42
0.41421356237310025
10
-55.507200000000019
20
-40.718299999999999
10
-68.506500000000003
20
-40.718299999999999
42
0.41421356237309503
0
LWPOLYLINE
5
198
100
AcDbEntity
8
0
100
AcDbPolyline
90
8
70
1
43
0.0
10
-163.75700000000001
20
-54.71759999999999
42
-0.41421356237306384
10
-164.25700000000001
20
-54.217599999999997
10
-164.25700000000006
20
-41.218299999999999
42
-0.41421356237307422
10
-163.75700000000001
20
-40.718299999999992
10
-150.75700000000001
20
-40.718299999999999
42
-0.41421356237308982
10
-150.25700000000001
20
-41.218299999999999
10
-150.25700000000001
20
-54.217599999999997
42
-0.41421356237310025
10
-150.75700000000001
20
-54.71759999999999
0
LWPOLYLINE
5
199
100
AcDbEntity
8
0
100
AcDbPolyline
90
8
70
1
43
0.0
10
-112.65699999999998
20
-40.718299999999999
10
-125.65700000000005
20
-40.718299999999992
42
0.41421356237304818
10
-126.15700000000004
20
-41.218299999999999
10
-126.15700000000004
20
-54.217599999999997
42
0.41421356237310025
10
-125.65700000000005
20
-54.717599999999997
10
-112.65699999999997
20
-54.717599999999997
42
0.41421356237305862
10
-112.15700000000001
20
-54.217599999999997
10
-112.15700000000001
20
-41.218299999999999
42
0.41421356237308982
0
LWPOLYLINE
5
200
100
AcDbEntity
8
0
100
AcDbPolyline
90
8
70
1
43
0.0
10
-140.44399999999999
20
-60.268300000000004
42
-0.41421356237314183
10
-139.94399999999999
20
-59.768299999999996
10
-126.94500000000005
20
-59.768300000000004
42
-0.4142135623730378
10
-126.44500000000001
20
-60.268300000000004
10
-126.44500000000001
20
-73.267600000000016
42
-0.41421356237312623
10
-126.94500000000004
20
-73.76760000000003
10
-139.94399999999999
20
-73.76760000000003
42
-0.41421356237311585
10
-140.44399999999999
20
-73.267600000000016
0
LWPOLYLINE
5
201
100
AcDbEntity
8
0
100
AcDbPolyline
90
8
70
1
43
0.0
10
-107.89500000000001
20
-59.768300000000011
10
-120.89400000000001
20
-59.768299999999996
42
0.41421356237314183
10
-121.39400000000002
20
-60.268300000000004
10
-121.39400000000002
20
-73.267600000000016
42
0.41421356237311585
10
-120.89400000000001
20
-73.767600000000016
10
-107.89500000000001
20
-73.76760000000003
42
0.41421356237314183
10
-107.395
20
-73.267600000000016
10
-107.395
20
-60.268300000000004
42
0.41421356237310542
0
LWPOLYLINE
5
202
100
AcDbEntity
8
0
100
AcDbPolyline
90
8
70
1
43
0.0
10
-144.70699999999999
20
-54.717599999999997
42
-0.4142135623730378
10
-145.20699999999999
20
-54.217599999999997
10
-145.20699999999999
20
-41.218299999999999
42
-0.41421356237305862
10
-144.70699999999999
20
-40.718299999999999
10
-131.70699999999999
20
-40.718299999999999
42
-0.41421356237308982
10
-131.20699999999999
20
-41.218299999999999
10
-131.20699999999999
20
-54.217599999999997
42
-0.41421356237310025
10
-131.70699999999999
20
-54.71759999999999
0
LWPOLYLINE
5
203
100
AcDbEntity
8
0
100
AcDbPolyline
90
4
70
1
43
0.0
10
-0.61965000000004267
20
-2.8682699999999883
10
-0.61965000000004267
20
-92.567599999999985
42
0.99999999999999989
10
1.3803499999999858
20
-92.567600000000013
10
1.3803499999999853
20
-2.8682700000000061
42
0.99999999999999989
0
LWPOLYLINE
5
204
100
AcDbEntity
8
0
100
AcDbPolyline
90
4
70
1
43
0.0
10
-6.3696500000000178
20
1.3817300000000012
42
-0.99999999999999989
10
-6.3696500000000178
20
-0.61827000000000054
10
-96.119433333300037
20
-0.61827000000000054
42
-0.99999999999999989
10
-96.119433333300037
20
1.3817300000000012
0
LWPOLYLINE
5
205
100
AcDbEntity
8
0
100
AcDbPolyline
90
4
70
1
43
0.0
10
-298.61935000000005
20
-0.61827000000000076
10
-208.86956666670002
20
-0.61827000000000076
42
0.99999999999999989
10
-208.86956666670002
20
1.381730000000001
10
-298.61935000000005
20
1.381730000000001
42
0.99999999999999989
0
LWPOLYLINE
5
206
100
AcDbEntity
8
0
100
AcDbPolyline
90
8
70
1
43
0.0
10
-288.37000000000006
20
-35.167600000000007
10
-288.37
20
-22.168299999999999
42
0.41421356237307161
10
-288.87000000000006
20
-21.668299999999995
10
-301.86900000000009
20
-21.668300000000002
42
0.4142135623732589
10
-302.36900000000014
20
-22.168299999999999
10
-302.36900000000014
20
-35.167600000000007
42
0.41421356237325629
10
-301.86900000000009
20
-35.667600000000007
10
-288.87000000000006
20
-35.667599999999979
42
0.41421356237300661
0
LWPOLYLINE
5
207
100
AcDbEntity
8
0
100
AcDbPolyline
90
8
70
1
43
0.0
10
-97.868300000000033
20
-92.317600000000013
10
-97.86830000000009
20
-79.318299999999979
42
0.4142135623731783
10
-98.368300000000062
20
-78.818299999999994
10
-111.36900000000004
20
-78.818299999999965
42
0.41421356237316265
10
-111.86900000000009
20
-79.318299999999979
10
-111.86900000000007
20
-92.317600000000013
42
0.41421356237306384
10
-111.36900000000004
20
-92.817600000000027
10
-98.368300000000062
20
-92.817600000000041
42
0.41421356237309503
0
LWPOLYLINE
5
208
100
AcDbEntity
8
0
100
AcDbPolyline
90
8
70
1
43
0.0
10
-78.81970000000004
20
-92.317599999999956
42
-0.41421356237309503
10
-79.319700000000054
20
-92.817600000000027
10
-92.319000000000088
20
-92.817600000000027
42
-0.41421356237310542
10
-92.819000000000003
20
-92.317600000000013
10
-92.819000000000003
20
-79.318299999999979
42
-0.41421356237310542
10
-92.319000000000045
20
-78.818299999999965
10
-79.319700000000068
20
-78.818299999999979
42
-0.41421356237313145
10
-78.819700000000026
20
-79.318299999999979
0
LWPOLYLINE
5
209
100
AcDbEntity
8
0
100
AcDbPolyline
90
8
70
1
43
0.0
10
-71.399527123599995
20
-40.718299999999999
10
-71.450527123599997
20
-40.718299999999999
42
0.41421356237309503
10
-71.950527123599983
20
-41.218299999999999
10
-71.950527123599997
20
-54.217599999999997
42
0.41421356237309503
10
-71.450527123599997
20
-54.717599999999997
10
-71.399527123599995
20
-54.717599999999997
42
0.41421356237309503
10
-70.899527123599995
20
-54.217599999999997
10
-70.899527123599995
20
-41.218299999999999
42
0.41421356237309503
0
LWPOLYLINE
5
210
100
AcDbEntity
8
0
100
AcDbPolyline
90
8
70
1
43
0.0
10
-91.000527123600023
20
-41.218299999999999
10
-91.000527123599994
20
-54.217599999999997
42
0.41421356237306384
10
-90.500527123600008
20
-54.717599999999997
10
-90.449527123600006
20
-54.717599999999997
42
0.41421356237305862
10
-89.949527123600021
20
-54.217599999999997
10
-89.949527123600021
20
-41.218299999999999
42
0.4142135623730378
10
-90.449527123600006
20
-40.718299999999999
10
-90.500527123600008
20
-40.718299999999992
42
0.41421356237304302
0
LWPOLYLINE
5
211
100
AcDbEntity
8
0
100
AcDbPolyline
90
8
70
1
43
0.0
10
-212.16999999999999
20
-92.317600000000013
10
-212.16999999999999
20
-79.318299999999979
42
0.41421356237314183
10
-212.66999999999999
20
-78.818299999999979
10
-225.66900000000004
20
-78.818299999999979
42
0.41421356237307422
10
-226.16900000000001
20
-79.318299999999979
10
-226.16900000000001
20
-92.317600000000013
42
0.41421356237319906
10
-225.66900000000004
20
-92.817600000000027
10
-212.66999999999999
20
-92.817600000000027
42
0.41421356237321988
0
LWPOLYLINE
5
212
100
AcDbEntity
8
0
100
AcDbPolyline
90
8
70
1
43
0.0
10
-187.56899999999999
20
-92.817600000000027
10
-174.56999999999999
20
-92.817600000000027
42
0.41421356237297013
10
-174.07000000000008
20
-92.317600000000013
10
-174.07000000000008
20
-79.318299999999979
42
0.41421356237326151
10
-174.56999999999999
20
-78.818299999999965
10
-187.56900000000002
20
-78.818300000000093
42
0.41421356237307944
10
-188.06899999999999
20
-79.318299999999979
10
-188.06900000000007
20
-92.317600000000013
42
0.41421356237306384
0
LWPOLYLINE
5
213
100
AcDbEntity
8
0
100
AcDbPolyline
90
8
70
1
43
0.0
10
-93.10720000000002
20
-54.217599999999997
10
-93.10720000000002
20
-41.218299999999999
42
0.4142135623730378
10
-93.607200000000006
20
-40.718299999999999
10
-106.60700000000006
20
-40.718299999999999
42
0.41421356237305862
10
-107.10700000000004
20
-41.218299999999999
10
-107.10700000000004
20
-54.217599999999997
42
0.4142135623730378
10
-106.60700000000006
20
-54.717599999999997
10
-93.607200000000006
20
-54.717599999999997
42
0.41421356237305862
0
LWPOLYLINE
5
214
100
AcDbEntity
8
0
100
AcDbPolyline
90
8
70
1
43
0.0
10
-250.77000000000004
20
-2.6182699999999937
10
-263.76900000000006
20
-2.6182699999999848
42
0.41421356237304724
10
-264.26900000000001
20
-3.1182700000000008
10
-264.26900000000001
20
-16.117799999999999
42
0.41421356237300527
10
-263.76900000000006
20
-16.617800000000074
10
-250.77000000000004
20
-16.61780000000001
42
0.41421356237304691
10
-250.2700000000001
20
-16.117799999999995
10
-250.27000000000001
20
-3.1182700000000008
42
0.41421356237324464
0
LWPOLYLINE
5
215
100
AcDbEntity
8
0
100
AcDbPolyline
90
8
70
1
43
0.0
10
-149.46900000000005
20
-92.817600000000027
10
-136.47000000000006
20
-92.817600000000027
42
0.4142135623730222
10
-135.97000000000006
20
-92.317600000000013
10
-135.97000000000006
20
-79.318299999999979
42
0.41421356237315748
10
-136.47000000000006
20
-78.818299999999994
10
-149.46900000000005
20
-78.818299999999965
42
0.41421356237312623
10
-149.96900000000005
20
-79.318299999999979
10
-149.96900000000005
20
-92.317600000000013
42
0.4142135623730222
0
LWPOLYLINE
5
216
100
AcDbEntity
8
0
100
AcDbPolyline
90
8
70
1
43
0.0
10
-21.381700000000023
20
-60.268300000000004
10
-21.381700000000023
20
-73.267600000000016
42
0.41421356237309764
10
-20.881700000000016
20
-73.767600000000016
10
-7.8821600000000203
20
-73.76760000000003
42
0.41421356237309892
10
-7.3821600000000132
20
-73.267600000000016
10
-7.3821600000000176
20
-60.268300000000004
42
0.41421356237307944
10
-7.8821600000000203
20
-59.768300000000025
10
-20.881700000000016
20
-59.768300000000004
42
0.41421356237309243
0
LWPOLYLINE
5
217
100
AcDbEntity
8
0
100
AcDbPolyline
90
48
70
1
43
0.0
10
-98.269433333300015
20
3.381729999999985
42
-0.99999999999999989
10
-105.46943333330005
20
3.381730000000005
10
-105.46943333330006
20
4.6317299999999939
42
0.41421356237307522
10
-106.96943333330005
20
6.1317300000000134
10
-198.01921667209999
20
6.1317299999999442
42
0.41421356237312085
10
-199.51921667210001
20
4.6317300000000028
10
-199.51921667210001
20
3.3817299999999961
42
-0.99999999999999989
10
-206.7192166721
20
3.381730000000005
10
-206.7192166721
20
4.6317299999999939
42
0.41421356237306589
10
-208.21921667210012
20
6.1317300000000516
10
-299.26935000000009
20
6.1317299999999975
42
0.41421356237308282
10
-300.76935000000009
20
4.6317300000000028
10
-300.76934999999997
20
3.3817299999999939
42
-0.41421356237309648
10
-304.36935000000005
20
-0.21827000000002095
10
-308.86935
20
-0.21827000000004482
42
0.41421356237308987
10
-310.36935
20
-1.718270000000004
10
-310.36935000000022
20
-93.717600000000004
42
0.41421356237307078
10
-308.86935
20
-95.217600000000132
10
-304.36935000000005
20
-95.217600000000019
42
-0.41421356237309503
10
-300.76934999999997
20
-98.817600000000013
10
-300.76934999999997
20
-100.0676
42
0.41421356237302914
10
-299.26935000000009
20
-101.56759999999998
10
-208.21921667210012
20
-101.56760000000007
42
0.41421356237309853
10
-206.7192166721
20
-100.0676
10
-206.7192166721
20
-98.817600000000013
42
-0.99999999999999989
10
-199.51921667210001
20
-98.817600000000013
10
-199.51921667209999
20
-100.0676
42
0.4142135623730257
10
-198.01921667209999
20
-101.56759999999998
10
-106.96943333330005
20
-101.56760000000006
42
0.41421356237309853
10
-105.46943333330005
20
-100.0676
10
-105.46943333330009
20
-98.817600000000056
42
-0.99999999999999989
10
-98.2694333333
20
-98.817600000000013
10
-98.269433333300086
20
-100.0676
42
0.41421356237311935
10
-96.769433333300043
20
-101.56760000000006
10
-5.7196500000000228
20
-101.56759999999998
42
0.41421356237308399
10
-4.2196500000000272
20
-100.0676
10
-4.2196499999999357
20
-98.817600000000013
42
-0.41421356237309698
10
-0.61965000000002435
20
-95.217600000000019
10
3.8803499999999858
20
-95.217600000000061
42
0.41421356237308377
10
5.3803500000000124
20
-93.717600000000004
10
5.3803499999999715
20
-1.718270000000004
42
0.41421356237309642
10
3.8803499999999858
20
-0.2182700000000129
10
-0.61965000000000681
20
-0.21826999999999208
42
-0.41421356237309692
10
-4.2196500000000192
20
3.3817300000000028
10
-4.2196500000000015
20
4.6317299999999939
42
0.41421356237309626
10
-5.7196500000000228
20
6.1317300000000241
10
-96.769433333300043
20
6.1317300000000152
42
0.4142135623730997
10
-98.269433333300071
20
4.6317300000000019
0
ENDSEC
0
SECTION
2
OBJECTS
0
DICTIONARY
5
C
100
AcDbDictionary
3
ACAD_GROUP
350
D
3
ACAD_MLINESTYLE
350
17
0
DICTIONARY
5
D
100
AcDbDictionary
0
DICTIONARY
5
1A
330
C
100
AcDbDictionary
0
DICTIONARY
5
17
100
AcDbDictionary
0
ENDSEC
0
EOF
