0
SECTION
2
HEADER
9
$INSUNITS
70
4
9
$ACADVER
1
AC1014
9
$HANDSEED
5
FFFF
0
ENDSEC
0
SECTION
2
TABLES
0
TABLE
2
VPORT
5
8
100
AcDbSymbolTable
0
ENDTAB
0
TABLE
2
LTYPE
5
5
100
AcDbSymbolTable
0
LTYPE
5
14
100
AcDbSymbolTableRecord
100
AcDbLinetypeTableRecord
2
BYBLOCK
70
0
0
LTYPE
5
15
100
AcDbSymbolTableRecord
100
AcDbLinetypeTableRecord
2
BYLAYER
70
0
0
ENDTAB
0
TABLE
2
LAYER
5
2
100
AcDbSymbolTable
70
2
0
LAYER
5
50
100
AcDbSymbolTableRecord
100
AcDbLayerTableRecord
2
0
70
0
6
CONTINUOUS
0
ENDTAB
0
TABLE
2
STYLE
5
3
100
AcDbSymbolTable
70
1
0
STYLE
5
11
100
AcDbSymbolTableRecord
100
AcDbTextStyleTableRecord
2
STANDARD
70
0
0
ENDTAB
0
TABLE
2
VIEW
5
6
100
AcDbSymbolTable
70
0
0
ENDTAB
0
TABLE
2
UCS
5
7
100
AcDbSymbolTable
70
0
0
ENDTAB
0
TABLE
2
APPID
5
9
100
AcDbSymbolTable
70
2
0
APPID
5
12
100
AcDbSymbolTableRecord
100
AcDbRegAppTableRecord
2
ACAD
70
0
0
ENDTAB
0
TABLE
2
DIMSTYLE
5
A
100
AcDbSymbolTable
70
1
0
ENDTAB
0
TABLE
2
BLOCK_RECORD
5
1
100
AcDbSymbolTable
70
1
0
BLOCK_RECORD
5
1F
100
AcDbSymbolTableRecord
100
AcDbBlockTableRecord
2
*MODEL_SPACE
0
BLOCK_RECORD
5
1B
100
AcDbSymbolTableRecord
100
AcDbBlockTableRecord
2
*PAPER_SPACE
0
ENDTAB
0
ENDSEC
0
SECTION
2
BLOCKS
0
BLOCK
5
20
100
AcDbEntity
100
AcDbBlockBegin
2
*MODEL_SPACE
0
ENDBLK
5
21
100
AcDbEntity
100
AcDbBlockEnd
0
BLOCK
5
1C
100
AcDbEntity
100
AcDbBlockBegin
2
*PAPER_SPACE
0
ENDBLK
5
1D
100
AcDbEntity
100
AcDbBlockEnd
0
ENDSEC
0
SECTION
2
ENTITIES
0
LWPOLYLINE
5
100
100
AcDbEntity
8
0
100
AcDbPolyline
90
8
70
1
43
0.0
10
5.5009099999999833
20
40.718299999999999
42
-0.41421356237310086
10
5.0009100000000082
20
41.218299999999999
10
5.0009099999999975
20
54.21759999999999
42
-0.41421356237308005
10
5.5009099999999966
20
54.717599999999997
10
23.262899999999998
20
54.717599999999997
42
-0.414213562373069
10
23.762900000000005
20
54.217599999999997
10
23.762899999999995
20
41.218299999999992
42
-0.414213562373069
10
23.262899999999998
20
40.718299999999999
0
LWPOLYLINE
5
101
100
AcDbEntity
8
0
100
AcDbPolyline
90
4
70
1
43
0.0
10
197.3692166667
20
0.61827000000000099
42
-0.99999999999999989
10
197.3692166667
20
-1.3817300000000008
10
107.61943333330002
20
-1.3817300000000008
42
-0.99999999999999989
10
107.61943333330002
20
0.61827000000000054
0
LWPOLYLINE
5
102
100
AcDbEntity
8
0
100
AcDbPolyline
90
8
70
1
43
0.0
10
3.1196500000000071
20
78.818299999999965
42
-0.41421356237311585
10
2.619649999999996
20
79.318299999999979
10
2.619650000000032
20
92.317600000000013
42
-0.41421356237311258
10
3.1196499999999983
20
92.817600000000027
10
16.119200000000017
20
92.817600000000027
42
-0.41421356237315093
10
16.619200000000006
20
92.317600000000013
10
16.619200000000006
20
79.318299999999979
42
-0.41421356237309631
10
16.119200000000006
20
78.818299999999979
0
LWPOLYLINE
5
103
100
AcDbEntity
8
0
100
AcDbPolyline
90
4
70
1
43
0.0
10
96.119433333300037
20
96.817600000000041
10
6.3696500000000356
20
96.817600000000027
42
0.99999999999999989
10
6.36965
20
94.817599999999999
10
96.119433333300037
20
94.817600000000013
42
0.99999999999999989
0
LWPOLYLINE
5
104
100
AcDbEntity
8
0
100
AcDbPolyline
90
8
70
1
43
0.0
10
78.063550000000006
20
2.6184600000000047
42
-0.41421356237307294
10
77.563550000000006
20
3.1184600000000007
10
77.563550000000006
20
17.58776000000001
42
-0.4142135623730846
10
78.063550000000006
20
18.087759999999999
10
88.80100933129998
20
18.087760000000024
42
-0.41421356237308982
10
89.301009331299994
20
17.587760000000006
10
89.301009331299994
20
3.1184600000000007
42
-0.41421356237308915
10
88.801009331300008
20
2.6184599999999896
0
LWPOLYLINE
5
105
100
AcDbEntity
8
0
100
AcDbPolyline
90
4
70
1
43
0.0
10
6.36965
20
-1.381730000000001
10
96.119433333300037
20
-1.381730000000001
42
0.99999999999999989
10
96.119433333300037
20
0.61827000000000076
10
6.36965
20
0.61827000000000099
42
0.99999999999999989
0
LWPOLYLINE
5
106
100
AcDbEntity
8
0
100
AcDbPolyline
90
8
70
1
43
0.0
10
155.52000000000004
20
78.818299999999965
10
168.51900000000001
20
78.818300000000022
42
0.41421356237314705
10
169.01900000000001
20
79.318299999999979
10
169.01900000000015
20
92.317599999999999
42
0.41421356237314705
10
168.51900000000001
20
92.817600000000027
10
155.52000000000004
20
92.817600000000027
42
0.41421356237312623
10
155.02000000000004
20
92.317599999999999
10
155.02000000000004
20
79.318299999999979
42
0.41421356237305862
0
LWPOLYLINE
5
107
100
AcDbEntity
8
0
100
AcDbPolyline
90
25
70
1
43
0.0
10
288.03876854872283
20
84.59497409504678
42
-0.41421356241812546
10
288.88729668621204
20
84.594974095111894
10
292.36358008110005
20
81.118690700245025
10
292.36358008110005
20
91.675633008600016
42
-0.41421356237311241
10
292.96358008110008
20
92.275633008600039
10
293.32034981879991
20
92.275633008600138
42
-0.19891236737974133
10
293.74461388751195
20
92.09989707731205
10
299.12970307971204
20
86.714807885112052
42
-0.41421356237315027
10
299.12970307971204
20
85.866279747688012
10
298.87099479601198
20
85.607571463988052
42
-0.41421356237306439
10
298.02246665858809
20
85.607571463988108
10
297.19087125761911
20
86.439166865017413
10
294.28085280321386
20
85.082202974337221
10
299.91219271251009
20
79.450863065114447
42
-0.41421356237308588
10
299.91219271251452
20
78.602334927689967
10
299.64098442881169
20
78.331126643987659
42
-0.41421356237290502
10
298.79245629138802
20
78.331126643988085
10
293.9044488445
20
83.219134090853913
10
293.90444884450005
20
77.032548296300007
42
-0.4142135623732815
10
293.30444884450003
20
76.432548296300055
10
292.96358008110008
20
76.432548296299984
42
-0.41421356237313406
10
292.36358008110011
20
77.032548296300007
10
292.36358008109949
20
78.879217858051135
10
287.76756026518711
20
83.475237673989099
42
-0.41421356237234702
10
287.76756026518808
20
84.323765811411931
0
SPLINE
5
108
100
AcDbEntity
8
0
100
AcDbSpline
70
0
71
3
72
8
73
4
74
0
42
0.000000001
43
0.0000000001
44
0.0000000001
40
-1
40
-1
40
-1
40
-1
40
0
40
0
40
0
40
0
10
30.6692
20
57.242598999999998
30
0
10
30.138767000000009
20
57.242598999999998
30
0
10
29.63005900000001
20
57.453312999999973
30
0
10
29.254986000000009
20
57.828385999999981
30
0
0
SPLINE
5
109
100
AcDbEntity
8
0
100
AcDbSpline
70
0
71
3
72
8
73
4
74
0
42
0.000000001
43
0.0000000001
44
0.0000000001
40
-1
40
-1
40
-1
40
-1
40
0
40
0
40
0
40
0
10
29.254986000000009
20
57.828385999999981
30
0
10
28.87991400000001
20
58.20345899999996
30
0
10
28.669200000000004
20
58.71216699999998
30
0
10
28.669200000000004
20
59.242599999999982
30
0
0
LINE
5
110
100
AcDbEntity
8
0
100
AcDbLine
10
28.669200000000004
20
59.242599999999975
30
0
11
28.669200000000004
21
74.292598999999981
31
0
0
SPLINE
5
111
100
AcDbEntity
8
0
100
AcDbSpline
70
0
71
3
72
8
73
4
74
0
42
0.000000001
43
0.0000000001
44
0.0000000001
40
-1
40
-1
40
-1
40
-1
40
0
40
0
40
0
40
0
10
28.669200000000004
20
74.292598999999981
30
0
10
28.669200000000004
20
74.823031999999984
30
0
10
28.87991400000001
20
75.331739999999954
30
0
10
29.254986000000009
20
75.706812999999968
30
0
0
SPLINE
5
112
100
AcDbEntity
8
0
100
AcDbSpline
70
0
71
3
72
8
73
4
74
0
42
0.000000001
43
0.0000000001
44
0.0000000001
40
-1
40
-1
40
-1
40
-1
40
0
40
0
40
0
40
0
10
29.254986000000009
20
75.706812999999968
30
0
10
29.63005900000001
20
76.081885999999983
30
0
10
30.138767000000009
20
76.292598999999967
30
0
10
30.6692
20
76.292598999999967
30
0
0
LINE
5
113
100
AcDbEntity
8
0
100
AcDbLine
10
30.6692
20
76.292598999999967
30
0
11
255.26920000000004
21
76.292598999999967
31
0
0
SPLINE
5
114
100
AcDbEntity
8
0
100
AcDbSpline
70
0
71
3
72
8
73
4
74
0
42
0.000000001
43
0.0000000001
44
0.0000000001
40
-1
40
-1
40
-1
40
-1
40
0
40
0
40
0
40
0
10
255.26920000000004
20
76.292598999999967
30
0
10
255.79963300000003
20
76.292598999999967
30
0
10
256.30834100000004
20
76.081885999999983
30
0
10
256.68341400000008
20
75.706812999999968
30
0
0
SPLINE
5
115
100
AcDbEntity
8
0
100
AcDbSpline
70
0
71
3
72
8
73
4
74
0
42
0.000000001
43
0.0000000001
44
0.0000000001
40
-1
40
-1
40
-1
40
-1
40
0
40
0
40
0
40
0
10
256.68341400000008
20
75.706812999999968
30
0
10
257.05848600000002
20
75.331739999999954
30
0
10
257.26920000000001
20
74.823031999999984
30
0
10
257.26920000000001
20
74.292598999999981
30
0
0
LINE
5
116
100
AcDbEntity
8
0
100
AcDbLine
10
257.26920000000001
20
74.292598999999996
30
0
11
257.26920000000001
21
59.242599999999982
31
0
0
SPLINE
5
117
100
AcDbEntity
8
0
100
AcDbSpline
70
0
71
3
72
8
73
4
74
0
42
0.000000001
43
0.0000000001
44
0.0000000001
40
-1
40
-1
40
-1
40
-1
40
0
40
0
40
0
40
0
10
257.26920000000001
20
59.242599999999982
30
0
10
257.26920000000001
20
58.71216699999998
30
0
10
257.05848600000002
20
58.20345899999996
30
0
10
256.68341400000008
20
57.828385999999981
30
0
0
SPLINE
5
118
100
AcDbEntity
8
0
100
AcDbSpline
70
0
71
3
72
8
73
4
74
0
42
0.000000001
43
0.0000000001
44
0.0000000001
40
-1
40
-1
40
-1
40
-1
40
0
40
0
40
0
40
0
10
256.68341400000008
20
57.828385999999981
30
0
10
256.30834100000004
20
57.453312999999973
30
0
10
255.79963300000003
20
57.242598999999998
30
0
10
255.26920000000004
20
57.242598999999998
30
0
0
LINE
5
119
100
AcDbEntity
8
0
100
AcDbLine
10
255.26920000000004
20
57.242598999999998
30
0
11
244.98170000000002
21
57.242598999999998
31
0
0
SPLINE
5
120
100
AcDbEntity
8
0
100
AcDbSpline
70
0
71
3
72
8
73
4
74
0
42
0.000000001
43
0.0000000001
44
0.0000000001
40
0
40
0
40
0
40
0
40
1
40
1
40
1
40
1
10
244.98170000000002
20
57.242598999999998
30
0
10
244.45126700000003
20
57.242598999999998
30
0
10
243.94255900000002
20
57.031885999999972
30
0
10
243.567486
20
56.656812999999971
30
0
0
SPLINE
5
121
100
AcDbEntity
8
0
100
AcDbSpline
70
0
71
3
72
8
73
4
74
0
42
0.000000001
43
0.0000000001
44
0.0000000001
40
0
40
0
40
0
40
0
40
1
40
1
40
1
40
1
10
243.567486
20
56.656812999999971
30
0
10
243.19241400000007
20
56.281739999999942
30
0
10
242.98169999999999
20
55.773031999999972
30
0
10
242.98169999999999
20
55.24259899999997
30
0
0
LINE
5
122
100
AcDbEntity
8
0
100
AcDbLine
10
242.98169999999999
20
55.242598999999977
30
0
11
242.98169999999999
21
40.192599999999963
31
0
0
SPLINE
5
123
100
AcDbEntity
8
0
100
AcDbSpline
70
0
71
3
72
8
73
4
74
0
42
0.000000001
43
0.0000000001
44
0.0000000001
40
-1
40
-1
40
-1
40
-1
40
0
40
0
40
0
40
0
10
242.98169999999999
20
40.192599999999963
30
0
10
242.98169999999999
20
39.662166999999982
30
0
10
242.77098600000002
20
39.15345899999997
30
0
10
242.395914
20
38.778385999999962
30
0
0
SPLINE
5
124
100
AcDbEntity
8
0
100
AcDbSpline
70
0
71
3
72
8
73
4
74
0
42
0.000000001
43
0.0000000001
44
0.0000000001
40
-1
40
-1
40
-1
40
-1
40
0
40
0
40
0
40
0
10
242.395914
20
38.778385999999962
30
0
10
242.02084100000008
20
38.403312999999969
30
0
10
241.51213300000001
20
38.192598999999973
30
0
10
240.98169999999999
20
38.192598999999973
30
0
0
LINE
5
125
100
AcDbEntity
8
0
100
AcDbLine
10
240.98169999999999
20
38.192598999999973
30
0
11
235.45670000000004
21
38.192598999999973
31
0
0
SPLINE
5
126
100
AcDbEntity
8
0
100
AcDbSpline
70
0
71
3
72
8
73
4
74
0
42
0.000000001
43
0.0000000001
44
0.0000000001
40
0
40
0
40
0
40
0
40
1
40
1
40
1
40
1
10
235.45670000000004
20
38.192598999999973
30
0
10
234.92626700000002
20
38.192598999999973
30
0
10
234.41755900000004
20
37.981885999999975
30
0
10
234.04248600000003
20
37.60681299999996
30
0
0
SPLINE
5
127
100
AcDbEntity
8
0
100
AcDbSpline
70
0
71
3
72
8
73
4
74
0
42
0.000000001
43
0.0000000001
44
0.0000000001
40
0
40
0
40
0
40
0
40
1
40
1
40
1
40
1
10
234.04248600000003
20
37.60681299999996
30
0
10
233.66741400000001
20
37.231739999999967
30
0
10
233.45670000000001
20
36.723031999999989
30
0
10
233.45670000000001
20
36.192598999999966
30
0
0
LINE
5
128
100
AcDbEntity
8
0
100
AcDbLine
10
233.45670000000001
20
36.192598999999966
30
0
11
233.45670000000001
21
21.14259999999998
31
0
0
SPLINE
5
129
100
AcDbEntity
8
0
100
AcDbSpline
70
0
71
3
72
8
73
4
74
0
42
0.000000001
43
0.0000000001
44
0.0000000001
40
-1
40
-1
40
-1
40
-1
40
0
40
0
40
0
40
0
10
233.45670000000001
20
21.14259999999998
30
0
10
233.45670000000001
20
20.612166999999975
30
0
10
233.24598600000002
20
20.103458999999951
30
0
10
232.87091400000008
20
19.728385999999976
30
0
0
SPLINE
5
130
100
AcDbEntity
8
0
100
AcDbSpline
70
0
71
3
72
8
73
4
74
0
42
0.000000001
43
0.0000000001
44
0.0000000001
40
-1
40
-1
40
-1
40
-1
40
0
40
0
40
0
40
0
10
232.87091400000008
20
19.728385999999976
30
0
10
232.49584100000007
20
19.353312999999961
30
0
10
231.98713300000006
20
19.142598999999993
30
0
10
231.45670000000001
20
19.142598999999993
30
0
0
LINE
5
131
100
AcDbEntity
8
0
100
AcDbLine
10
231.45670000000001
20
19.142598999999993
30
0
11
44.956700000000005
21
19.142598999999993
31
0
0
SPLINE
5
132
100
AcDbEntity
8
0
100
AcDbSpline
70
0
71
3
72
8
73
4
74
0
42
0.000000001
43
0.0000000001
44
0.0000000001
40
-1
40
-1
40
-1
40
-1
40
0
40
0
40
0
40
0
10
44.956700000000012
20
19.142598999999993
30
0
10
44.42626700000001
20
19.142598999999993
30
0
10
43.917559000000011
20
19.353312999999961
30
0
10
43.542485999999997
20
19.728385999999976
30
0
0
SPLINE
5
133
100
AcDbEntity
8
0
100
AcDbSpline
70
0
71
3
72
8
73
4
74
0
42
0.000000001
43
0.0000000001
44
0.0000000001
40
-1
40
-1
40
-1
40
-1
40
0
40
0
40
0
40
0
10
43.542485999999997
20
19.728385999999976
30
0
10
43.167414000000008
20
20.103458999999951
30
0
10
42.956700000000012
20
20.612166999999975
30
0
10
42.956700000000012
20
21.14259999999998
30
0
0
LINE
5
134
100
AcDbEntity
8
0
100
AcDbLine
10
42.956700000000012
20
21.14259999999998
30
0
11
42.956700000000012
21
36.192598999999966
31
0
0
SPLINE
5
135
100
AcDbEntity
8
0
100
AcDbSpline
70
0
71
3
72
8
73
4
74
0
42
0.000000001
43
0.0000000001
44
0.0000000001
40
0
40
0
40
0
40
0
40
1
40
1
40
1
40
1
10
42.956700000000012
20
36.192598999999966
30
0
10
42.956700000000012
20
36.723031999999989
30
0
10
42.745985999999988
20
37.231739999999967
30
0
10
42.370914000000006
20
37.60681299999996
30
0
0
SPLINE
5
136
100
AcDbEntity
8
0
100
AcDbSpline
70
0
71
3
72
8
73
4
74
0
42
0.000000001
43
0.0000000001
44
0.0000000001
40
0
40
0
40
0
40
0
40
1
40
1
40
1
40
1
10
42.370914000000006
20
37.60681299999996
30
0
10
41.995840999999992
20
37.981885999999975
30
0
10
41.487133000000007
20
38.192598999999973
30
0
10
40.956699999999998
20
38.192598999999973
30
0
0
LINE
5
137
100
AcDbEntity
8
0
100
AcDbLine
10
40.956700000000012
20
38.192598999999973
30
0
11
35.431699999999999
21
38.192598999999973
31
0
0
SPLINE
5
138
100
AcDbEntity
8
0
100
AcDbSpline
70
0
71
3
72
8
73
4
74
0
42
0.000000001
43
0.0000000001
44
0.0000000001
40
-1
40
-1
40
-1
40
-1
40
0
40
0
40
0
40
0
10
35.431699999999999
20
38.192598999999973
30
0
10
34.90126699999999
20
38.192598999999973
30
0
10
34.392559000000013
20
38.403312999999969
30
0
10
34.017486000000012
20
38.778385999999962
30
0
0
SPLINE
5
139
100
AcDbEntity
8
0
100
AcDbSpline
70
0
71
3
72
8
73
4
74
0
42
0.000000001
43
0.0000000001
44
0.0000000001
40
-1
40
-1
40
-1
40
-1
40
0
40
0
40
0
40
0
10
34.017486000000012
20
38.778385999999962
30
0
10
33.642414000000009
20
39.15345899999997
30
0
10
33.431700000000006
20
39.662166999999982
30
0
10
33.431700000000006
20
40.192599999999963
30
0
0
LINE
5
140
100
AcDbEntity
8
0
100
AcDbLine
10
33.431700000000006
20
40.192599999999963
30
0
11
33.431700000000006
21
55.24259899999997
31
0
0
SPLINE
5
141
100
AcDbEntity
8
0
100
AcDbSpline
70
0
71
3
72
8
73
4
74
0
42
0.000000001
43
0.0000000001
44
0.0000000001
40
0
40
0
40
0
40
0
40
1
40
1
40
1
40
1
10
33.431700000000006
20
55.24259899999997
30
0
10
33.431700000000006
20
55.773031999999972
30
0
10
33.220986000000003
20
56.281739999999942
30
0
10
32.845914
20
56.656812999999971
30
0
0
SPLINE
5
142
100
AcDbEntity
8
0
100
AcDbSpline
70
0
71
3
72
8
73
4
74
0
42
0.000000001
43
0.0000000001
44
0.0000000001
40
0
40
0
40
0
40
0
40
1
40
1
40
1
40
1
10
32.845914
20
56.656812999999971
30
0
10
32.470841000000007
20
57.031885999999972
30
0
10
31.962133000000001
20
57.242598999999998
30
0
10
31.431700000000014
20
57.242598999999998
30
0
0
LINE
5
143
100
AcDbEntity
8
0
100
AcDbLine
10
31.431700000000014
20
57.242598999999991
30
0
11
30.6692
21
57.242598999999998
31
0
0
LWPOLYLINE
5
144
100
AcDbEntity
8
0
100
AcDbPolyline
90
32
70
1
43
0.0
10
282.19380000000001
20
92.817600000000027
10
282.19380000000001
20
92.817800000000005
10
275.19479999999999
20
92.817800000000005
10
275.19479999999999
20
92.817600000000027
10
258.3938
20
92.817600000000027
10
258.3938
20
92.817800000000005
10
251.39480000000009
20
92.817800000000005
10
251.39480000000009
20
92.817600000000027
10
250.77000000000001
20
92.817600000000027
42
0.41421356237315748
10
250.27000000000001
20
92.317599999999999
10
250.27000000000001
20
79.318299999999979
42
0.41421356237311063
10
250.76999999999998
20
78.818299999999994
10
250.89480000000009
20
78.818299999999965
42
-0.41421356237312623
10
251.39480000000009
20
78.318299999999979
10
251.39480000000009
20
77.84850000000003
42
0.41421356237310542
10
251.89480000000009
20
77.348500000000001
10
257.89380000000006
20
77.348499999999973
42
0.414213562373069
10
258.3938
20
77.848500000000001
10
258.39380000000006
20
78.318299999999979
42
-0.41421356237313145
10
258.89380000000006
20
78.818299999999979
10
274.69479999999999
20
78.818299999999979
42
-0.41421356237317308
10
275.19479999999999
20
78.318299999999979
10
275.19479999999999
20
77.848500000000001
42
0.41421356237307944
10
275.69480000000004
20
77.348499999999987
10
281.69380000000001
20
77.348499999999973
42
0.414213562373069
10
282.19379999999995
20
77.848500000000001
10
282.19380000000001
20
78.318299999999979
42
-0.41421356237313145
10
282.69380000000001
20
78.818299999999979
10
282.81900000000002
20
78.818299999999979
42
0.41421356237304818
10
283.31900000000013
20
79.318299999999979
10
283.31900000000007
20
92.317599999999999
42
0.41421356237303258
10
282.81900000000002
20
92.817599999999999
0
LWPOLYLINE
5
145
100
AcDbEntity
8
0
100
AcDbPolyline
90
4
70
1
43
0.0
10
-1.3803499999999858
20
92.567599999999985
42
-0.99999999999999989
10
0.61964999999999848
20
92.567600000000013
10
0.61965000000000758
20
2.8682699999999817
42
-0.99999999999999989
10
-1.3803500000000013
20
2.8682700000000061
0
LWPOLYLINE
5
146
100
AcDbEntity
8
0
100
AcDbPolyline
90
4
70
1
43
0.0
10
298.61935000000005
20
0.61827000000000054
42
-0.99999999999999989
10
298.61935000000005
20
-1.3817300000000008
10
208.86956666670002
20
-1.3817300000000008
42
-0.99999999999999989
10
208.86956666670002
20
0.61827000000000099
0
LWPOLYLINE
5
147
100
AcDbEntity
8
0
100
AcDbPolyline
90
4
70
1
43
0.0
10
208.86956666670002
20
94.817600000000013
42
-0.99999999999999989
10
208.86956666670002
20
96.817600000000041
10
298.61935000000005
20
96.817600000000041
42
-0.99999999999999989
10
298.61935000000005
20
94.817600000000013
0
LWPOLYLINE
5
148
100
AcDbEntity
8
0
100
AcDbPolyline
90
8
70
1
43
0.0
10
28.024899999999992
20
35.667700000000011
10
15.025899999999996
20
35.667700000000011
42
0.41421356237310542
10
14.525900000000004
20
35.167700000000011
10
14.525900000000007
20
22.168400000000009
42
0.4142135623730781
10
15.02589999999998
20
21.668400000000005
10
28.024900000000002
20
21.668400000000002
42
0.41421356237310281
10
28.524899999999999
20
22.168399999999995
10
28.524899999999999
20
35.167700000000011
42
0.41421356237309503
0
LWPOLYLINE
5
149
100
AcDbEntity
8
0
100
AcDbPolyline
90
8
70
1
43
0.0
10
28.813400000000016
20
16.117800000000006
42
-0.41421356237309243
10
29.313399999999991
20
16.617800000000006
10
44.694000000000003
20
16.617800000000006
42
-0.41421356237308982
10
45.194000000000003
20
16.117799999999999
10
45.19400000000001
20
3.1182700000000008
42
-0.41421356237308038
10
44.694000000000003
20
2.6182699999999985
10
29.313399999999991
20
2.6182700000000065
42
-0.41421356237308232
10
28.813400000000001
20
3.1182700000000008
0
LWPOLYLINE
5
150
100
AcDbEntity
8
0
100
AcDbPolyline
90
8
70
1
43
0.0
10
20.881700000000016
20
16.617799999999995
10
5.5009099999999966
20
16.617800000000003
42
0.4142135623730937
10
5.0009100000000029
20
16.117800000000003
10
5.000910000000002
20
3.1182699999999963
42
0.41421356237308171
10
5.5009099999999833
20
2.6182699999999981
10
20.881699999999999
20
2.6182699999999981
42
0.41421356237308948
10
21.381700000000002
20
3.1182699999999919
10
21.381699999999995
20
16.117800000000006
42
0.41421356237310542
0
LWPOLYLINE
5
151
100
AcDbEntity
8
0
100
AcDbPolyline
90
8
70
1
43
0.0
10
36.92495000000001
20
20.6983
42
-0.41421356237307944
10
36.42495000000001
20
20.198300000000003
10
30.425949999999986
20
20.198300000000003
42
-0.41421356237309764
10
29.92595
20
20.6983
10
29.92595
20
35.167600000000007
42
-0.41421356237309764
10
30.425950000000004
20
35.667600000000007
10
36.424950000000003
20
35.667600000000007
42
-0.41421356237309764
10
36.924950000000003
20
35.167600000000007
0
LWPOLYLINE
5
152
100
AcDbEntity
8
0
100
AcDbPolyline
90
8
70
1
43
0.0
10
7.8821599999999847
20
59.768300000000011
42
-0.41421356237308138
10
7.3821599999999998
20
60.268300000000004
10
7.3821599999999963
20
73.267600000000016
42
-0.41421356237309698
10
7.8821599999999981
20
73.767600000000016
10
20.881699999999999
20
73.767600000000016
42
-0.41421356237309764
10
21.381700000000002
20
73.267600000000016
10
21.381700000000009
20
60.268300000000004
42
-0.41421356237306639
10
20.881699999999999
20
59.768300000000011
0
LWPOLYLINE
5
153
100
AcDbEntity
8
0
100
AcDbPolyline
90
8
70
1
43
0.0
10
229.11300000000011
20
79.318300000000022
10
229.113
20
92.317600000000013
42
0.41421356237300139
10
228.613
20
92.817600000000041
10
228.56200000000001
20
92.817600000000027
42
0.4142135623730846
10
228.06199999999995
20
92.317600000000013
10
228.06199999999995
20
79.318300000000022
42
0.41421356237321472
10
228.56200000000001
20
78.818299999999994
10
228.61299999999997
20
78.818300000000022
42
0.41421356237312623
0
LWPOLYLINE
5
154
100
AcDbEntity
8
0
100
AcDbPolyline
90
8
70
1
43
0.0
10
95.261300000000034
20
92.817600000000027
42
-0.41421356237313667
10
95.761300000000048
20
92.317600000000013
10
95.761300000000034
20
79.318300000000022
42
-0.41421356237304302
10
95.261300000000034
20
78.818299999999979
10
95.210300000000032
20
78.81830000000005
42
-0.41421356237311063
10
94.710300000000004
20
79.318300000000022
10
94.710300000000061
20
92.317600000000013
42
-0.41421356237312623
10
95.210300000000018
20
92.817600000000027
0
LWPOLYLINE
5
155
100
AcDbEntity
8
0
100
AcDbPolyline
90
8
70
1
43
0.0
10
79.319699999999983
20
78.818299999999979
10
92.319000000000017
20
78.818299999999965
42
0.41421356237316787
10
92.819000000000003
20
79.318299999999979
10
92.819000000000003
20
92.317599999999999
42
0.41421356237303258
10
92.319000000000017
20
92.817600000000027
10
79.319699999999983
20
92.817600000000027
42
0.4142135623730378
10
78.819699999999997
20
92.317599999999956
10
78.819699999999983
20
79.318299999999979
42
0.41421356237309503
0
LWPOLYLINE
5
156
100
AcDbEntity
8
0
100
AcDbPolyline
90
8
70
1
43
0.0
10
60.269699999999993
20
78.818299999999994
10
73.268999999999977
20
78.818299999999979
42
0.41421356237313667
10
73.768999999999977
20
79.318299999999979
10
73.768999999999977
20
92.317599999999999
42
0.41421356237305862
10
73.268999999999977
20
92.817599999999985
10
60.2697
20
92.817600000000027
42
0.41421356237313145
10
59.769700000000014
20
92.317599999999956
10
59.769700000000014
20
79.318299999999979
42
0.41421356237309503
0
LWPOLYLINE
5
157
100
AcDbEntity
8
0
100
AcDbPolyline
90
8
70
1
43
0.0
10
130.91899999999998
20
79.318299999999979
10
130.91899999999998
20
92.317599999999999
42
0.41421356237307422
10
130.41899999999998
20
92.817599999999999
10
117.41800000000001
20
92.817600000000027
42
0.41421356237312623
10
116.91800000000001
20
92.317599999999999
10
116.91800000000001
20
79.318299999999979
42
0.41421356237312101
10
117.41800000000001
20
78.818299999999965
10
130.41899999999998
20
78.818299999999965
42
0.41421356237314183
0
LWPOLYLINE
5
158
100
AcDbEntity
8
0
100
AcDbPolyline
90
8
70
1
43
0.0
10
35.669000000000004
20
79.318299999999979
10
35.66899999999999
20
92.317600000000013
42
0.41421356237315227
10
35.168999999999997
20
92.817600000000027
10
22.169699999999999
20
92.817600000000027
42
0.41421356237311846
10
21.669700000000024
20
92.317600000000013
10
21.669699999999995
20
79.318299999999979
42
0.41421356237309764
10
22.169699999999999
20
78.818299999999979
10
35.169000000000004
20
78.818299999999994
42
0.41421356237306123
0
LWPOLYLINE
5
159
100
AcDbEntity
8
0
100
AcDbPolyline
90
8
70
1
43
0.0
10
75.661699999999982
20
92.317599999999942
10
75.661699999999982
20
79.318299999999965
42
0.41421356237310025
10
76.161700000000025
20
78.818299999999951
10
76.212700000000012
20
78.818299999999951
42
0.4142135623730846
10
76.712700000000012
20
79.318299999999965
10
76.712700000000012
20
92.317599999999956
42
0.41421356237310025
10
76.212700000000012
20
92.817599999999942
10
76.161699999999982
20
92.817599999999942
42
0.41421356237312101
0
LWPOLYLINE
5
160
100
AcDbEntity
8
0
100
AcDbPolyline
90
8
70
1
43
0.0
10
212.66999999999996
20
78.818299999999994
10
225.66900000000004
20
78.818299999999951
42
0.414213562373069
10
226.16899999999998
20
79.318299999999979
10
226.16900000000001
20
92.317599999999999
42
0.41421356237304302
10
225.66900000000004
20
92.817600000000027
10
212.66999999999999
20
92.817600000000027
42
0.41421356237315748
10
212.16999999999999
20
92.317599999999999
10
212.16999999999999
20
79.318299999999979
42
0.41421356237311063
0
LWPOLYLINE
5
161
100
AcDbEntity
8
0
100
AcDbPolyline
90
8
70
1
43
0.0
10
302.36900000000009
20
22.168299999999999
42
-0.41421356237313145
10
301.86900000000009
20
21.668299999999991
10
288.87000000000006
20
21.668299999999988
42
-0.41421356237307683
10
288.37
20
22.168299999999999
10
288.37000000000006
20
35.167600000000007
42
-0.41421356237315748
10
288.87000000000006
20
35.667599999999986
10
301.86900000000009
20
35.667600000000014
42
-0.41421356237313667
10
302.36900000000009
20
35.167600000000007
0
LWPOLYLINE
5
162
100
AcDbEntity
8
0
100
AcDbPolyline
90
8
70
1
43
0.0
10
231.22
20
92.317599999999999
42
-0.41421356237315748
10
231.72
20
92.817600000000027
10
244.71899999999999
20
92.817600000000027
42
-0.41421356237314705
10
245.21900000000002
20
92.317599999999999
10
245.21900000000002
20
79.318299999999979
42
-0.41421356237316787
10
244.71900000000002
20
78.818299999999979
10
231.71999999999997
20
78.818299999999979
42
-0.41421356237311063
10
231.22
20
79.318299999999979
0
LWPOLYLINE
5
163
100
AcDbEntity
8
0
100
AcDbPolyline
90
42
70
1
43
0.0
10
248.51330000000002
20
40.718299999999999
42
-0.41421356237313145
10
249.01330000000002
20
40.218300000000006
10
249.01330000000004
20
39.7485
42
0.41421356237309764
10
249.51329999999999
20
39.248500000000007
10
255.51230000000007
20
39.248499999999979
42
0.41421356237310542
10
256.01229999999998
20
39.7485
10
256.01229999999998
20
40.218300000000006
42
-0.41421356237307422
10
256.51230000000004
20
40.718299999999999
10
272.31380000000007
20
40.718299999999914
42
-0.41421356237297013
10
272.81380000000001
20
40.218299999999907
10
272.81380000000007
20
39.7485
42
0.4142135623730378
10
273.31380000000001
20
39.2485
10
279.31280000000004
20
39.248500000000021
42
0.41421356237319651
10
279.81279999999998
20
39.7485
10
279.81279999999998
20
41.343200000000017
42
-0.41421356237313667
10
280.31279999999998
20
41.84320000000001
10
281.43800000000005
20
41.843199999999996
42
0.4142135623731939
10
281.93800000000022
20
42.343200000000003
10
281.9380000000001
20
48.3429
42
0.4142135623730534
10
281.4380000000001
20
48.842900000000014
42
-0.41421356237312623
10
280.93799999999999
20
49.342900000000007
10
280.93799999999999
20
65.143400000000014
42
-0.41421356237310025
10
281.43800000000005
20
65.6434
42
0.4142135623731939
10
281.93800000000022
20
66.1434
10
281.9380000000001
20
72.143100000000004
42
0.41421356237318868
10
281.43800000000005
20
72.643100000000004
10
279.05700000000013
20
72.643100000000032
42
-0.4142135623730378
10
278.55700000000013
20
73.143100000000004
10
278.55700000000013
20
73.267600000000016
42
0.41421356237314183
10
278.05700000000002
20
73.767600000000016
10
265.05700000000002
20
73.767600000000002
42
0.414213562373069
10
264.55700000000007
20
73.267600000000016
10
264.55700000000007
20
60.268300000000004
42
0.41421356237303258
10
265.05700000000002
20
59.768300000000011
10
266.43799999999999
20
59.768300000000025
42
-0.41421356237300661
10
266.93799999999999
20
59.268300000000025
10
266.9380000000001
20
55.217600000000004
42
-0.41421356237316787
10
266.43799999999999
20
54.717599999999997
10
246.00700000000003
20
54.717600000000004
42
0.41421356237310542
10
245.50700000000009
20
54.217599999999997
10
245.50700000000009
20
41.218299999999999
42
0.41421356237304302
10
246.00700000000003
20
40.718300000000013
0
LWPOLYLINE
5
164
100
AcDbEntity
8
0
100
AcDbPolyline
90
8
70
1
43
0.0
10
97.868300000000019
20
92.317599999999999
10
97.868300000000019
20
79.318299999999979
42
0.414213562373069
10
98.368300000000033
20
78.818299999999979
10
111.369
20
78.818299999999965
42
0.41421356237314183
10
111.86900000000001
20
79.318299999999979
10
111.86900000000001
20
92.317599999999999
42
0.41421356237307422
10
111.369
20
92.817599999999999
10
98.368300000000048
20
92.817600000000041
42
0.4142135623730222
0
LWPOLYLINE
5
165
100
AcDbEntity
8
0
100
AcDbPolyline
90
8
70
1
43
0.0
10
6.1258999999999997
20
35.167600000000007
10
6.1259000000000015
20
20.6983
42
0.41421356237310414
10
6.6259000000000157
20
20.198300000000003
10
12.624899999999997
20
20.198300000000007
42
0.41421356237310281
10
13.124899999999995
20
20.6983
10
13.124900000000006
20
35.167600000000007
42
0.41421356237311197
10
12.624899999999997
20
35.667600000000007
10
6.6258999999999979
20
35.667600000000007
42
0.41421356237309631
0
LWPOLYLINE
5
166
100
AcDbEntity
8
0
100
AcDbPolyline
90
8
70
1
43
0.0
10
19.011700000000079
20
78.818299999999979
10
19.062700000000067
20
78.818299999999979
42
0.41421356237308982
10
19.562700000000074
20
79.318299999999979
10
19.562700000000067
20
92.317599999999999
42
0.41421356237310153
10
19.062700000000067
20
92.817599999999985
10
19.011700000000047
20
92.817599999999985
42
0.41421356237307422
10
18.51170000000003
20
92.317599999999999
10
18.511700000000047
20
79.318299999999979
42
0.41421356237313534
0
LWPOLYLINE
5
167
100
AcDbEntity
8
0
100
AcDbPolyline
90
8
70
1
43
0.0
10
256.625
20
35.667600000000064
42
-0.41421356237295714
10
257.125
20
35.167600000000007
10
257.12499999999994
20
22.168299999999999
42
-0.41421356237298318
10
256.625
20
21.66829999999997
10
243.626
20
21.66829999999997
42
-0.41421356237310802
10
243.126
20
22.168299999999999
10
243.12600000000006
20
35.167600000000007
42
-0.41421356237298318
10
243.626
20
35.667600000000036
0
LWPOLYLINE
5
168
100
AcDbEntity
8
0
100
AcDbPolyline
90
20
70
1
43
0.0
10
173.07615000000001
20
10.618034999999997
42
-0.99999999999999989
10
173.07615000000001
20
8.6180350000000061
10
150.57515000000001
20
8.6180349999999972
42
0.41421356237310542
10
150.07515000000001
20
8.1180350000000061
10
150.07515000000001
20
3.1182700000000008
42
-0.41421356237310608
10
149.57515000000001
20
2.6182700000000132
10
124.56200000000004
20
2.6182699999999901
42
-0.41421356237310869
10
124.06200000000001
20
3.118270000000003
10
124.06200000000001
20
8.1180350000000079
42
0.41421356237310542
10
123.56200000000001
20
8.618034999999999
10
99.076149999999956
20
8.6180350000000061
42
-0.99999999999999989
10
99.076149999999998
20
10.618034999999997
10
123.56200000000001
20
10.618035000000013
42
0.41421356237308071
10
124.06200000000001
20
11.118034999999995
10
124.06200000000001
20
16.117799999999995
42
-0.41421356237302998
10
124.56200000000004
20
16.617800000000006
10
149.57515000000001
20
16.617800000000006
42
-0.41421356237309503
10
150.07515000000001
20
16.117799999999999
10
150.07515000000001
20
11.118034999999997
42
0.41421356237310281
10
150.57515000000001
20
10.618035000000001
0
LWPOLYLINE
5
169
100
AcDbEntity
8
0
100
AcDbPolyline
90
8
70
1
43
0.0
10
54.719000000000015
20
79.318299999999979
42
-0.41421356237313145
10
54.219000000000008
20
78.818299999999979
10
41.21970000000001
20
78.818299999999979
42
-0.41421356237313145
10
40.719700000000003
20
79.318299999999979
10
40.719699999999989
20
92.317600000000013
42
-0.41421356237299617
10
41.219700000000003
20
92.817600000000027
10
54.219000000000008
20
92.817600000000027
42
-0.41421356237304302
10
54.719000000000015
20
92.317599999999999
0
LWPOLYLINE
5
170
100
AcDbEntity
8
0
100
AcDbPolyline
90
8
70
1
43
0.0
10
302.36900000000009
20
41.218299999999999
42
-0.41421356237300661
10
301.86900000000009
20
40.718300000000013
10
288.87000000000006
20
40.718300000000042
42
-0.41421356237325629
10
288.37
20
41.218299999999999
10
288.37
20
54.217599999999997
42
-0.414213562373069
10
288.87000000000006
20
54.717599999999997
10
301.86900000000009
20
54.717599999999962
42
-0.41421356237315227
10
302.36900000000009
20
54.217599999999997
0
LWPOLYLINE
5
171
100
AcDbEntity
8
0
100
AcDbPolyline
90
8
70
1
43
0.0
10
149.96899999999999
20
79.318299999999979
10
149.96899999999999
20
92.317599999999999
42
0.41421356237307422
10
149.46899999999999
20
92.817599999999999
10
136.47000000000003
20
92.817600000000027
42
0.41421356237312623
10
135.97000000000003
20
92.317599999999999
10
135.97000000000003
20
79.318299999999979
42
0.41421356237305862
10
136.47000000000003
20
78.818299999999965
10
149.46899999999999
20
78.818299999999965
42
0.41421356237314183
0
LWPOLYLINE
5
172
100
AcDbEntity
8
0
100
AcDbPolyline
90
8
70
1
43
0.0
10
264.26900000000001
20
3.1182700000000008
42
-0.41421356237314672
10
263.76900000000001
20
2.6182699999999985
10
250.77000000000001
20
2.6182699999999839
42
-0.4142135623731425
10
250.27000000000001
20
3.1182700000000008
10
250.27000000000004
20
16.117799999999995
42
-0.41421356237309892
10
250.77000000000001
20
16.617799999999988
10
263.76900000000001
20
16.61780000000002
42
-0.41421356237314444
10
264.26900000000001
20
16.117799999999999
0
LWPOLYLINE
5
173
100
AcDbEntity
8
0
100
AcDbPolyline
90
6
70
1
43
0.0
10
177.56380000000001
20
2.6184600000000025
10
184.56280000000004
20
2.6184600000000025
10
184.56280000000007
20
17.587760000000006
42
0.41421356237315748
10
184.06280000000007
20
18.087759999999982
10
178.06380000000001
20
18.087759999999978
42
0.41421356237319651
10
177.56380000000001
20
17.58776000000001
0
LWPOLYLINE
5
174
100
AcDbEntity
8
0
100
AcDbPolyline
90
4
70
1
43
0.0
10
304.36935000000005
20
92.567600000000056
10
304.36935
20
2.8682700000000594
42
0.99999999999999989
10
306.36935000000005
20
2.8682700000000061
10
306.36935
20
92.567600000000013
42
0.99999999999999989
0
LWPOLYLINE
5
175
100
AcDbEntity
8
0
100
AcDbPolyline
90
8
70
1
43
0.0
10
283.31900000000007
20
3.1182700000000008
42
-0.41421356237309892
10
282.81900000000002
20
2.6182700000000096
10
269.82000000000005
20
2.6182699999999408
42
-0.41421356237295942
10
269.32000000000005
20
3.1182700000000008
10
269.32000000000005
20
16.117799999999999
42
-0.41421356237313017
10
269.82000000000005
20
16.617800000000006
10
282.81900000000002
20
16.61780000000001
42
-0.41421356237307555
10
283.31900000000007
20
16.117799999999999
0
LWPOLYLINE
5
176
100
AcDbEntity
8
0
100
AcDbPolyline
90
16
70
1
43
0.0
10
196.62030000000004
20
17.587760000000006
42
-0.41421356237307033
10
197.12029999999999
20
18.087760000000035
10
203.11930000000004
20
18.087760000000024
42
-0.41421356237320428
10
203.61930000000001
20
17.587760000000006
10
203.61930000000001
20
17.11780000000001
42
0.41421356237304041
10
204.11930000000009
20
16.61780000000002
10
209.00000000000009
20
16.617799999999978
42
-0.41421356237319906
10
209.50000000000003
20
16.117800000000006
10
209.50000000000003
20
3.1182700000000008
42
-0.41421356237302154
10
209.00000000000009
20
2.6182699999999737
10
196.001
20
2.6182699999999564
42
-0.41421356237311679
10
195.501
20
3.1182700000000008
10
195.501
20
16.117799999999995
42
-0.41421356237314444
10
196.001
20
16.617800000000031
10
196.12030000000004
20
16.617799999999932
42
0.41421356237302998
10
196.62030000000001
20
17.117800000000006
0
LWPOLYLINE
5
177
100
AcDbEntity
8
0
100
AcDbPolyline
90
8
70
1
43
0.0
10
52.625999999999991
20
16.117799999999995
42
-0.41421356237307422
10
53.125999999999998
20
16.617800000000006
10
68.506500000000017
20
16.617800000000006
42
-0.41421356237310542
10
69.006500000000003
20
16.117799999999999
10
69.006500000000003
20
3.1182700000000008
42
-0.4142135623731012
10
68.506500000000003
20
2.6182700000000052
10
53.125999999999998
20
2.6182700000000008
42
-0.41421356237308038
10
52.626000000000026
20
3.1182700000000008
0
LWPOLYLINE
5
178
100
AcDbEntity
8
0
100
AcDbPolyline
90
8
70
1
43
0.0
10
174.56999999999999
20
78.818299999999994
42
-0.41421356237316265
10
174.06999999999999
20
79.318299999999979
10
174.07000000000005
20
92.317599999999999
42
-0.41421356237298057
10
174.56999999999999
20
92.817599999999985
10
187.56900000000002
20
92.817600000000027
42
-0.4142135623730222
10
188.0690000000001
20
92.317599999999999
10
188.06899999999999
20
79.318299999999979
42
-0.4142135623732251
10
187.56899999999999
20
78.818300000000022
0
LWPOLYLINE
5
179
100
AcDbEntity
8
0
100
AcDbPolyline
90
8
70
1
43
0.0
10
233.31299999999999
20
3.1182700000000008
42
-0.414213562373203
10
232.81300000000002
20
2.6182699999999932
10
217.43200000000004
20
2.6182699999999763
42
-0.41421356237314672
10
216.93200000000004
20
3.1182700000000008
10
216.93200000000004
20
16.117799999999995
42
-0.41421356237314444
10
217.43200000000004
20
16.617800000000006
10
232.81300000000002
20
16.617800000000045
42
-0.41421356237305473
10
233.31299999999999
20
16.117799999999999
0
LWPOLYLINE
5
180
100
AcDbEntity
8
0
100
AcDbPolyline
90
8
70
1
43
0.0
10
283.31900000000007
20
22.168299999999999
10
283.31900000000007
20
35.167600000000007
42
0.41421356237316009
10
282.81900000000002
20
35.667600000000022
10
269.82000000000005
20
35.667600000000007
42
0.4142135623730378
10
269.32000000000011
20
35.167600000000007
10
269.32000000000005
20
22.168299999999999
42
0.41421356237295975
10
269.82000000000005
20
21.668299999999956
10
282.81900000000002
20
21.668300000000009
42
0.41421356237309764
0
LWPOLYLINE
5
181
100
AcDbEntity
8
0
100
AcDbPolyline
90
8
70
1
43
0.0
10
301.86900000000009
20
16.617800000000038
10
288.87000000000006
20
16.617799999999988
42
0.41421356237310025
10
288.37
20
16.117799999999995
10
288.37
20
3.1182700000000008
42
0.41421356237307583
10
288.87000000000006
20
2.6182699999999848
10
301.86900000000009
20
2.6182699999999959
42
0.41421356237313017
10
302.36900000000009
20
3.1182700000000008
10
302.36900000000009
20
16.117799999999999
42
0.41421356237295975
0
LWPOLYLINE
5
182
100
AcDbEntity
8
0
100
AcDbPolyline
90
8
70
1
43
0.0
10
301.86900000000009
20
73.767600000000002
42
-0.41421356237316265
10
302.36900000000009
20
73.267600000000016
10
302.36900000000009
20
60.268300000000004
42
-0.41421356237313145
10
301.86900000000009
20
59.768300000000004
10
288.87000000000006
20
59.768300000000025
42
-0.41421356237326673
10
288.37
20
60.268300000000004
10
288.37
20
73.267600000000016
42
-0.41421356237318868
10
288.87000000000006
20
73.767600000000016
0
LWPOLYLINE
5
183
100
AcDbEntity
8
0
100
AcDbPolyline
90
8
70
1
43
0.0
10
206.61900000000003
20
92.817600000000027
42
-0.41421356237298057
10
207.11900000000003
20
92.317599999999999
10
207.11900000000014
20
79.318299999999979
42
-0.41421356237314183
10
206.61900000000003
20
78.818299999999979
10
193.62
20
78.818299999999994
42
-0.41421356237316265
10
193.12
20
79.318299999999979
10
193.12
20
92.317599999999999
42
-0.41421356237312623
10
193.62000000000006
20
92.817600000000027
0
LWPOLYLINE
5
184
100
AcDbEntity
8
0
100
AcDbPolyline
90
8
70
1
43
0.0
10
285.2120000000001
20
16.117799999999995
10
285.21200000000016
20
3.1184999999999796
42
0.4142135623730121
10
285.7120000000001
20
2.6184999999999548
10
285.76300000000009
20
2.6184999999999774
42
0.41421356237298218
10
286.26300000000009
20
3.1184999999999796
10
286.26300000000009
20
16.117799999999995
42
0.41421356237291296
10
285.76300000000009
20
16.617799999999988
10
285.7120000000001
20
16.61780000000002
42
0.41421356237295714
0
LWPOLYLINE
5
185
100
AcDbEntity
8
0
100
AcDbPolyline
90
8
70
1
43
0.0
10
193.39400000000001
20
3.1184999999999974
10
193.39400000000001
20
16.117799999999995
42
0.41421356237288559
10
192.89400000000001
20
16.617800000000006
10
192.84300000000002
20
16.617799999999988
42
0.4142135623730625
10
192.34300000000005
20
16.117800000000013
10
192.34300000000002
20
3.1184999999999974
42
0.41421356237314316
10
192.84300000000002
20
2.6184999999999903
10
192.89400000000001
20
2.618500000000004
42
0.41421356237300433
0
LWPOLYLINE
5
186
100
AcDbEntity
8
0
100
AcDbPolyline
90
8
70
1
43
0.0
10
212.15800000000004
20
16.61780000000001
10
212.10700000000003
20
16.617799999999974
42
0.41421356237331874
10
211.60700000000008
20
16.117800000000003
10
211.60700000000008
20
3.1184999999999952
42
0.41421356237311358
10
212.10700000000003
20
2.6184999999999814
10
212.15800000000004
20
2.6184999999999903
42
0.41421356237307455
10
212.6580000000001
20
3.1184999999999974
10
212.6580000000001
20
16.117799999999992
42
0.41421356237295714
0
LWPOLYLINE
5
187
100
AcDbEntity
8
0
100
AcDbPolyline
90
8
70
1
43
0.0
10
191.01300000000009
20
79.318300000000022
10
191.01300000000009
20
92.317600000000013
42
0.41421356237314705
10
190.51300000000009
20
92.817600000000027
10
190.4620000000001
20
92.817600000000027
42
0.41421356237321988
10
189.9620000000001
20
92.317600000000013
10
189.9620000000001
20
79.318300000000022
42
0.41421356237314705
10
190.46200000000005
20
78.818299999999965
10
190.51300000000009
20
78.818299999999979
42
0.41421356237312623
0
LWPOLYLINE
5
188
100
AcDbEntity
8
0
100
AcDbPolyline
90
8
70
1
43
0.0
10
209.56299999999999
20
92.817600000000041
10
209.512
20
92.817600000000027
42
0.41421356237319906
10
209.01200000000003
20
92.317600000000013
10
209.01200000000003
20
79.318300000000022
42
0.41421356237303258
10
209.512
20
78.818299999999965
10
209.56299999999999
20
78.818300000000022
42
0.4142135623731939
10
210.0630000000001
20
79.318300000000022
10
210.06299999999999
20
92.317600000000013
42
0.41421356237300139
0
LWPOLYLINE
5
189
100
AcDbEntity
8
0
100
AcDbPolyline
90
8
70
1
43
0.0
10
114.81100000000001
20
79.318300000000022
42
-0.41421356237311585
10
114.31100000000001
20
78.818300000000022
10
114.26000000000002
20
78.818300000000022
42
-0.414213562373069
10
113.75999999999998
20
79.318300000000022
10
113.76000000000003
20
92.317600000000013
42
-0.41421356237314705
10
114.26000000000002
20
92.817600000000027
10
114.31100000000001
20
92.817600000000027
42
-0.41421356237313667
10
114.81100000000001
20
92.317600000000013
0
LWPOLYLINE
5
190
100
AcDbEntity
8
0
100
AcDbPolyline
90
8
70
1
43
0.0
10
2.3429099999999989
20
2.6185000000000036
42
-0.41421356237298274
10
1.8429100000000229
20
3.1185000000000018
10
1.8429100000000069
20
16.117800000000013
42
-0.41421356237305634
10
2.3429100000000167
20
16.617800000000035
10
2.3939100000000124
20
16.617800000000042
42
-0.4142135623730146
10
2.8939100000000155
20
16.117800000000013
10
2.8939100000000115
20
3.1184999999999974
42
-0.41421356237306611
10
2.3939100000000044
20
2.618500000000004
0
LWPOLYLINE
5
191
100
AcDbEntity
8
0
100
AcDbPolyline
90
8
70
1
43
0.0
10
24.539700000000025
20
3.1184999999999974
10
24.539700000000035
20
16.117800000000003
42
0.4142135623730222
10
24.039700000000053
20
16.617800000000038
10
23.988700000000037
20
16.617800000000017
42
0.41421356237305862
10
23.488700000000016
20
16.117800000000003
10
23.488700000000048
20
3.1184999999999952
42
0.41421356237296658
10
23.988700000000019
20
2.6184999999999947
10
24.039700000000011
20
2.6184999999999992
42
0.41421356237306317
0
LWPOLYLINE
5
192
100
AcDbEntity
8
0
100
AcDbPolyline
90
4
70
1
43
0.0
10
107.61943333329998
20
94.817599999999956
10
197.3692166667
20
94.817599999999942
42
0.99999999999999989
10
197.36921666669991
20
96.817600000000041
10
107.61943333330007
20
96.817600000000056
42
0.99999999999999989
0
LWPOLYLINE
5
193
100
AcDbEntity
8
0
100
AcDbPolyline
90
48
70
1
43
0.0
10
0.61965000000000714
20
0.21826999999999153
10
-3.8803499999999991
20
0.21827000000002983
42
-0.41421356237309537
10
-5.3803499999999715
20
1.718270000000004
10
-5.3803500000000266
20
93.717600000000004
42
-0.41421356237309204
10
-3.8803499999999858
20
95.217600000000019
10
0.61964999999999915
20
95.217600000000019
42
0.41421356237309626
10
4.2196499999999499
20
98.817599999999999
10
4.2196499999999943
20
100.0676
42
-0.41421356237308249
10
5.7196499999999872
20
101.56759999999998
10
96.769433333300015
20
101.56760000000006
42
-0.41421356237309853
10
98.269433333300057
20
100.0676
10
98.269433333299958
20
98.817600000000013
42
0.99999999999999989
10
105.46943333330006
20
98.817600000000056
10
105.46943333330003
20
100.0676
42
-0.41421356237308815
10
106.9694333333
20
101.56760000000006
10
198.01921667209996
20
101.5676
42
-0.41421356237306384
10
199.51921667210001
20
100.0676
10
199.51921667210001
20
98.817599999999999
42
0.99999999999999989
10
206.7192166721
20
98.817599999999999
10
206.7192166721
20
100.0676
42
-0.41421356237310897
10
208.21921667210012
20
101.56760000000007
10
299.26935000000009
20
101.56759999999998
42
-0.41421356237306034
10
300.76934999999997
20
100.0676
10
300.76934999999997
20
98.817599999999999
42
0.41421356237309359
10
304.36935
20
95.217600000000004
10
308.86934999999994
20
95.217600000000118
42
-0.41421356237310542
10
310.36935000000017
20
93.717600000000004
10
310.36935
20
1.7182700000000044
42
-0.41421356237308327
10
308.86935
20
0.21827000000000041
10
304.36935
20
0.2182700000000326
42
0.41421356237310075
10
300.76934999999997
20
-3.3817299999999939
10
300.76935000000003
20
-4.631730000000001
42
-0.4142135623730635
10
299.26935000000009
20
-6.1317300000000241
10
208.21921667210012
20
-6.1317300000000197
42
-0.41421356237307499
10
206.7192166721
20
-4.6317299999999939
10
206.7192166721
20
-3.381730000000001
42
0.99999999999999989
10
199.51921667210001
20
-3.3817299999999939
10
199.51921667210004
20
-4.631730000000001
42
-0.41421356237311291
10
198.01921667209999
20
-6.1317299999999975
10
106.9694333333
20
-6.1317300000000223
42
-0.41421356237308593
10
105.4694333333
20
-4.6317299999999939
10
105.46943333329999
20
-3.3817300000000272
42
0.99999999999999989
10
98.2694333333
20
-3.3817299999999673
10
98.269433333300057
20
-4.631730000000001
42
-0.41421356237311108
10
96.769433333300015
20
-6.1317300000000241
10
5.719650000000005
20
-6.1317299999999992
42
-0.41421356237309698
10
4.2196500000000006
20
-4.6317299999999939
10
4.2196499999999961
20
-3.3817300000000019
42
0.41421356237309431
0
ENDSEC
0
SECTION
2
OBJECTS
0
DICTIONARY
5
C
100
AcDbDictionary
3
ACAD_GROUP
350
D
3
ACAD_MLINESTYLE
350
17
0
DICTIONARY
5
D
100
AcDbDictionary
0
DICTIONARY
5
1A
330
C
100
AcDbDictionary
0
DICTIONARY
5
17
100
AcDbDictionary
0
ENDSEC
0
EOF
